G04 #@! TF.GenerationSoftware,KiCad,Pcbnew,9.0.7*
G04 #@! TF.CreationDate,2026-02-24T22:04:58+01:00*
G04 #@! TF.ProjectId,QuiverAttachPCB,51756976-6572-4417-9474-616368504342,rev?*
G04 #@! TF.SameCoordinates,Original*
G04 #@! TF.FileFunction,Other,User*
%FSLAX46Y46*%
G04 Gerber Fmt 4.6, Leading zero omitted, Abs format (unit mm)*
G04 Created by KiCad (PCBNEW 9.0.7) date 2026-02-24 22:04:58*
%MOMM*%
%LPD*%
G01*
G04 APERTURE LIST*
%ADD10C,0.120000*%
%ADD11C,0.050000*%
G04 APERTURE END LIST*
D10*
G04 #@! TO.C,U10*
X116440000Y-127960000D02*
G75*
G02*
X114240000Y-127960000I-1100000J0D01*
G01*
X114240000Y-127960000D02*
G75*
G02*
X116440000Y-127960000I1100000J0D01*
G01*
G04 #@! TO.C,U9*
X116440000Y-130500000D02*
G75*
G02*
X114240000Y-130500000I-1100000J0D01*
G01*
X114240000Y-130500000D02*
G75*
G02*
X116440000Y-130500000I1100000J0D01*
G01*
G04 #@! TO.C,U8*
X113900000Y-127960000D02*
G75*
G02*
X111700000Y-127960000I-1100000J0D01*
G01*
X111700000Y-127960000D02*
G75*
G02*
X113900000Y-127960000I1100000J0D01*
G01*
G04 #@! TO.C,U7*
X113900000Y-130500000D02*
G75*
G02*
X111700000Y-130500000I-1100000J0D01*
G01*
X111700000Y-130500000D02*
G75*
G02*
X113900000Y-130500000I1100000J0D01*
G01*
G04 #@! TO.C,U6*
X111360000Y-127960000D02*
G75*
G02*
X109160000Y-127960000I-1100000J0D01*
G01*
X109160000Y-127960000D02*
G75*
G02*
X111360000Y-127960000I1100000J0D01*
G01*
G04 #@! TO.C,U5*
X111360000Y-130500000D02*
G75*
G02*
X109160000Y-130500000I-1100000J0D01*
G01*
X109160000Y-130500000D02*
G75*
G02*
X111360000Y-130500000I1100000J0D01*
G01*
G04 #@! TO.C,U4*
X108820000Y-127960000D02*
G75*
G02*
X106620000Y-127960000I-1100000J0D01*
G01*
X106620000Y-127960000D02*
G75*
G02*
X108820000Y-127960000I1100000J0D01*
G01*
G04 #@! TO.C,U3*
X108820000Y-130500000D02*
G75*
G02*
X106620000Y-130500000I-1100000J0D01*
G01*
X106620000Y-130500000D02*
G75*
G02*
X108820000Y-130500000I1100000J0D01*
G01*
G04 #@! TO.C,U2*
X106280000Y-127960000D02*
G75*
G02*
X104080000Y-127960000I-1100000J0D01*
G01*
X104080000Y-127960000D02*
G75*
G02*
X106280000Y-127960000I1100000J0D01*
G01*
G04 #@! TO.C,U1*
X106280000Y-130500000D02*
G75*
G02*
X104080000Y-130500000I-1100000J0D01*
G01*
X104080000Y-130500000D02*
G75*
G02*
X106280000Y-130500000I1100000J0D01*
G01*
D11*
G04 #@! TO.C,U20*
X116440000Y-138040000D02*
G75*
G02*
X114240000Y-138040000I-1100000J0D01*
G01*
X114240000Y-138040000D02*
G75*
G02*
X116440000Y-138040000I1100000J0D01*
G01*
G04 #@! TO.C,U19*
X116440000Y-135500000D02*
G75*
G02*
X114240000Y-135500000I-1100000J0D01*
G01*
X114240000Y-135500000D02*
G75*
G02*
X116440000Y-135500000I1100000J0D01*
G01*
G04 #@! TO.C,U18*
X113900000Y-138040000D02*
G75*
G02*
X111700000Y-138040000I-1100000J0D01*
G01*
X111700000Y-138040000D02*
G75*
G02*
X113900000Y-138040000I1100000J0D01*
G01*
G04 #@! TO.C,U17*
X113900000Y-135500000D02*
G75*
G02*
X111700000Y-135500000I-1100000J0D01*
G01*
X111700000Y-135500000D02*
G75*
G02*
X113900000Y-135500000I1100000J0D01*
G01*
G04 #@! TO.C,U16*
X111360000Y-138040000D02*
G75*
G02*
X109160000Y-138040000I-1100000J0D01*
G01*
X109160000Y-138040000D02*
G75*
G02*
X111360000Y-138040000I1100000J0D01*
G01*
G04 #@! TO.C,U15*
X111360000Y-135500000D02*
G75*
G02*
X109160000Y-135500000I-1100000J0D01*
G01*
X109160000Y-135500000D02*
G75*
G02*
X111360000Y-135500000I1100000J0D01*
G01*
G04 #@! TO.C,U14*
X108820000Y-138040000D02*
G75*
G02*
X106620000Y-138040000I-1100000J0D01*
G01*
X106620000Y-138040000D02*
G75*
G02*
X108820000Y-138040000I1100000J0D01*
G01*
G04 #@! TO.C,U13*
X108820000Y-135500000D02*
G75*
G02*
X106620000Y-135500000I-1100000J0D01*
G01*
X106620000Y-135500000D02*
G75*
G02*
X108820000Y-135500000I1100000J0D01*
G01*
G04 #@! TO.C,U12*
X106280000Y-138040000D02*
G75*
G02*
X104080000Y-138040000I-1100000J0D01*
G01*
X104080000Y-138040000D02*
G75*
G02*
X106280000Y-138040000I1100000J0D01*
G01*
G04 #@! TO.C,U11*
X106280000Y-135500000D02*
G75*
G02*
X104080000Y-135500000I-1100000J0D01*
G01*
X104080000Y-135500000D02*
G75*
G02*
X106280000Y-135500000I1100000J0D01*
G01*
G04 #@! TD*
M02*
