%TF.GenerationSoftware,KiCad,Pcbnew,9.0.7*%
%TF.CreationDate,2026-02-24T22:04:59+01:00*%
%TF.ProjectId,QuiverAttachPCB,51756976-6572-4417-9474-616368504342,rev?*%
%TF.SameCoordinates,Original*%
%TF.FileFunction,Drillmap*%
%TF.FilePolarity,Positive*%
%FSLAX45Y45*%
G04 Gerber Fmt 4.5, Leading zero omitted, Abs format (unit mm)*
G04 Created by KiCad (PCBNEW 9.0.7) date 2026-02-24 22:04:59*
%MOMM*%
%LPD*%
G01*
G04 APERTURE LIST*
%ADD10C,0.200000*%
%ADD11C,0.100000*%
G04 APERTURE END LIST*
D10*
X10025000Y-12510000D02*
X9825000Y-12710000D01*
X11975000Y-12510000D02*
X10025000Y-12510000D01*
X12100000Y-13700000D02*
G75*
G02*
X11900000Y-13700000I-100000J0D01*
G01*
X11900000Y-13700000D02*
G75*
G02*
X12100000Y-13700000I100000J0D01*
G01*
X10025000Y-14090000D02*
X9825000Y-13890000D01*
X10100000Y-13700000D02*
G75*
G02*
X9900000Y-13700000I-100000J0D01*
G01*
X9900000Y-13700000D02*
G75*
G02*
X10100000Y-13700000I100000J0D01*
G01*
X12175000Y-12710000D02*
X11975000Y-12510000D01*
X12100000Y-12900000D02*
G75*
G02*
X11900000Y-12900000I-100000J0D01*
G01*
X11900000Y-12900000D02*
G75*
G02*
X12100000Y-12900000I100000J0D01*
G01*
X12175000Y-12710000D02*
X12175000Y-13890000D01*
X12175000Y-13890000D02*
X11975000Y-14090000D01*
X10100000Y-12900000D02*
G75*
G02*
X9900000Y-12900000I-100000J0D01*
G01*
X9900000Y-12900000D02*
G75*
G02*
X10100000Y-12900000I100000J0D01*
G01*
X11975000Y-14090000D02*
X10025000Y-14090000D01*
X9825000Y-12710000D02*
X9825000Y-13890000D01*
D11*
X10493000Y-12771000D02*
X10543000Y-12821000D01*
X10543000Y-12771000D02*
X10493000Y-12821000D01*
X10493000Y-13025000D02*
X10543000Y-13075000D01*
X10543000Y-13025000D02*
X10493000Y-13075000D01*
X10747000Y-12771000D02*
X10797000Y-12821000D01*
X10797000Y-12771000D02*
X10747000Y-12821000D01*
X10747000Y-13025000D02*
X10797000Y-13075000D01*
X10797000Y-13025000D02*
X10747000Y-13075000D01*
X11001000Y-12771000D02*
X11051000Y-12821000D01*
X11051000Y-12771000D02*
X11001000Y-12821000D01*
X11001000Y-13025000D02*
X11051000Y-13075000D01*
X11051000Y-13025000D02*
X11001000Y-13075000D01*
X11255000Y-12771000D02*
X11305000Y-12821000D01*
X11305000Y-12771000D02*
X11255000Y-12821000D01*
X11255000Y-13025000D02*
X11305000Y-13075000D01*
X11305000Y-13025000D02*
X11255000Y-13075000D01*
X11509000Y-12771000D02*
X11559000Y-12821000D01*
X11559000Y-12771000D02*
X11509000Y-12821000D01*
X11509000Y-13025000D02*
X11559000Y-13075000D01*
X11559000Y-13025000D02*
X11509000Y-13075000D01*
D10*
X10075777Y-14411484D02*
X10075777Y-14211484D01*
X10075777Y-14211484D02*
X10123396Y-14211484D01*
X10123396Y-14211484D02*
X10151967Y-14221008D01*
X10151967Y-14221008D02*
X10171015Y-14240055D01*
X10171015Y-14240055D02*
X10180539Y-14259103D01*
X10180539Y-14259103D02*
X10190063Y-14297198D01*
X10190063Y-14297198D02*
X10190063Y-14325769D01*
X10190063Y-14325769D02*
X10180539Y-14363865D01*
X10180539Y-14363865D02*
X10171015Y-14382912D01*
X10171015Y-14382912D02*
X10151967Y-14401960D01*
X10151967Y-14401960D02*
X10123396Y-14411484D01*
X10123396Y-14411484D02*
X10075777Y-14411484D01*
X10275777Y-14411484D02*
X10275777Y-14278150D01*
X10275777Y-14316246D02*
X10285301Y-14297198D01*
X10285301Y-14297198D02*
X10294824Y-14287674D01*
X10294824Y-14287674D02*
X10313872Y-14278150D01*
X10313872Y-14278150D02*
X10332920Y-14278150D01*
X10399586Y-14411484D02*
X10399586Y-14278150D01*
X10399586Y-14211484D02*
X10390063Y-14221008D01*
X10390063Y-14221008D02*
X10399586Y-14230531D01*
X10399586Y-14230531D02*
X10409110Y-14221008D01*
X10409110Y-14221008D02*
X10399586Y-14211484D01*
X10399586Y-14211484D02*
X10399586Y-14230531D01*
X10523396Y-14411484D02*
X10504348Y-14401960D01*
X10504348Y-14401960D02*
X10494824Y-14382912D01*
X10494824Y-14382912D02*
X10494824Y-14211484D01*
X10628158Y-14411484D02*
X10609110Y-14401960D01*
X10609110Y-14401960D02*
X10599586Y-14382912D01*
X10599586Y-14382912D02*
X10599586Y-14211484D01*
X10856729Y-14411484D02*
X10856729Y-14211484D01*
X10856729Y-14211484D02*
X10923396Y-14354341D01*
X10923396Y-14354341D02*
X10990063Y-14211484D01*
X10990063Y-14211484D02*
X10990063Y-14411484D01*
X11171015Y-14411484D02*
X11171015Y-14306722D01*
X11171015Y-14306722D02*
X11161491Y-14287674D01*
X11161491Y-14287674D02*
X11142444Y-14278150D01*
X11142444Y-14278150D02*
X11104348Y-14278150D01*
X11104348Y-14278150D02*
X11085301Y-14287674D01*
X11171015Y-14401960D02*
X11151967Y-14411484D01*
X11151967Y-14411484D02*
X11104348Y-14411484D01*
X11104348Y-14411484D02*
X11085301Y-14401960D01*
X11085301Y-14401960D02*
X11075777Y-14382912D01*
X11075777Y-14382912D02*
X11075777Y-14363865D01*
X11075777Y-14363865D02*
X11085301Y-14344817D01*
X11085301Y-14344817D02*
X11104348Y-14335293D01*
X11104348Y-14335293D02*
X11151967Y-14335293D01*
X11151967Y-14335293D02*
X11171015Y-14325769D01*
X11266253Y-14278150D02*
X11266253Y-14478150D01*
X11266253Y-14287674D02*
X11285301Y-14278150D01*
X11285301Y-14278150D02*
X11323396Y-14278150D01*
X11323396Y-14278150D02*
X11342443Y-14287674D01*
X11342443Y-14287674D02*
X11351967Y-14297198D01*
X11351967Y-14297198D02*
X11361491Y-14316246D01*
X11361491Y-14316246D02*
X11361491Y-14373388D01*
X11361491Y-14373388D02*
X11351967Y-14392436D01*
X11351967Y-14392436D02*
X11342443Y-14401960D01*
X11342443Y-14401960D02*
X11323396Y-14411484D01*
X11323396Y-14411484D02*
X11285301Y-14411484D01*
X11285301Y-14411484D02*
X11266253Y-14401960D01*
X11447205Y-14392436D02*
X11456729Y-14401960D01*
X11456729Y-14401960D02*
X11447205Y-14411484D01*
X11447205Y-14411484D02*
X11437682Y-14401960D01*
X11437682Y-14401960D02*
X11447205Y-14392436D01*
X11447205Y-14392436D02*
X11447205Y-14411484D01*
X11447205Y-14287674D02*
X11456729Y-14297198D01*
X11456729Y-14297198D02*
X11447205Y-14306722D01*
X11447205Y-14306722D02*
X11437682Y-14297198D01*
X11437682Y-14297198D02*
X11447205Y-14287674D01*
X11447205Y-14287674D02*
X11447205Y-14306722D01*
D11*
X9765000Y-14715000D02*
X9815000Y-14765000D01*
X9815000Y-14715000D02*
X9765000Y-14765000D01*
D10*
X10113872Y-14631484D02*
X10132920Y-14631484D01*
X10132920Y-14631484D02*
X10151967Y-14641008D01*
X10151967Y-14641008D02*
X10161491Y-14650531D01*
X10161491Y-14650531D02*
X10171015Y-14669579D01*
X10171015Y-14669579D02*
X10180539Y-14707674D01*
X10180539Y-14707674D02*
X10180539Y-14755293D01*
X10180539Y-14755293D02*
X10171015Y-14793388D01*
X10171015Y-14793388D02*
X10161491Y-14812436D01*
X10161491Y-14812436D02*
X10151967Y-14821960D01*
X10151967Y-14821960D02*
X10132920Y-14831484D01*
X10132920Y-14831484D02*
X10113872Y-14831484D01*
X10113872Y-14831484D02*
X10094824Y-14821960D01*
X10094824Y-14821960D02*
X10085301Y-14812436D01*
X10085301Y-14812436D02*
X10075777Y-14793388D01*
X10075777Y-14793388D02*
X10066253Y-14755293D01*
X10066253Y-14755293D02*
X10066253Y-14707674D01*
X10066253Y-14707674D02*
X10075777Y-14669579D01*
X10075777Y-14669579D02*
X10085301Y-14650531D01*
X10085301Y-14650531D02*
X10094824Y-14641008D01*
X10094824Y-14641008D02*
X10113872Y-14631484D01*
X10266253Y-14812436D02*
X10275777Y-14821960D01*
X10275777Y-14821960D02*
X10266253Y-14831484D01*
X10266253Y-14831484D02*
X10256729Y-14821960D01*
X10256729Y-14821960D02*
X10266253Y-14812436D01*
X10266253Y-14812436D02*
X10266253Y-14831484D01*
X10456729Y-14631484D02*
X10361491Y-14631484D01*
X10361491Y-14631484D02*
X10351967Y-14726722D01*
X10351967Y-14726722D02*
X10361491Y-14717198D01*
X10361491Y-14717198D02*
X10380539Y-14707674D01*
X10380539Y-14707674D02*
X10428158Y-14707674D01*
X10428158Y-14707674D02*
X10447205Y-14717198D01*
X10447205Y-14717198D02*
X10456729Y-14726722D01*
X10456729Y-14726722D02*
X10466253Y-14745769D01*
X10466253Y-14745769D02*
X10466253Y-14793388D01*
X10466253Y-14793388D02*
X10456729Y-14812436D01*
X10456729Y-14812436D02*
X10447205Y-14821960D01*
X10447205Y-14821960D02*
X10428158Y-14831484D01*
X10428158Y-14831484D02*
X10380539Y-14831484D01*
X10380539Y-14831484D02*
X10361491Y-14821960D01*
X10361491Y-14821960D02*
X10351967Y-14812436D01*
X10590063Y-14631484D02*
X10609110Y-14631484D01*
X10609110Y-14631484D02*
X10628158Y-14641008D01*
X10628158Y-14641008D02*
X10637682Y-14650531D01*
X10637682Y-14650531D02*
X10647205Y-14669579D01*
X10647205Y-14669579D02*
X10656729Y-14707674D01*
X10656729Y-14707674D02*
X10656729Y-14755293D01*
X10656729Y-14755293D02*
X10647205Y-14793388D01*
X10647205Y-14793388D02*
X10637682Y-14812436D01*
X10637682Y-14812436D02*
X10628158Y-14821960D01*
X10628158Y-14821960D02*
X10609110Y-14831484D01*
X10609110Y-14831484D02*
X10590063Y-14831484D01*
X10590063Y-14831484D02*
X10571015Y-14821960D01*
X10571015Y-14821960D02*
X10561491Y-14812436D01*
X10561491Y-14812436D02*
X10551967Y-14793388D01*
X10551967Y-14793388D02*
X10542444Y-14755293D01*
X10542444Y-14755293D02*
X10542444Y-14707674D01*
X10542444Y-14707674D02*
X10551967Y-14669579D01*
X10551967Y-14669579D02*
X10561491Y-14650531D01*
X10561491Y-14650531D02*
X10571015Y-14641008D01*
X10571015Y-14641008D02*
X10590063Y-14631484D01*
X10780539Y-14631484D02*
X10799586Y-14631484D01*
X10799586Y-14631484D02*
X10818634Y-14641008D01*
X10818634Y-14641008D02*
X10828158Y-14650531D01*
X10828158Y-14650531D02*
X10837682Y-14669579D01*
X10837682Y-14669579D02*
X10847205Y-14707674D01*
X10847205Y-14707674D02*
X10847205Y-14755293D01*
X10847205Y-14755293D02*
X10837682Y-14793388D01*
X10837682Y-14793388D02*
X10828158Y-14812436D01*
X10828158Y-14812436D02*
X10818634Y-14821960D01*
X10818634Y-14821960D02*
X10799586Y-14831484D01*
X10799586Y-14831484D02*
X10780539Y-14831484D01*
X10780539Y-14831484D02*
X10761491Y-14821960D01*
X10761491Y-14821960D02*
X10751967Y-14812436D01*
X10751967Y-14812436D02*
X10742444Y-14793388D01*
X10742444Y-14793388D02*
X10732920Y-14755293D01*
X10732920Y-14755293D02*
X10732920Y-14707674D01*
X10732920Y-14707674D02*
X10742444Y-14669579D01*
X10742444Y-14669579D02*
X10751967Y-14650531D01*
X10751967Y-14650531D02*
X10761491Y-14641008D01*
X10761491Y-14641008D02*
X10780539Y-14631484D01*
X10932920Y-14831484D02*
X10932920Y-14698150D01*
X10932920Y-14717198D02*
X10942444Y-14707674D01*
X10942444Y-14707674D02*
X10961491Y-14698150D01*
X10961491Y-14698150D02*
X10990063Y-14698150D01*
X10990063Y-14698150D02*
X11009110Y-14707674D01*
X11009110Y-14707674D02*
X11018634Y-14726722D01*
X11018634Y-14726722D02*
X11018634Y-14831484D01*
X11018634Y-14726722D02*
X11028158Y-14707674D01*
X11028158Y-14707674D02*
X11047205Y-14698150D01*
X11047205Y-14698150D02*
X11075777Y-14698150D01*
X11075777Y-14698150D02*
X11094825Y-14707674D01*
X11094825Y-14707674D02*
X11104348Y-14726722D01*
X11104348Y-14726722D02*
X11104348Y-14831484D01*
X11199586Y-14831484D02*
X11199586Y-14698150D01*
X11199586Y-14717198D02*
X11209110Y-14707674D01*
X11209110Y-14707674D02*
X11228158Y-14698150D01*
X11228158Y-14698150D02*
X11256729Y-14698150D01*
X11256729Y-14698150D02*
X11275777Y-14707674D01*
X11275777Y-14707674D02*
X11285301Y-14726722D01*
X11285301Y-14726722D02*
X11285301Y-14831484D01*
X11285301Y-14726722D02*
X11294824Y-14707674D01*
X11294824Y-14707674D02*
X11313872Y-14698150D01*
X11313872Y-14698150D02*
X11342443Y-14698150D01*
X11342443Y-14698150D02*
X11361491Y-14707674D01*
X11361491Y-14707674D02*
X11371015Y-14726722D01*
X11371015Y-14726722D02*
X11371015Y-14831484D01*
X11761491Y-14621960D02*
X11590063Y-14879103D01*
X12018634Y-14631484D02*
X12037682Y-14631484D01*
X12037682Y-14631484D02*
X12056729Y-14641008D01*
X12056729Y-14641008D02*
X12066253Y-14650531D01*
X12066253Y-14650531D02*
X12075777Y-14669579D01*
X12075777Y-14669579D02*
X12085301Y-14707674D01*
X12085301Y-14707674D02*
X12085301Y-14755293D01*
X12085301Y-14755293D02*
X12075777Y-14793388D01*
X12075777Y-14793388D02*
X12066253Y-14812436D01*
X12066253Y-14812436D02*
X12056729Y-14821960D01*
X12056729Y-14821960D02*
X12037682Y-14831484D01*
X12037682Y-14831484D02*
X12018634Y-14831484D01*
X12018634Y-14831484D02*
X11999586Y-14821960D01*
X11999586Y-14821960D02*
X11990063Y-14812436D01*
X11990063Y-14812436D02*
X11980539Y-14793388D01*
X11980539Y-14793388D02*
X11971015Y-14755293D01*
X11971015Y-14755293D02*
X11971015Y-14707674D01*
X11971015Y-14707674D02*
X11980539Y-14669579D01*
X11980539Y-14669579D02*
X11990063Y-14650531D01*
X11990063Y-14650531D02*
X11999586Y-14641008D01*
X11999586Y-14641008D02*
X12018634Y-14631484D01*
X12171015Y-14812436D02*
X12180539Y-14821960D01*
X12180539Y-14821960D02*
X12171015Y-14831484D01*
X12171015Y-14831484D02*
X12161491Y-14821960D01*
X12161491Y-14821960D02*
X12171015Y-14812436D01*
X12171015Y-14812436D02*
X12171015Y-14831484D01*
X12304348Y-14631484D02*
X12323396Y-14631484D01*
X12323396Y-14631484D02*
X12342444Y-14641008D01*
X12342444Y-14641008D02*
X12351967Y-14650531D01*
X12351967Y-14650531D02*
X12361491Y-14669579D01*
X12361491Y-14669579D02*
X12371015Y-14707674D01*
X12371015Y-14707674D02*
X12371015Y-14755293D01*
X12371015Y-14755293D02*
X12361491Y-14793388D01*
X12361491Y-14793388D02*
X12351967Y-14812436D01*
X12351967Y-14812436D02*
X12342444Y-14821960D01*
X12342444Y-14821960D02*
X12323396Y-14831484D01*
X12323396Y-14831484D02*
X12304348Y-14831484D01*
X12304348Y-14831484D02*
X12285301Y-14821960D01*
X12285301Y-14821960D02*
X12275777Y-14812436D01*
X12275777Y-14812436D02*
X12266253Y-14793388D01*
X12266253Y-14793388D02*
X12256729Y-14755293D01*
X12256729Y-14755293D02*
X12256729Y-14707674D01*
X12256729Y-14707674D02*
X12266253Y-14669579D01*
X12266253Y-14669579D02*
X12275777Y-14650531D01*
X12275777Y-14650531D02*
X12285301Y-14641008D01*
X12285301Y-14641008D02*
X12304348Y-14631484D01*
X12561491Y-14831484D02*
X12447206Y-14831484D01*
X12504348Y-14831484D02*
X12504348Y-14631484D01*
X12504348Y-14631484D02*
X12485301Y-14660055D01*
X12485301Y-14660055D02*
X12466253Y-14679103D01*
X12466253Y-14679103D02*
X12447206Y-14688627D01*
X12656729Y-14831484D02*
X12694825Y-14831484D01*
X12694825Y-14831484D02*
X12713872Y-14821960D01*
X12713872Y-14821960D02*
X12723396Y-14812436D01*
X12723396Y-14812436D02*
X12742444Y-14783865D01*
X12742444Y-14783865D02*
X12751967Y-14745769D01*
X12751967Y-14745769D02*
X12751967Y-14669579D01*
X12751967Y-14669579D02*
X12742444Y-14650531D01*
X12742444Y-14650531D02*
X12732920Y-14641008D01*
X12732920Y-14641008D02*
X12713872Y-14631484D01*
X12713872Y-14631484D02*
X12675777Y-14631484D01*
X12675777Y-14631484D02*
X12656729Y-14641008D01*
X12656729Y-14641008D02*
X12647206Y-14650531D01*
X12647206Y-14650531D02*
X12637682Y-14669579D01*
X12637682Y-14669579D02*
X12637682Y-14717198D01*
X12637682Y-14717198D02*
X12647206Y-14736246D01*
X12647206Y-14736246D02*
X12656729Y-14745769D01*
X12656729Y-14745769D02*
X12675777Y-14755293D01*
X12675777Y-14755293D02*
X12713872Y-14755293D01*
X12713872Y-14755293D02*
X12732920Y-14745769D01*
X12732920Y-14745769D02*
X12742444Y-14736246D01*
X12742444Y-14736246D02*
X12751967Y-14717198D01*
X12818634Y-14631484D02*
X12951967Y-14631484D01*
X12951967Y-14631484D02*
X12866253Y-14831484D01*
X13018634Y-14631484D02*
X13018634Y-14669579D01*
X13094825Y-14631484D02*
X13094825Y-14669579D01*
X13390063Y-14907674D02*
X13380539Y-14898150D01*
X13380539Y-14898150D02*
X13361491Y-14869579D01*
X13361491Y-14869579D02*
X13351968Y-14850531D01*
X13351968Y-14850531D02*
X13342444Y-14821960D01*
X13342444Y-14821960D02*
X13332920Y-14774341D01*
X13332920Y-14774341D02*
X13332920Y-14736246D01*
X13332920Y-14736246D02*
X13342444Y-14688627D01*
X13342444Y-14688627D02*
X13351968Y-14660055D01*
X13351968Y-14660055D02*
X13361491Y-14641008D01*
X13361491Y-14641008D02*
X13380539Y-14612436D01*
X13380539Y-14612436D02*
X13390063Y-14602912D01*
X13571015Y-14831484D02*
X13456729Y-14831484D01*
X13513872Y-14831484D02*
X13513872Y-14631484D01*
X13513872Y-14631484D02*
X13494825Y-14660055D01*
X13494825Y-14660055D02*
X13475777Y-14679103D01*
X13475777Y-14679103D02*
X13456729Y-14688627D01*
X13694825Y-14631484D02*
X13713872Y-14631484D01*
X13713872Y-14631484D02*
X13732920Y-14641008D01*
X13732920Y-14641008D02*
X13742444Y-14650531D01*
X13742444Y-14650531D02*
X13751968Y-14669579D01*
X13751968Y-14669579D02*
X13761491Y-14707674D01*
X13761491Y-14707674D02*
X13761491Y-14755293D01*
X13761491Y-14755293D02*
X13751968Y-14793388D01*
X13751968Y-14793388D02*
X13742444Y-14812436D01*
X13742444Y-14812436D02*
X13732920Y-14821960D01*
X13732920Y-14821960D02*
X13713872Y-14831484D01*
X13713872Y-14831484D02*
X13694825Y-14831484D01*
X13694825Y-14831484D02*
X13675777Y-14821960D01*
X13675777Y-14821960D02*
X13666253Y-14812436D01*
X13666253Y-14812436D02*
X13656729Y-14793388D01*
X13656729Y-14793388D02*
X13647206Y-14755293D01*
X13647206Y-14755293D02*
X13647206Y-14707674D01*
X13647206Y-14707674D02*
X13656729Y-14669579D01*
X13656729Y-14669579D02*
X13666253Y-14650531D01*
X13666253Y-14650531D02*
X13675777Y-14641008D01*
X13675777Y-14641008D02*
X13694825Y-14631484D01*
X13999587Y-14831484D02*
X13999587Y-14631484D01*
X14085301Y-14831484D02*
X14085301Y-14726722D01*
X14085301Y-14726722D02*
X14075777Y-14707674D01*
X14075777Y-14707674D02*
X14056730Y-14698150D01*
X14056730Y-14698150D02*
X14028158Y-14698150D01*
X14028158Y-14698150D02*
X14009110Y-14707674D01*
X14009110Y-14707674D02*
X13999587Y-14717198D01*
X14209110Y-14831484D02*
X14190063Y-14821960D01*
X14190063Y-14821960D02*
X14180539Y-14812436D01*
X14180539Y-14812436D02*
X14171015Y-14793388D01*
X14171015Y-14793388D02*
X14171015Y-14736246D01*
X14171015Y-14736246D02*
X14180539Y-14717198D01*
X14180539Y-14717198D02*
X14190063Y-14707674D01*
X14190063Y-14707674D02*
X14209110Y-14698150D01*
X14209110Y-14698150D02*
X14237682Y-14698150D01*
X14237682Y-14698150D02*
X14256730Y-14707674D01*
X14256730Y-14707674D02*
X14266253Y-14717198D01*
X14266253Y-14717198D02*
X14275777Y-14736246D01*
X14275777Y-14736246D02*
X14275777Y-14793388D01*
X14275777Y-14793388D02*
X14266253Y-14812436D01*
X14266253Y-14812436D02*
X14256730Y-14821960D01*
X14256730Y-14821960D02*
X14237682Y-14831484D01*
X14237682Y-14831484D02*
X14209110Y-14831484D01*
X14390063Y-14831484D02*
X14371015Y-14821960D01*
X14371015Y-14821960D02*
X14361491Y-14802912D01*
X14361491Y-14802912D02*
X14361491Y-14631484D01*
X14542444Y-14821960D02*
X14523396Y-14831484D01*
X14523396Y-14831484D02*
X14485301Y-14831484D01*
X14485301Y-14831484D02*
X14466253Y-14821960D01*
X14466253Y-14821960D02*
X14456730Y-14802912D01*
X14456730Y-14802912D02*
X14456730Y-14726722D01*
X14456730Y-14726722D02*
X14466253Y-14707674D01*
X14466253Y-14707674D02*
X14485301Y-14698150D01*
X14485301Y-14698150D02*
X14523396Y-14698150D01*
X14523396Y-14698150D02*
X14542444Y-14707674D01*
X14542444Y-14707674D02*
X14551968Y-14726722D01*
X14551968Y-14726722D02*
X14551968Y-14745769D01*
X14551968Y-14745769D02*
X14456730Y-14764817D01*
X14628158Y-14821960D02*
X14647206Y-14831484D01*
X14647206Y-14831484D02*
X14685301Y-14831484D01*
X14685301Y-14831484D02*
X14704349Y-14821960D01*
X14704349Y-14821960D02*
X14713872Y-14802912D01*
X14713872Y-14802912D02*
X14713872Y-14793388D01*
X14713872Y-14793388D02*
X14704349Y-14774341D01*
X14704349Y-14774341D02*
X14685301Y-14764817D01*
X14685301Y-14764817D02*
X14656730Y-14764817D01*
X14656730Y-14764817D02*
X14637682Y-14755293D01*
X14637682Y-14755293D02*
X14628158Y-14736246D01*
X14628158Y-14736246D02*
X14628158Y-14726722D01*
X14628158Y-14726722D02*
X14637682Y-14707674D01*
X14637682Y-14707674D02*
X14656730Y-14698150D01*
X14656730Y-14698150D02*
X14685301Y-14698150D01*
X14685301Y-14698150D02*
X14704349Y-14707674D01*
X14780539Y-14907674D02*
X14790063Y-14898150D01*
X14790063Y-14898150D02*
X14809111Y-14869579D01*
X14809111Y-14869579D02*
X14818634Y-14850531D01*
X14818634Y-14850531D02*
X14828158Y-14821960D01*
X14828158Y-14821960D02*
X14837682Y-14774341D01*
X14837682Y-14774341D02*
X14837682Y-14736246D01*
X14837682Y-14736246D02*
X14828158Y-14688627D01*
X14828158Y-14688627D02*
X14818634Y-14660055D01*
X14818634Y-14660055D02*
X14809111Y-14641008D01*
X14809111Y-14641008D02*
X14790063Y-14612436D01*
X14790063Y-14612436D02*
X14780539Y-14602912D01*
X15142444Y-14907674D02*
X15132920Y-14898150D01*
X15132920Y-14898150D02*
X15113872Y-14869579D01*
X15113872Y-14869579D02*
X15104349Y-14850531D01*
X15104349Y-14850531D02*
X15094825Y-14821960D01*
X15094825Y-14821960D02*
X15085301Y-14774341D01*
X15085301Y-14774341D02*
X15085301Y-14736246D01*
X15085301Y-14736246D02*
X15094825Y-14688627D01*
X15094825Y-14688627D02*
X15104349Y-14660055D01*
X15104349Y-14660055D02*
X15113872Y-14641008D01*
X15113872Y-14641008D02*
X15132920Y-14612436D01*
X15132920Y-14612436D02*
X15142444Y-14602912D01*
X15218634Y-14698150D02*
X15218634Y-14831484D01*
X15218634Y-14717198D02*
X15228158Y-14707674D01*
X15228158Y-14707674D02*
X15247206Y-14698150D01*
X15247206Y-14698150D02*
X15275777Y-14698150D01*
X15275777Y-14698150D02*
X15294825Y-14707674D01*
X15294825Y-14707674D02*
X15304349Y-14726722D01*
X15304349Y-14726722D02*
X15304349Y-14831484D01*
X15428158Y-14831484D02*
X15409111Y-14821960D01*
X15409111Y-14821960D02*
X15399587Y-14812436D01*
X15399587Y-14812436D02*
X15390063Y-14793388D01*
X15390063Y-14793388D02*
X15390063Y-14736246D01*
X15390063Y-14736246D02*
X15399587Y-14717198D01*
X15399587Y-14717198D02*
X15409111Y-14707674D01*
X15409111Y-14707674D02*
X15428158Y-14698150D01*
X15428158Y-14698150D02*
X15456730Y-14698150D01*
X15456730Y-14698150D02*
X15475777Y-14707674D01*
X15475777Y-14707674D02*
X15485301Y-14717198D01*
X15485301Y-14717198D02*
X15494825Y-14736246D01*
X15494825Y-14736246D02*
X15494825Y-14793388D01*
X15494825Y-14793388D02*
X15485301Y-14812436D01*
X15485301Y-14812436D02*
X15475777Y-14821960D01*
X15475777Y-14821960D02*
X15456730Y-14831484D01*
X15456730Y-14831484D02*
X15428158Y-14831484D01*
X15551968Y-14698150D02*
X15628158Y-14698150D01*
X15580539Y-14631484D02*
X15580539Y-14802912D01*
X15580539Y-14802912D02*
X15590063Y-14821960D01*
X15590063Y-14821960D02*
X15609111Y-14831484D01*
X15609111Y-14831484D02*
X15628158Y-14831484D01*
X15847206Y-14698150D02*
X15847206Y-14898150D01*
X15847206Y-14707674D02*
X15866253Y-14698150D01*
X15866253Y-14698150D02*
X15904349Y-14698150D01*
X15904349Y-14698150D02*
X15923396Y-14707674D01*
X15923396Y-14707674D02*
X15932920Y-14717198D01*
X15932920Y-14717198D02*
X15942444Y-14736246D01*
X15942444Y-14736246D02*
X15942444Y-14793388D01*
X15942444Y-14793388D02*
X15932920Y-14812436D01*
X15932920Y-14812436D02*
X15923396Y-14821960D01*
X15923396Y-14821960D02*
X15904349Y-14831484D01*
X15904349Y-14831484D02*
X15866253Y-14831484D01*
X15866253Y-14831484D02*
X15847206Y-14821960D01*
X16056730Y-14831484D02*
X16037682Y-14821960D01*
X16037682Y-14821960D02*
X16028158Y-14802912D01*
X16028158Y-14802912D02*
X16028158Y-14631484D01*
X16218634Y-14831484D02*
X16218634Y-14726722D01*
X16218634Y-14726722D02*
X16209111Y-14707674D01*
X16209111Y-14707674D02*
X16190063Y-14698150D01*
X16190063Y-14698150D02*
X16151968Y-14698150D01*
X16151968Y-14698150D02*
X16132920Y-14707674D01*
X16218634Y-14821960D02*
X16199587Y-14831484D01*
X16199587Y-14831484D02*
X16151968Y-14831484D01*
X16151968Y-14831484D02*
X16132920Y-14821960D01*
X16132920Y-14821960D02*
X16123396Y-14802912D01*
X16123396Y-14802912D02*
X16123396Y-14783865D01*
X16123396Y-14783865D02*
X16132920Y-14764817D01*
X16132920Y-14764817D02*
X16151968Y-14755293D01*
X16151968Y-14755293D02*
X16199587Y-14755293D01*
X16199587Y-14755293D02*
X16218634Y-14745769D01*
X16285301Y-14698150D02*
X16361492Y-14698150D01*
X16313873Y-14631484D02*
X16313873Y-14802912D01*
X16313873Y-14802912D02*
X16323396Y-14821960D01*
X16323396Y-14821960D02*
X16342444Y-14831484D01*
X16342444Y-14831484D02*
X16361492Y-14831484D01*
X16504349Y-14821960D02*
X16485301Y-14831484D01*
X16485301Y-14831484D02*
X16447206Y-14831484D01*
X16447206Y-14831484D02*
X16428158Y-14821960D01*
X16428158Y-14821960D02*
X16418634Y-14802912D01*
X16418634Y-14802912D02*
X16418634Y-14726722D01*
X16418634Y-14726722D02*
X16428158Y-14707674D01*
X16428158Y-14707674D02*
X16447206Y-14698150D01*
X16447206Y-14698150D02*
X16485301Y-14698150D01*
X16485301Y-14698150D02*
X16504349Y-14707674D01*
X16504349Y-14707674D02*
X16513873Y-14726722D01*
X16513873Y-14726722D02*
X16513873Y-14745769D01*
X16513873Y-14745769D02*
X16418634Y-14764817D01*
X16685301Y-14831484D02*
X16685301Y-14631484D01*
X16685301Y-14821960D02*
X16666254Y-14831484D01*
X16666254Y-14831484D02*
X16628158Y-14831484D01*
X16628158Y-14831484D02*
X16609111Y-14821960D01*
X16609111Y-14821960D02*
X16599587Y-14812436D01*
X16599587Y-14812436D02*
X16590063Y-14793388D01*
X16590063Y-14793388D02*
X16590063Y-14736246D01*
X16590063Y-14736246D02*
X16599587Y-14717198D01*
X16599587Y-14717198D02*
X16609111Y-14707674D01*
X16609111Y-14707674D02*
X16628158Y-14698150D01*
X16628158Y-14698150D02*
X16666254Y-14698150D01*
X16666254Y-14698150D02*
X16685301Y-14707674D01*
X16761492Y-14907674D02*
X16771015Y-14898150D01*
X16771015Y-14898150D02*
X16790063Y-14869579D01*
X16790063Y-14869579D02*
X16799587Y-14850531D01*
X16799587Y-14850531D02*
X16809111Y-14821960D01*
X16809111Y-14821960D02*
X16818635Y-14774341D01*
X16818635Y-14774341D02*
X16818635Y-14736246D01*
X16818635Y-14736246D02*
X16809111Y-14688627D01*
X16809111Y-14688627D02*
X16799587Y-14660055D01*
X16799587Y-14660055D02*
X16790063Y-14641008D01*
X16790063Y-14641008D02*
X16771015Y-14612436D01*
X16771015Y-14612436D02*
X16761492Y-14602912D01*
M02*
