G04 #@! TF.GenerationSoftware,KiCad,Pcbnew,9.0.7*
G04 #@! TF.CreationDate,2026-02-24T22:04:58+01:00*
G04 #@! TF.ProjectId,QuiverAttachPCB,51756976-6572-4417-9474-616368504342,rev?*
G04 #@! TF.SameCoordinates,Original*
G04 #@! TF.FileFunction,Other,User*
%FSLAX46Y46*%
G04 Gerber Fmt 4.6, Leading zero omitted, Abs format (unit mm)*
G04 Created by KiCad (PCBNEW 9.0.7) date 2026-02-24 22:04:58*
%MOMM*%
%LPD*%
G01*
G04 APERTURE LIST*
%ADD10C,0.000000*%
G04 APERTURE END LIST*
D10*
G04 #@! TO.C,U10*
G36*
X115240000Y-127360000D02*
G01*
X115204500Y-127366500D01*
X115169500Y-127375500D01*
X115135500Y-127386000D01*
X115101500Y-127399000D01*
X115069000Y-127414000D01*
X115037000Y-127430500D01*
X115006500Y-127449500D01*
X114976500Y-127470000D01*
X114948500Y-127492000D01*
X114921500Y-127516000D01*
X114896000Y-127541500D01*
X114872000Y-127568500D01*
X114850000Y-127596500D01*
X114829500Y-127626500D01*
X114810500Y-127657000D01*
X114794000Y-127689000D01*
X114779000Y-127721500D01*
X114766000Y-127755500D01*
X114755500Y-127789500D01*
X114746500Y-127824500D01*
X114740000Y-127860000D01*
X114340000Y-127860000D01*
X114345500Y-127814500D01*
X114353000Y-127769000D01*
X114362500Y-127724000D01*
X114374000Y-127679500D01*
X114388000Y-127635500D01*
X114403500Y-127592500D01*
X114421500Y-127550000D01*
X114441000Y-127508500D01*
X114462500Y-127467500D01*
X114486000Y-127428000D01*
X114511000Y-127389500D01*
X114538000Y-127352500D01*
X114566500Y-127316500D01*
X114596500Y-127281500D01*
X114628500Y-127248500D01*
X114661500Y-127216500D01*
X114696500Y-127186500D01*
X114732500Y-127158000D01*
X114769500Y-127131000D01*
X114808000Y-127106000D01*
X114847500Y-127082500D01*
X114888500Y-127061000D01*
X114930000Y-127041500D01*
X114972500Y-127023500D01*
X115015500Y-127008000D01*
X115059500Y-126994000D01*
X115104000Y-126982500D01*
X115149000Y-126973000D01*
X115194500Y-126965500D01*
X115240000Y-126960000D01*
X115240000Y-127360000D01*
G37*
G36*
X115485500Y-126965500D02*
G01*
X115531000Y-126973000D01*
X115576000Y-126982500D01*
X115620500Y-126994000D01*
X115664500Y-127008000D01*
X115707500Y-127023500D01*
X115750000Y-127041500D01*
X115791500Y-127061000D01*
X115832500Y-127082500D01*
X115872000Y-127106000D01*
X115910500Y-127131000D01*
X115947500Y-127158000D01*
X115983500Y-127186500D01*
X116018500Y-127216500D01*
X116051500Y-127248500D01*
X116083500Y-127281500D01*
X116113500Y-127316500D01*
X116142000Y-127352500D01*
X116169000Y-127389500D01*
X116194000Y-127428000D01*
X116217500Y-127467500D01*
X116239000Y-127508500D01*
X116258500Y-127550000D01*
X116276500Y-127592500D01*
X116292000Y-127635500D01*
X116306000Y-127679500D01*
X116317500Y-127724000D01*
X116327000Y-127769000D01*
X116334500Y-127814500D01*
X116340000Y-127860000D01*
X115940000Y-127860000D01*
X115933500Y-127824500D01*
X115924500Y-127789500D01*
X115914000Y-127755500D01*
X115901000Y-127721500D01*
X115886000Y-127689000D01*
X115869500Y-127657000D01*
X115850500Y-127626500D01*
X115830000Y-127596500D01*
X115808000Y-127568500D01*
X115784000Y-127541500D01*
X115758500Y-127516000D01*
X115731500Y-127492000D01*
X115703500Y-127470000D01*
X115673500Y-127449500D01*
X115643000Y-127430500D01*
X115611000Y-127414000D01*
X115578500Y-127399000D01*
X115544500Y-127386000D01*
X115510500Y-127375500D01*
X115475500Y-127366500D01*
X115440000Y-127360000D01*
X115440000Y-126960000D01*
X115485500Y-126965500D01*
G37*
G36*
X114746500Y-128095500D02*
G01*
X114755500Y-128130500D01*
X114766000Y-128164500D01*
X114779000Y-128198500D01*
X114794000Y-128231000D01*
X114810500Y-128263000D01*
X114829500Y-128293500D01*
X114850000Y-128323500D01*
X114872000Y-128351500D01*
X114896000Y-128378500D01*
X114921500Y-128404000D01*
X114948500Y-128428000D01*
X114976500Y-128450000D01*
X115006500Y-128470500D01*
X115037000Y-128489500D01*
X115069000Y-128506000D01*
X115101500Y-128521000D01*
X115135500Y-128534000D01*
X115169500Y-128544500D01*
X115204500Y-128553500D01*
X115240000Y-128560000D01*
X115240000Y-128960000D01*
X115194500Y-128954500D01*
X115149000Y-128947000D01*
X115104000Y-128937500D01*
X115059500Y-128926000D01*
X115015500Y-128912000D01*
X114972500Y-128896500D01*
X114930000Y-128878500D01*
X114888500Y-128859000D01*
X114847500Y-128837500D01*
X114808000Y-128814000D01*
X114769500Y-128789000D01*
X114732500Y-128762000D01*
X114696500Y-128733500D01*
X114661500Y-128703500D01*
X114628500Y-128671500D01*
X114596500Y-128638500D01*
X114566500Y-128603500D01*
X114538000Y-128567500D01*
X114511000Y-128530500D01*
X114486000Y-128492000D01*
X114462500Y-128452500D01*
X114441000Y-128411500D01*
X114421500Y-128370000D01*
X114403500Y-128327500D01*
X114388000Y-128284500D01*
X114374000Y-128240500D01*
X114362500Y-128196000D01*
X114353000Y-128151000D01*
X114345500Y-128105500D01*
X114340000Y-128060000D01*
X114740000Y-128060000D01*
X114746500Y-128095500D01*
G37*
G36*
X116334500Y-128105500D02*
G01*
X116327000Y-128151000D01*
X116317500Y-128196000D01*
X116306000Y-128240500D01*
X116292000Y-128284500D01*
X116276500Y-128327500D01*
X116258500Y-128370000D01*
X116239000Y-128411500D01*
X116217500Y-128452500D01*
X116194000Y-128492000D01*
X116169000Y-128530500D01*
X116142000Y-128567500D01*
X116113500Y-128603500D01*
X116083500Y-128638500D01*
X116051500Y-128671500D01*
X116018500Y-128703500D01*
X115983500Y-128733500D01*
X115947500Y-128762000D01*
X115910500Y-128789000D01*
X115872000Y-128814000D01*
X115832500Y-128837500D01*
X115791500Y-128859000D01*
X115750000Y-128878500D01*
X115707500Y-128896500D01*
X115664500Y-128912000D01*
X115620500Y-128926000D01*
X115576000Y-128937500D01*
X115531000Y-128947000D01*
X115485500Y-128954500D01*
X115440000Y-128960000D01*
X115440000Y-128560000D01*
X115475500Y-128553500D01*
X115510500Y-128544500D01*
X115544500Y-128534000D01*
X115578500Y-128521000D01*
X115611000Y-128506000D01*
X115643000Y-128489500D01*
X115673500Y-128470500D01*
X115703500Y-128450000D01*
X115731500Y-128428000D01*
X115758500Y-128404000D01*
X115784000Y-128378500D01*
X115808000Y-128351500D01*
X115830000Y-128323500D01*
X115850500Y-128293500D01*
X115869500Y-128263000D01*
X115886000Y-128231000D01*
X115901000Y-128198500D01*
X115914000Y-128164500D01*
X115924500Y-128130500D01*
X115933500Y-128095500D01*
X115940000Y-128060000D01*
X116340000Y-128060000D01*
X116334500Y-128105500D01*
G37*
G04 #@! TO.C,U9*
G36*
X115240000Y-129900000D02*
G01*
X115204500Y-129906500D01*
X115169500Y-129915500D01*
X115135500Y-129926000D01*
X115101500Y-129939000D01*
X115069000Y-129954000D01*
X115037000Y-129970500D01*
X115006500Y-129989500D01*
X114976500Y-130010000D01*
X114948500Y-130032000D01*
X114921500Y-130056000D01*
X114896000Y-130081500D01*
X114872000Y-130108500D01*
X114850000Y-130136500D01*
X114829500Y-130166500D01*
X114810500Y-130197000D01*
X114794000Y-130229000D01*
X114779000Y-130261500D01*
X114766000Y-130295500D01*
X114755500Y-130329500D01*
X114746500Y-130364500D01*
X114740000Y-130400000D01*
X114340000Y-130400000D01*
X114345500Y-130354500D01*
X114353000Y-130309000D01*
X114362500Y-130264000D01*
X114374000Y-130219500D01*
X114388000Y-130175500D01*
X114403500Y-130132500D01*
X114421500Y-130090000D01*
X114441000Y-130048500D01*
X114462500Y-130007500D01*
X114486000Y-129968000D01*
X114511000Y-129929500D01*
X114538000Y-129892500D01*
X114566500Y-129856500D01*
X114596500Y-129821500D01*
X114628500Y-129788500D01*
X114661500Y-129756500D01*
X114696500Y-129726500D01*
X114732500Y-129698000D01*
X114769500Y-129671000D01*
X114808000Y-129646000D01*
X114847500Y-129622500D01*
X114888500Y-129601000D01*
X114930000Y-129581500D01*
X114972500Y-129563500D01*
X115015500Y-129548000D01*
X115059500Y-129534000D01*
X115104000Y-129522500D01*
X115149000Y-129513000D01*
X115194500Y-129505500D01*
X115240000Y-129500000D01*
X115240000Y-129900000D01*
G37*
G36*
X115485500Y-129505500D02*
G01*
X115531000Y-129513000D01*
X115576000Y-129522500D01*
X115620500Y-129534000D01*
X115664500Y-129548000D01*
X115707500Y-129563500D01*
X115750000Y-129581500D01*
X115791500Y-129601000D01*
X115832500Y-129622500D01*
X115872000Y-129646000D01*
X115910500Y-129671000D01*
X115947500Y-129698000D01*
X115983500Y-129726500D01*
X116018500Y-129756500D01*
X116051500Y-129788500D01*
X116083500Y-129821500D01*
X116113500Y-129856500D01*
X116142000Y-129892500D01*
X116169000Y-129929500D01*
X116194000Y-129968000D01*
X116217500Y-130007500D01*
X116239000Y-130048500D01*
X116258500Y-130090000D01*
X116276500Y-130132500D01*
X116292000Y-130175500D01*
X116306000Y-130219500D01*
X116317500Y-130264000D01*
X116327000Y-130309000D01*
X116334500Y-130354500D01*
X116340000Y-130400000D01*
X115940000Y-130400000D01*
X115933500Y-130364500D01*
X115924500Y-130329500D01*
X115914000Y-130295500D01*
X115901000Y-130261500D01*
X115886000Y-130229000D01*
X115869500Y-130197000D01*
X115850500Y-130166500D01*
X115830000Y-130136500D01*
X115808000Y-130108500D01*
X115784000Y-130081500D01*
X115758500Y-130056000D01*
X115731500Y-130032000D01*
X115703500Y-130010000D01*
X115673500Y-129989500D01*
X115643000Y-129970500D01*
X115611000Y-129954000D01*
X115578500Y-129939000D01*
X115544500Y-129926000D01*
X115510500Y-129915500D01*
X115475500Y-129906500D01*
X115440000Y-129900000D01*
X115440000Y-129500000D01*
X115485500Y-129505500D01*
G37*
G36*
X114746500Y-130635500D02*
G01*
X114755500Y-130670500D01*
X114766000Y-130704500D01*
X114779000Y-130738500D01*
X114794000Y-130771000D01*
X114810500Y-130803000D01*
X114829500Y-130833500D01*
X114850000Y-130863500D01*
X114872000Y-130891500D01*
X114896000Y-130918500D01*
X114921500Y-130944000D01*
X114948500Y-130968000D01*
X114976500Y-130990000D01*
X115006500Y-131010500D01*
X115037000Y-131029500D01*
X115069000Y-131046000D01*
X115101500Y-131061000D01*
X115135500Y-131074000D01*
X115169500Y-131084500D01*
X115204500Y-131093500D01*
X115240000Y-131100000D01*
X115240000Y-131500000D01*
X115194500Y-131494500D01*
X115149000Y-131487000D01*
X115104000Y-131477500D01*
X115059500Y-131466000D01*
X115015500Y-131452000D01*
X114972500Y-131436500D01*
X114930000Y-131418500D01*
X114888500Y-131399000D01*
X114847500Y-131377500D01*
X114808000Y-131354000D01*
X114769500Y-131329000D01*
X114732500Y-131302000D01*
X114696500Y-131273500D01*
X114661500Y-131243500D01*
X114628500Y-131211500D01*
X114596500Y-131178500D01*
X114566500Y-131143500D01*
X114538000Y-131107500D01*
X114511000Y-131070500D01*
X114486000Y-131032000D01*
X114462500Y-130992500D01*
X114441000Y-130951500D01*
X114421500Y-130910000D01*
X114403500Y-130867500D01*
X114388000Y-130824500D01*
X114374000Y-130780500D01*
X114362500Y-130736000D01*
X114353000Y-130691000D01*
X114345500Y-130645500D01*
X114340000Y-130600000D01*
X114740000Y-130600000D01*
X114746500Y-130635500D01*
G37*
G36*
X116334500Y-130645500D02*
G01*
X116327000Y-130691000D01*
X116317500Y-130736000D01*
X116306000Y-130780500D01*
X116292000Y-130824500D01*
X116276500Y-130867500D01*
X116258500Y-130910000D01*
X116239000Y-130951500D01*
X116217500Y-130992500D01*
X116194000Y-131032000D01*
X116169000Y-131070500D01*
X116142000Y-131107500D01*
X116113500Y-131143500D01*
X116083500Y-131178500D01*
X116051500Y-131211500D01*
X116018500Y-131243500D01*
X115983500Y-131273500D01*
X115947500Y-131302000D01*
X115910500Y-131329000D01*
X115872000Y-131354000D01*
X115832500Y-131377500D01*
X115791500Y-131399000D01*
X115750000Y-131418500D01*
X115707500Y-131436500D01*
X115664500Y-131452000D01*
X115620500Y-131466000D01*
X115576000Y-131477500D01*
X115531000Y-131487000D01*
X115485500Y-131494500D01*
X115440000Y-131500000D01*
X115440000Y-131100000D01*
X115475500Y-131093500D01*
X115510500Y-131084500D01*
X115544500Y-131074000D01*
X115578500Y-131061000D01*
X115611000Y-131046000D01*
X115643000Y-131029500D01*
X115673500Y-131010500D01*
X115703500Y-130990000D01*
X115731500Y-130968000D01*
X115758500Y-130944000D01*
X115784000Y-130918500D01*
X115808000Y-130891500D01*
X115830000Y-130863500D01*
X115850500Y-130833500D01*
X115869500Y-130803000D01*
X115886000Y-130771000D01*
X115901000Y-130738500D01*
X115914000Y-130704500D01*
X115924500Y-130670500D01*
X115933500Y-130635500D01*
X115940000Y-130600000D01*
X116340000Y-130600000D01*
X116334500Y-130645500D01*
G37*
G04 #@! TO.C,U8*
G36*
X112700000Y-127360000D02*
G01*
X112664500Y-127366500D01*
X112629500Y-127375500D01*
X112595500Y-127386000D01*
X112561500Y-127399000D01*
X112529000Y-127414000D01*
X112497000Y-127430500D01*
X112466500Y-127449500D01*
X112436500Y-127470000D01*
X112408500Y-127492000D01*
X112381500Y-127516000D01*
X112356000Y-127541500D01*
X112332000Y-127568500D01*
X112310000Y-127596500D01*
X112289500Y-127626500D01*
X112270500Y-127657000D01*
X112254000Y-127689000D01*
X112239000Y-127721500D01*
X112226000Y-127755500D01*
X112215500Y-127789500D01*
X112206500Y-127824500D01*
X112200000Y-127860000D01*
X111800000Y-127860000D01*
X111805500Y-127814500D01*
X111813000Y-127769000D01*
X111822500Y-127724000D01*
X111834000Y-127679500D01*
X111848000Y-127635500D01*
X111863500Y-127592500D01*
X111881500Y-127550000D01*
X111901000Y-127508500D01*
X111922500Y-127467500D01*
X111946000Y-127428000D01*
X111971000Y-127389500D01*
X111998000Y-127352500D01*
X112026500Y-127316500D01*
X112056500Y-127281500D01*
X112088500Y-127248500D01*
X112121500Y-127216500D01*
X112156500Y-127186500D01*
X112192500Y-127158000D01*
X112229500Y-127131000D01*
X112268000Y-127106000D01*
X112307500Y-127082500D01*
X112348500Y-127061000D01*
X112390000Y-127041500D01*
X112432500Y-127023500D01*
X112475500Y-127008000D01*
X112519500Y-126994000D01*
X112564000Y-126982500D01*
X112609000Y-126973000D01*
X112654500Y-126965500D01*
X112700000Y-126960000D01*
X112700000Y-127360000D01*
G37*
G36*
X112945500Y-126965500D02*
G01*
X112991000Y-126973000D01*
X113036000Y-126982500D01*
X113080500Y-126994000D01*
X113124500Y-127008000D01*
X113167500Y-127023500D01*
X113210000Y-127041500D01*
X113251500Y-127061000D01*
X113292500Y-127082500D01*
X113332000Y-127106000D01*
X113370500Y-127131000D01*
X113407500Y-127158000D01*
X113443500Y-127186500D01*
X113478500Y-127216500D01*
X113511500Y-127248500D01*
X113543500Y-127281500D01*
X113573500Y-127316500D01*
X113602000Y-127352500D01*
X113629000Y-127389500D01*
X113654000Y-127428000D01*
X113677500Y-127467500D01*
X113699000Y-127508500D01*
X113718500Y-127550000D01*
X113736500Y-127592500D01*
X113752000Y-127635500D01*
X113766000Y-127679500D01*
X113777500Y-127724000D01*
X113787000Y-127769000D01*
X113794500Y-127814500D01*
X113800000Y-127860000D01*
X113400000Y-127860000D01*
X113393500Y-127824500D01*
X113384500Y-127789500D01*
X113374000Y-127755500D01*
X113361000Y-127721500D01*
X113346000Y-127689000D01*
X113329500Y-127657000D01*
X113310500Y-127626500D01*
X113290000Y-127596500D01*
X113268000Y-127568500D01*
X113244000Y-127541500D01*
X113218500Y-127516000D01*
X113191500Y-127492000D01*
X113163500Y-127470000D01*
X113133500Y-127449500D01*
X113103000Y-127430500D01*
X113071000Y-127414000D01*
X113038500Y-127399000D01*
X113004500Y-127386000D01*
X112970500Y-127375500D01*
X112935500Y-127366500D01*
X112900000Y-127360000D01*
X112900000Y-126960000D01*
X112945500Y-126965500D01*
G37*
G36*
X112206500Y-128095500D02*
G01*
X112215500Y-128130500D01*
X112226000Y-128164500D01*
X112239000Y-128198500D01*
X112254000Y-128231000D01*
X112270500Y-128263000D01*
X112289500Y-128293500D01*
X112310000Y-128323500D01*
X112332000Y-128351500D01*
X112356000Y-128378500D01*
X112381500Y-128404000D01*
X112408500Y-128428000D01*
X112436500Y-128450000D01*
X112466500Y-128470500D01*
X112497000Y-128489500D01*
X112529000Y-128506000D01*
X112561500Y-128521000D01*
X112595500Y-128534000D01*
X112629500Y-128544500D01*
X112664500Y-128553500D01*
X112700000Y-128560000D01*
X112700000Y-128960000D01*
X112654500Y-128954500D01*
X112609000Y-128947000D01*
X112564000Y-128937500D01*
X112519500Y-128926000D01*
X112475500Y-128912000D01*
X112432500Y-128896500D01*
X112390000Y-128878500D01*
X112348500Y-128859000D01*
X112307500Y-128837500D01*
X112268000Y-128814000D01*
X112229500Y-128789000D01*
X112192500Y-128762000D01*
X112156500Y-128733500D01*
X112121500Y-128703500D01*
X112088500Y-128671500D01*
X112056500Y-128638500D01*
X112026500Y-128603500D01*
X111998000Y-128567500D01*
X111971000Y-128530500D01*
X111946000Y-128492000D01*
X111922500Y-128452500D01*
X111901000Y-128411500D01*
X111881500Y-128370000D01*
X111863500Y-128327500D01*
X111848000Y-128284500D01*
X111834000Y-128240500D01*
X111822500Y-128196000D01*
X111813000Y-128151000D01*
X111805500Y-128105500D01*
X111800000Y-128060000D01*
X112200000Y-128060000D01*
X112206500Y-128095500D01*
G37*
G36*
X113794500Y-128105500D02*
G01*
X113787000Y-128151000D01*
X113777500Y-128196000D01*
X113766000Y-128240500D01*
X113752000Y-128284500D01*
X113736500Y-128327500D01*
X113718500Y-128370000D01*
X113699000Y-128411500D01*
X113677500Y-128452500D01*
X113654000Y-128492000D01*
X113629000Y-128530500D01*
X113602000Y-128567500D01*
X113573500Y-128603500D01*
X113543500Y-128638500D01*
X113511500Y-128671500D01*
X113478500Y-128703500D01*
X113443500Y-128733500D01*
X113407500Y-128762000D01*
X113370500Y-128789000D01*
X113332000Y-128814000D01*
X113292500Y-128837500D01*
X113251500Y-128859000D01*
X113210000Y-128878500D01*
X113167500Y-128896500D01*
X113124500Y-128912000D01*
X113080500Y-128926000D01*
X113036000Y-128937500D01*
X112991000Y-128947000D01*
X112945500Y-128954500D01*
X112900000Y-128960000D01*
X112900000Y-128560000D01*
X112935500Y-128553500D01*
X112970500Y-128544500D01*
X113004500Y-128534000D01*
X113038500Y-128521000D01*
X113071000Y-128506000D01*
X113103000Y-128489500D01*
X113133500Y-128470500D01*
X113163500Y-128450000D01*
X113191500Y-128428000D01*
X113218500Y-128404000D01*
X113244000Y-128378500D01*
X113268000Y-128351500D01*
X113290000Y-128323500D01*
X113310500Y-128293500D01*
X113329500Y-128263000D01*
X113346000Y-128231000D01*
X113361000Y-128198500D01*
X113374000Y-128164500D01*
X113384500Y-128130500D01*
X113393500Y-128095500D01*
X113400000Y-128060000D01*
X113800000Y-128060000D01*
X113794500Y-128105500D01*
G37*
G04 #@! TO.C,U7*
G36*
X112700000Y-129900000D02*
G01*
X112664500Y-129906500D01*
X112629500Y-129915500D01*
X112595500Y-129926000D01*
X112561500Y-129939000D01*
X112529000Y-129954000D01*
X112497000Y-129970500D01*
X112466500Y-129989500D01*
X112436500Y-130010000D01*
X112408500Y-130032000D01*
X112381500Y-130056000D01*
X112356000Y-130081500D01*
X112332000Y-130108500D01*
X112310000Y-130136500D01*
X112289500Y-130166500D01*
X112270500Y-130197000D01*
X112254000Y-130229000D01*
X112239000Y-130261500D01*
X112226000Y-130295500D01*
X112215500Y-130329500D01*
X112206500Y-130364500D01*
X112200000Y-130400000D01*
X111800000Y-130400000D01*
X111805500Y-130354500D01*
X111813000Y-130309000D01*
X111822500Y-130264000D01*
X111834000Y-130219500D01*
X111848000Y-130175500D01*
X111863500Y-130132500D01*
X111881500Y-130090000D01*
X111901000Y-130048500D01*
X111922500Y-130007500D01*
X111946000Y-129968000D01*
X111971000Y-129929500D01*
X111998000Y-129892500D01*
X112026500Y-129856500D01*
X112056500Y-129821500D01*
X112088500Y-129788500D01*
X112121500Y-129756500D01*
X112156500Y-129726500D01*
X112192500Y-129698000D01*
X112229500Y-129671000D01*
X112268000Y-129646000D01*
X112307500Y-129622500D01*
X112348500Y-129601000D01*
X112390000Y-129581500D01*
X112432500Y-129563500D01*
X112475500Y-129548000D01*
X112519500Y-129534000D01*
X112564000Y-129522500D01*
X112609000Y-129513000D01*
X112654500Y-129505500D01*
X112700000Y-129500000D01*
X112700000Y-129900000D01*
G37*
G36*
X112945500Y-129505500D02*
G01*
X112991000Y-129513000D01*
X113036000Y-129522500D01*
X113080500Y-129534000D01*
X113124500Y-129548000D01*
X113167500Y-129563500D01*
X113210000Y-129581500D01*
X113251500Y-129601000D01*
X113292500Y-129622500D01*
X113332000Y-129646000D01*
X113370500Y-129671000D01*
X113407500Y-129698000D01*
X113443500Y-129726500D01*
X113478500Y-129756500D01*
X113511500Y-129788500D01*
X113543500Y-129821500D01*
X113573500Y-129856500D01*
X113602000Y-129892500D01*
X113629000Y-129929500D01*
X113654000Y-129968000D01*
X113677500Y-130007500D01*
X113699000Y-130048500D01*
X113718500Y-130090000D01*
X113736500Y-130132500D01*
X113752000Y-130175500D01*
X113766000Y-130219500D01*
X113777500Y-130264000D01*
X113787000Y-130309000D01*
X113794500Y-130354500D01*
X113800000Y-130400000D01*
X113400000Y-130400000D01*
X113393500Y-130364500D01*
X113384500Y-130329500D01*
X113374000Y-130295500D01*
X113361000Y-130261500D01*
X113346000Y-130229000D01*
X113329500Y-130197000D01*
X113310500Y-130166500D01*
X113290000Y-130136500D01*
X113268000Y-130108500D01*
X113244000Y-130081500D01*
X113218500Y-130056000D01*
X113191500Y-130032000D01*
X113163500Y-130010000D01*
X113133500Y-129989500D01*
X113103000Y-129970500D01*
X113071000Y-129954000D01*
X113038500Y-129939000D01*
X113004500Y-129926000D01*
X112970500Y-129915500D01*
X112935500Y-129906500D01*
X112900000Y-129900000D01*
X112900000Y-129500000D01*
X112945500Y-129505500D01*
G37*
G36*
X112206500Y-130635500D02*
G01*
X112215500Y-130670500D01*
X112226000Y-130704500D01*
X112239000Y-130738500D01*
X112254000Y-130771000D01*
X112270500Y-130803000D01*
X112289500Y-130833500D01*
X112310000Y-130863500D01*
X112332000Y-130891500D01*
X112356000Y-130918500D01*
X112381500Y-130944000D01*
X112408500Y-130968000D01*
X112436500Y-130990000D01*
X112466500Y-131010500D01*
X112497000Y-131029500D01*
X112529000Y-131046000D01*
X112561500Y-131061000D01*
X112595500Y-131074000D01*
X112629500Y-131084500D01*
X112664500Y-131093500D01*
X112700000Y-131100000D01*
X112700000Y-131500000D01*
X112654500Y-131494500D01*
X112609000Y-131487000D01*
X112564000Y-131477500D01*
X112519500Y-131466000D01*
X112475500Y-131452000D01*
X112432500Y-131436500D01*
X112390000Y-131418500D01*
X112348500Y-131399000D01*
X112307500Y-131377500D01*
X112268000Y-131354000D01*
X112229500Y-131329000D01*
X112192500Y-131302000D01*
X112156500Y-131273500D01*
X112121500Y-131243500D01*
X112088500Y-131211500D01*
X112056500Y-131178500D01*
X112026500Y-131143500D01*
X111998000Y-131107500D01*
X111971000Y-131070500D01*
X111946000Y-131032000D01*
X111922500Y-130992500D01*
X111901000Y-130951500D01*
X111881500Y-130910000D01*
X111863500Y-130867500D01*
X111848000Y-130824500D01*
X111834000Y-130780500D01*
X111822500Y-130736000D01*
X111813000Y-130691000D01*
X111805500Y-130645500D01*
X111800000Y-130600000D01*
X112200000Y-130600000D01*
X112206500Y-130635500D01*
G37*
G36*
X113794500Y-130645500D02*
G01*
X113787000Y-130691000D01*
X113777500Y-130736000D01*
X113766000Y-130780500D01*
X113752000Y-130824500D01*
X113736500Y-130867500D01*
X113718500Y-130910000D01*
X113699000Y-130951500D01*
X113677500Y-130992500D01*
X113654000Y-131032000D01*
X113629000Y-131070500D01*
X113602000Y-131107500D01*
X113573500Y-131143500D01*
X113543500Y-131178500D01*
X113511500Y-131211500D01*
X113478500Y-131243500D01*
X113443500Y-131273500D01*
X113407500Y-131302000D01*
X113370500Y-131329000D01*
X113332000Y-131354000D01*
X113292500Y-131377500D01*
X113251500Y-131399000D01*
X113210000Y-131418500D01*
X113167500Y-131436500D01*
X113124500Y-131452000D01*
X113080500Y-131466000D01*
X113036000Y-131477500D01*
X112991000Y-131487000D01*
X112945500Y-131494500D01*
X112900000Y-131500000D01*
X112900000Y-131100000D01*
X112935500Y-131093500D01*
X112970500Y-131084500D01*
X113004500Y-131074000D01*
X113038500Y-131061000D01*
X113071000Y-131046000D01*
X113103000Y-131029500D01*
X113133500Y-131010500D01*
X113163500Y-130990000D01*
X113191500Y-130968000D01*
X113218500Y-130944000D01*
X113244000Y-130918500D01*
X113268000Y-130891500D01*
X113290000Y-130863500D01*
X113310500Y-130833500D01*
X113329500Y-130803000D01*
X113346000Y-130771000D01*
X113361000Y-130738500D01*
X113374000Y-130704500D01*
X113384500Y-130670500D01*
X113393500Y-130635500D01*
X113400000Y-130600000D01*
X113800000Y-130600000D01*
X113794500Y-130645500D01*
G37*
G04 #@! TO.C,U6*
G36*
X110160000Y-127360000D02*
G01*
X110124500Y-127366500D01*
X110089500Y-127375500D01*
X110055500Y-127386000D01*
X110021500Y-127399000D01*
X109989000Y-127414000D01*
X109957000Y-127430500D01*
X109926500Y-127449500D01*
X109896500Y-127470000D01*
X109868500Y-127492000D01*
X109841500Y-127516000D01*
X109816000Y-127541500D01*
X109792000Y-127568500D01*
X109770000Y-127596500D01*
X109749500Y-127626500D01*
X109730500Y-127657000D01*
X109714000Y-127689000D01*
X109699000Y-127721500D01*
X109686000Y-127755500D01*
X109675500Y-127789500D01*
X109666500Y-127824500D01*
X109660000Y-127860000D01*
X109260000Y-127860000D01*
X109265500Y-127814500D01*
X109273000Y-127769000D01*
X109282500Y-127724000D01*
X109294000Y-127679500D01*
X109308000Y-127635500D01*
X109323500Y-127592500D01*
X109341500Y-127550000D01*
X109361000Y-127508500D01*
X109382500Y-127467500D01*
X109406000Y-127428000D01*
X109431000Y-127389500D01*
X109458000Y-127352500D01*
X109486500Y-127316500D01*
X109516500Y-127281500D01*
X109548500Y-127248500D01*
X109581500Y-127216500D01*
X109616500Y-127186500D01*
X109652500Y-127158000D01*
X109689500Y-127131000D01*
X109728000Y-127106000D01*
X109767500Y-127082500D01*
X109808500Y-127061000D01*
X109850000Y-127041500D01*
X109892500Y-127023500D01*
X109935500Y-127008000D01*
X109979500Y-126994000D01*
X110024000Y-126982500D01*
X110069000Y-126973000D01*
X110114500Y-126965500D01*
X110160000Y-126960000D01*
X110160000Y-127360000D01*
G37*
G36*
X110405500Y-126965500D02*
G01*
X110451000Y-126973000D01*
X110496000Y-126982500D01*
X110540500Y-126994000D01*
X110584500Y-127008000D01*
X110627500Y-127023500D01*
X110670000Y-127041500D01*
X110711500Y-127061000D01*
X110752500Y-127082500D01*
X110792000Y-127106000D01*
X110830500Y-127131000D01*
X110867500Y-127158000D01*
X110903500Y-127186500D01*
X110938500Y-127216500D01*
X110971500Y-127248500D01*
X111003500Y-127281500D01*
X111033500Y-127316500D01*
X111062000Y-127352500D01*
X111089000Y-127389500D01*
X111114000Y-127428000D01*
X111137500Y-127467500D01*
X111159000Y-127508500D01*
X111178500Y-127550000D01*
X111196500Y-127592500D01*
X111212000Y-127635500D01*
X111226000Y-127679500D01*
X111237500Y-127724000D01*
X111247000Y-127769000D01*
X111254500Y-127814500D01*
X111260000Y-127860000D01*
X110860000Y-127860000D01*
X110853500Y-127824500D01*
X110844500Y-127789500D01*
X110834000Y-127755500D01*
X110821000Y-127721500D01*
X110806000Y-127689000D01*
X110789500Y-127657000D01*
X110770500Y-127626500D01*
X110750000Y-127596500D01*
X110728000Y-127568500D01*
X110704000Y-127541500D01*
X110678500Y-127516000D01*
X110651500Y-127492000D01*
X110623500Y-127470000D01*
X110593500Y-127449500D01*
X110563000Y-127430500D01*
X110531000Y-127414000D01*
X110498500Y-127399000D01*
X110464500Y-127386000D01*
X110430500Y-127375500D01*
X110395500Y-127366500D01*
X110360000Y-127360000D01*
X110360000Y-126960000D01*
X110405500Y-126965500D01*
G37*
G36*
X109666500Y-128095500D02*
G01*
X109675500Y-128130500D01*
X109686000Y-128164500D01*
X109699000Y-128198500D01*
X109714000Y-128231000D01*
X109730500Y-128263000D01*
X109749500Y-128293500D01*
X109770000Y-128323500D01*
X109792000Y-128351500D01*
X109816000Y-128378500D01*
X109841500Y-128404000D01*
X109868500Y-128428000D01*
X109896500Y-128450000D01*
X109926500Y-128470500D01*
X109957000Y-128489500D01*
X109989000Y-128506000D01*
X110021500Y-128521000D01*
X110055500Y-128534000D01*
X110089500Y-128544500D01*
X110124500Y-128553500D01*
X110160000Y-128560000D01*
X110160000Y-128960000D01*
X110114500Y-128954500D01*
X110069000Y-128947000D01*
X110024000Y-128937500D01*
X109979500Y-128926000D01*
X109935500Y-128912000D01*
X109892500Y-128896500D01*
X109850000Y-128878500D01*
X109808500Y-128859000D01*
X109767500Y-128837500D01*
X109728000Y-128814000D01*
X109689500Y-128789000D01*
X109652500Y-128762000D01*
X109616500Y-128733500D01*
X109581500Y-128703500D01*
X109548500Y-128671500D01*
X109516500Y-128638500D01*
X109486500Y-128603500D01*
X109458000Y-128567500D01*
X109431000Y-128530500D01*
X109406000Y-128492000D01*
X109382500Y-128452500D01*
X109361000Y-128411500D01*
X109341500Y-128370000D01*
X109323500Y-128327500D01*
X109308000Y-128284500D01*
X109294000Y-128240500D01*
X109282500Y-128196000D01*
X109273000Y-128151000D01*
X109265500Y-128105500D01*
X109260000Y-128060000D01*
X109660000Y-128060000D01*
X109666500Y-128095500D01*
G37*
G36*
X111254500Y-128105500D02*
G01*
X111247000Y-128151000D01*
X111237500Y-128196000D01*
X111226000Y-128240500D01*
X111212000Y-128284500D01*
X111196500Y-128327500D01*
X111178500Y-128370000D01*
X111159000Y-128411500D01*
X111137500Y-128452500D01*
X111114000Y-128492000D01*
X111089000Y-128530500D01*
X111062000Y-128567500D01*
X111033500Y-128603500D01*
X111003500Y-128638500D01*
X110971500Y-128671500D01*
X110938500Y-128703500D01*
X110903500Y-128733500D01*
X110867500Y-128762000D01*
X110830500Y-128789000D01*
X110792000Y-128814000D01*
X110752500Y-128837500D01*
X110711500Y-128859000D01*
X110670000Y-128878500D01*
X110627500Y-128896500D01*
X110584500Y-128912000D01*
X110540500Y-128926000D01*
X110496000Y-128937500D01*
X110451000Y-128947000D01*
X110405500Y-128954500D01*
X110360000Y-128960000D01*
X110360000Y-128560000D01*
X110395500Y-128553500D01*
X110430500Y-128544500D01*
X110464500Y-128534000D01*
X110498500Y-128521000D01*
X110531000Y-128506000D01*
X110563000Y-128489500D01*
X110593500Y-128470500D01*
X110623500Y-128450000D01*
X110651500Y-128428000D01*
X110678500Y-128404000D01*
X110704000Y-128378500D01*
X110728000Y-128351500D01*
X110750000Y-128323500D01*
X110770500Y-128293500D01*
X110789500Y-128263000D01*
X110806000Y-128231000D01*
X110821000Y-128198500D01*
X110834000Y-128164500D01*
X110844500Y-128130500D01*
X110853500Y-128095500D01*
X110860000Y-128060000D01*
X111260000Y-128060000D01*
X111254500Y-128105500D01*
G37*
G04 #@! TO.C,U5*
G36*
X110160000Y-129900000D02*
G01*
X110124500Y-129906500D01*
X110089500Y-129915500D01*
X110055500Y-129926000D01*
X110021500Y-129939000D01*
X109989000Y-129954000D01*
X109957000Y-129970500D01*
X109926500Y-129989500D01*
X109896500Y-130010000D01*
X109868500Y-130032000D01*
X109841500Y-130056000D01*
X109816000Y-130081500D01*
X109792000Y-130108500D01*
X109770000Y-130136500D01*
X109749500Y-130166500D01*
X109730500Y-130197000D01*
X109714000Y-130229000D01*
X109699000Y-130261500D01*
X109686000Y-130295500D01*
X109675500Y-130329500D01*
X109666500Y-130364500D01*
X109660000Y-130400000D01*
X109260000Y-130400000D01*
X109265500Y-130354500D01*
X109273000Y-130309000D01*
X109282500Y-130264000D01*
X109294000Y-130219500D01*
X109308000Y-130175500D01*
X109323500Y-130132500D01*
X109341500Y-130090000D01*
X109361000Y-130048500D01*
X109382500Y-130007500D01*
X109406000Y-129968000D01*
X109431000Y-129929500D01*
X109458000Y-129892500D01*
X109486500Y-129856500D01*
X109516500Y-129821500D01*
X109548500Y-129788500D01*
X109581500Y-129756500D01*
X109616500Y-129726500D01*
X109652500Y-129698000D01*
X109689500Y-129671000D01*
X109728000Y-129646000D01*
X109767500Y-129622500D01*
X109808500Y-129601000D01*
X109850000Y-129581500D01*
X109892500Y-129563500D01*
X109935500Y-129548000D01*
X109979500Y-129534000D01*
X110024000Y-129522500D01*
X110069000Y-129513000D01*
X110114500Y-129505500D01*
X110160000Y-129500000D01*
X110160000Y-129900000D01*
G37*
G36*
X110405500Y-129505500D02*
G01*
X110451000Y-129513000D01*
X110496000Y-129522500D01*
X110540500Y-129534000D01*
X110584500Y-129548000D01*
X110627500Y-129563500D01*
X110670000Y-129581500D01*
X110711500Y-129601000D01*
X110752500Y-129622500D01*
X110792000Y-129646000D01*
X110830500Y-129671000D01*
X110867500Y-129698000D01*
X110903500Y-129726500D01*
X110938500Y-129756500D01*
X110971500Y-129788500D01*
X111003500Y-129821500D01*
X111033500Y-129856500D01*
X111062000Y-129892500D01*
X111089000Y-129929500D01*
X111114000Y-129968000D01*
X111137500Y-130007500D01*
X111159000Y-130048500D01*
X111178500Y-130090000D01*
X111196500Y-130132500D01*
X111212000Y-130175500D01*
X111226000Y-130219500D01*
X111237500Y-130264000D01*
X111247000Y-130309000D01*
X111254500Y-130354500D01*
X111260000Y-130400000D01*
X110860000Y-130400000D01*
X110853500Y-130364500D01*
X110844500Y-130329500D01*
X110834000Y-130295500D01*
X110821000Y-130261500D01*
X110806000Y-130229000D01*
X110789500Y-130197000D01*
X110770500Y-130166500D01*
X110750000Y-130136500D01*
X110728000Y-130108500D01*
X110704000Y-130081500D01*
X110678500Y-130056000D01*
X110651500Y-130032000D01*
X110623500Y-130010000D01*
X110593500Y-129989500D01*
X110563000Y-129970500D01*
X110531000Y-129954000D01*
X110498500Y-129939000D01*
X110464500Y-129926000D01*
X110430500Y-129915500D01*
X110395500Y-129906500D01*
X110360000Y-129900000D01*
X110360000Y-129500000D01*
X110405500Y-129505500D01*
G37*
G36*
X109666500Y-130635500D02*
G01*
X109675500Y-130670500D01*
X109686000Y-130704500D01*
X109699000Y-130738500D01*
X109714000Y-130771000D01*
X109730500Y-130803000D01*
X109749500Y-130833500D01*
X109770000Y-130863500D01*
X109792000Y-130891500D01*
X109816000Y-130918500D01*
X109841500Y-130944000D01*
X109868500Y-130968000D01*
X109896500Y-130990000D01*
X109926500Y-131010500D01*
X109957000Y-131029500D01*
X109989000Y-131046000D01*
X110021500Y-131061000D01*
X110055500Y-131074000D01*
X110089500Y-131084500D01*
X110124500Y-131093500D01*
X110160000Y-131100000D01*
X110160000Y-131500000D01*
X110114500Y-131494500D01*
X110069000Y-131487000D01*
X110024000Y-131477500D01*
X109979500Y-131466000D01*
X109935500Y-131452000D01*
X109892500Y-131436500D01*
X109850000Y-131418500D01*
X109808500Y-131399000D01*
X109767500Y-131377500D01*
X109728000Y-131354000D01*
X109689500Y-131329000D01*
X109652500Y-131302000D01*
X109616500Y-131273500D01*
X109581500Y-131243500D01*
X109548500Y-131211500D01*
X109516500Y-131178500D01*
X109486500Y-131143500D01*
X109458000Y-131107500D01*
X109431000Y-131070500D01*
X109406000Y-131032000D01*
X109382500Y-130992500D01*
X109361000Y-130951500D01*
X109341500Y-130910000D01*
X109323500Y-130867500D01*
X109308000Y-130824500D01*
X109294000Y-130780500D01*
X109282500Y-130736000D01*
X109273000Y-130691000D01*
X109265500Y-130645500D01*
X109260000Y-130600000D01*
X109660000Y-130600000D01*
X109666500Y-130635500D01*
G37*
G36*
X111254500Y-130645500D02*
G01*
X111247000Y-130691000D01*
X111237500Y-130736000D01*
X111226000Y-130780500D01*
X111212000Y-130824500D01*
X111196500Y-130867500D01*
X111178500Y-130910000D01*
X111159000Y-130951500D01*
X111137500Y-130992500D01*
X111114000Y-131032000D01*
X111089000Y-131070500D01*
X111062000Y-131107500D01*
X111033500Y-131143500D01*
X111003500Y-131178500D01*
X110971500Y-131211500D01*
X110938500Y-131243500D01*
X110903500Y-131273500D01*
X110867500Y-131302000D01*
X110830500Y-131329000D01*
X110792000Y-131354000D01*
X110752500Y-131377500D01*
X110711500Y-131399000D01*
X110670000Y-131418500D01*
X110627500Y-131436500D01*
X110584500Y-131452000D01*
X110540500Y-131466000D01*
X110496000Y-131477500D01*
X110451000Y-131487000D01*
X110405500Y-131494500D01*
X110360000Y-131500000D01*
X110360000Y-131100000D01*
X110395500Y-131093500D01*
X110430500Y-131084500D01*
X110464500Y-131074000D01*
X110498500Y-131061000D01*
X110531000Y-131046000D01*
X110563000Y-131029500D01*
X110593500Y-131010500D01*
X110623500Y-130990000D01*
X110651500Y-130968000D01*
X110678500Y-130944000D01*
X110704000Y-130918500D01*
X110728000Y-130891500D01*
X110750000Y-130863500D01*
X110770500Y-130833500D01*
X110789500Y-130803000D01*
X110806000Y-130771000D01*
X110821000Y-130738500D01*
X110834000Y-130704500D01*
X110844500Y-130670500D01*
X110853500Y-130635500D01*
X110860000Y-130600000D01*
X111260000Y-130600000D01*
X111254500Y-130645500D01*
G37*
G04 #@! TO.C,U4*
G36*
X107620000Y-127360000D02*
G01*
X107584500Y-127366500D01*
X107549500Y-127375500D01*
X107515500Y-127386000D01*
X107481500Y-127399000D01*
X107449000Y-127414000D01*
X107417000Y-127430500D01*
X107386500Y-127449500D01*
X107356500Y-127470000D01*
X107328500Y-127492000D01*
X107301500Y-127516000D01*
X107276000Y-127541500D01*
X107252000Y-127568500D01*
X107230000Y-127596500D01*
X107209500Y-127626500D01*
X107190500Y-127657000D01*
X107174000Y-127689000D01*
X107159000Y-127721500D01*
X107146000Y-127755500D01*
X107135500Y-127789500D01*
X107126500Y-127824500D01*
X107120000Y-127860000D01*
X106720000Y-127860000D01*
X106725500Y-127814500D01*
X106733000Y-127769000D01*
X106742500Y-127724000D01*
X106754000Y-127679500D01*
X106768000Y-127635500D01*
X106783500Y-127592500D01*
X106801500Y-127550000D01*
X106821000Y-127508500D01*
X106842500Y-127467500D01*
X106866000Y-127428000D01*
X106891000Y-127389500D01*
X106918000Y-127352500D01*
X106946500Y-127316500D01*
X106976500Y-127281500D01*
X107008500Y-127248500D01*
X107041500Y-127216500D01*
X107076500Y-127186500D01*
X107112500Y-127158000D01*
X107149500Y-127131000D01*
X107188000Y-127106000D01*
X107227500Y-127082500D01*
X107268500Y-127061000D01*
X107310000Y-127041500D01*
X107352500Y-127023500D01*
X107395500Y-127008000D01*
X107439500Y-126994000D01*
X107484000Y-126982500D01*
X107529000Y-126973000D01*
X107574500Y-126965500D01*
X107620000Y-126960000D01*
X107620000Y-127360000D01*
G37*
G36*
X107865500Y-126965500D02*
G01*
X107911000Y-126973000D01*
X107956000Y-126982500D01*
X108000500Y-126994000D01*
X108044500Y-127008000D01*
X108087500Y-127023500D01*
X108130000Y-127041500D01*
X108171500Y-127061000D01*
X108212500Y-127082500D01*
X108252000Y-127106000D01*
X108290500Y-127131000D01*
X108327500Y-127158000D01*
X108363500Y-127186500D01*
X108398500Y-127216500D01*
X108431500Y-127248500D01*
X108463500Y-127281500D01*
X108493500Y-127316500D01*
X108522000Y-127352500D01*
X108549000Y-127389500D01*
X108574000Y-127428000D01*
X108597500Y-127467500D01*
X108619000Y-127508500D01*
X108638500Y-127550000D01*
X108656500Y-127592500D01*
X108672000Y-127635500D01*
X108686000Y-127679500D01*
X108697500Y-127724000D01*
X108707000Y-127769000D01*
X108714500Y-127814500D01*
X108720000Y-127860000D01*
X108320000Y-127860000D01*
X108313500Y-127824500D01*
X108304500Y-127789500D01*
X108294000Y-127755500D01*
X108281000Y-127721500D01*
X108266000Y-127689000D01*
X108249500Y-127657000D01*
X108230500Y-127626500D01*
X108210000Y-127596500D01*
X108188000Y-127568500D01*
X108164000Y-127541500D01*
X108138500Y-127516000D01*
X108111500Y-127492000D01*
X108083500Y-127470000D01*
X108053500Y-127449500D01*
X108023000Y-127430500D01*
X107991000Y-127414000D01*
X107958500Y-127399000D01*
X107924500Y-127386000D01*
X107890500Y-127375500D01*
X107855500Y-127366500D01*
X107820000Y-127360000D01*
X107820000Y-126960000D01*
X107865500Y-126965500D01*
G37*
G36*
X107126500Y-128095500D02*
G01*
X107135500Y-128130500D01*
X107146000Y-128164500D01*
X107159000Y-128198500D01*
X107174000Y-128231000D01*
X107190500Y-128263000D01*
X107209500Y-128293500D01*
X107230000Y-128323500D01*
X107252000Y-128351500D01*
X107276000Y-128378500D01*
X107301500Y-128404000D01*
X107328500Y-128428000D01*
X107356500Y-128450000D01*
X107386500Y-128470500D01*
X107417000Y-128489500D01*
X107449000Y-128506000D01*
X107481500Y-128521000D01*
X107515500Y-128534000D01*
X107549500Y-128544500D01*
X107584500Y-128553500D01*
X107620000Y-128560000D01*
X107620000Y-128960000D01*
X107574500Y-128954500D01*
X107529000Y-128947000D01*
X107484000Y-128937500D01*
X107439500Y-128926000D01*
X107395500Y-128912000D01*
X107352500Y-128896500D01*
X107310000Y-128878500D01*
X107268500Y-128859000D01*
X107227500Y-128837500D01*
X107188000Y-128814000D01*
X107149500Y-128789000D01*
X107112500Y-128762000D01*
X107076500Y-128733500D01*
X107041500Y-128703500D01*
X107008500Y-128671500D01*
X106976500Y-128638500D01*
X106946500Y-128603500D01*
X106918000Y-128567500D01*
X106891000Y-128530500D01*
X106866000Y-128492000D01*
X106842500Y-128452500D01*
X106821000Y-128411500D01*
X106801500Y-128370000D01*
X106783500Y-128327500D01*
X106768000Y-128284500D01*
X106754000Y-128240500D01*
X106742500Y-128196000D01*
X106733000Y-128151000D01*
X106725500Y-128105500D01*
X106720000Y-128060000D01*
X107120000Y-128060000D01*
X107126500Y-128095500D01*
G37*
G36*
X108714500Y-128105500D02*
G01*
X108707000Y-128151000D01*
X108697500Y-128196000D01*
X108686000Y-128240500D01*
X108672000Y-128284500D01*
X108656500Y-128327500D01*
X108638500Y-128370000D01*
X108619000Y-128411500D01*
X108597500Y-128452500D01*
X108574000Y-128492000D01*
X108549000Y-128530500D01*
X108522000Y-128567500D01*
X108493500Y-128603500D01*
X108463500Y-128638500D01*
X108431500Y-128671500D01*
X108398500Y-128703500D01*
X108363500Y-128733500D01*
X108327500Y-128762000D01*
X108290500Y-128789000D01*
X108252000Y-128814000D01*
X108212500Y-128837500D01*
X108171500Y-128859000D01*
X108130000Y-128878500D01*
X108087500Y-128896500D01*
X108044500Y-128912000D01*
X108000500Y-128926000D01*
X107956000Y-128937500D01*
X107911000Y-128947000D01*
X107865500Y-128954500D01*
X107820000Y-128960000D01*
X107820000Y-128560000D01*
X107855500Y-128553500D01*
X107890500Y-128544500D01*
X107924500Y-128534000D01*
X107958500Y-128521000D01*
X107991000Y-128506000D01*
X108023000Y-128489500D01*
X108053500Y-128470500D01*
X108083500Y-128450000D01*
X108111500Y-128428000D01*
X108138500Y-128404000D01*
X108164000Y-128378500D01*
X108188000Y-128351500D01*
X108210000Y-128323500D01*
X108230500Y-128293500D01*
X108249500Y-128263000D01*
X108266000Y-128231000D01*
X108281000Y-128198500D01*
X108294000Y-128164500D01*
X108304500Y-128130500D01*
X108313500Y-128095500D01*
X108320000Y-128060000D01*
X108720000Y-128060000D01*
X108714500Y-128105500D01*
G37*
G04 #@! TO.C,U3*
G36*
X107620000Y-129900000D02*
G01*
X107584500Y-129906500D01*
X107549500Y-129915500D01*
X107515500Y-129926000D01*
X107481500Y-129939000D01*
X107449000Y-129954000D01*
X107417000Y-129970500D01*
X107386500Y-129989500D01*
X107356500Y-130010000D01*
X107328500Y-130032000D01*
X107301500Y-130056000D01*
X107276000Y-130081500D01*
X107252000Y-130108500D01*
X107230000Y-130136500D01*
X107209500Y-130166500D01*
X107190500Y-130197000D01*
X107174000Y-130229000D01*
X107159000Y-130261500D01*
X107146000Y-130295500D01*
X107135500Y-130329500D01*
X107126500Y-130364500D01*
X107120000Y-130400000D01*
X106720000Y-130400000D01*
X106725500Y-130354500D01*
X106733000Y-130309000D01*
X106742500Y-130264000D01*
X106754000Y-130219500D01*
X106768000Y-130175500D01*
X106783500Y-130132500D01*
X106801500Y-130090000D01*
X106821000Y-130048500D01*
X106842500Y-130007500D01*
X106866000Y-129968000D01*
X106891000Y-129929500D01*
X106918000Y-129892500D01*
X106946500Y-129856500D01*
X106976500Y-129821500D01*
X107008500Y-129788500D01*
X107041500Y-129756500D01*
X107076500Y-129726500D01*
X107112500Y-129698000D01*
X107149500Y-129671000D01*
X107188000Y-129646000D01*
X107227500Y-129622500D01*
X107268500Y-129601000D01*
X107310000Y-129581500D01*
X107352500Y-129563500D01*
X107395500Y-129548000D01*
X107439500Y-129534000D01*
X107484000Y-129522500D01*
X107529000Y-129513000D01*
X107574500Y-129505500D01*
X107620000Y-129500000D01*
X107620000Y-129900000D01*
G37*
G36*
X107865500Y-129505500D02*
G01*
X107911000Y-129513000D01*
X107956000Y-129522500D01*
X108000500Y-129534000D01*
X108044500Y-129548000D01*
X108087500Y-129563500D01*
X108130000Y-129581500D01*
X108171500Y-129601000D01*
X108212500Y-129622500D01*
X108252000Y-129646000D01*
X108290500Y-129671000D01*
X108327500Y-129698000D01*
X108363500Y-129726500D01*
X108398500Y-129756500D01*
X108431500Y-129788500D01*
X108463500Y-129821500D01*
X108493500Y-129856500D01*
X108522000Y-129892500D01*
X108549000Y-129929500D01*
X108574000Y-129968000D01*
X108597500Y-130007500D01*
X108619000Y-130048500D01*
X108638500Y-130090000D01*
X108656500Y-130132500D01*
X108672000Y-130175500D01*
X108686000Y-130219500D01*
X108697500Y-130264000D01*
X108707000Y-130309000D01*
X108714500Y-130354500D01*
X108720000Y-130400000D01*
X108320000Y-130400000D01*
X108313500Y-130364500D01*
X108304500Y-130329500D01*
X108294000Y-130295500D01*
X108281000Y-130261500D01*
X108266000Y-130229000D01*
X108249500Y-130197000D01*
X108230500Y-130166500D01*
X108210000Y-130136500D01*
X108188000Y-130108500D01*
X108164000Y-130081500D01*
X108138500Y-130056000D01*
X108111500Y-130032000D01*
X108083500Y-130010000D01*
X108053500Y-129989500D01*
X108023000Y-129970500D01*
X107991000Y-129954000D01*
X107958500Y-129939000D01*
X107924500Y-129926000D01*
X107890500Y-129915500D01*
X107855500Y-129906500D01*
X107820000Y-129900000D01*
X107820000Y-129500000D01*
X107865500Y-129505500D01*
G37*
G36*
X107126500Y-130635500D02*
G01*
X107135500Y-130670500D01*
X107146000Y-130704500D01*
X107159000Y-130738500D01*
X107174000Y-130771000D01*
X107190500Y-130803000D01*
X107209500Y-130833500D01*
X107230000Y-130863500D01*
X107252000Y-130891500D01*
X107276000Y-130918500D01*
X107301500Y-130944000D01*
X107328500Y-130968000D01*
X107356500Y-130990000D01*
X107386500Y-131010500D01*
X107417000Y-131029500D01*
X107449000Y-131046000D01*
X107481500Y-131061000D01*
X107515500Y-131074000D01*
X107549500Y-131084500D01*
X107584500Y-131093500D01*
X107620000Y-131100000D01*
X107620000Y-131500000D01*
X107574500Y-131494500D01*
X107529000Y-131487000D01*
X107484000Y-131477500D01*
X107439500Y-131466000D01*
X107395500Y-131452000D01*
X107352500Y-131436500D01*
X107310000Y-131418500D01*
X107268500Y-131399000D01*
X107227500Y-131377500D01*
X107188000Y-131354000D01*
X107149500Y-131329000D01*
X107112500Y-131302000D01*
X107076500Y-131273500D01*
X107041500Y-131243500D01*
X107008500Y-131211500D01*
X106976500Y-131178500D01*
X106946500Y-131143500D01*
X106918000Y-131107500D01*
X106891000Y-131070500D01*
X106866000Y-131032000D01*
X106842500Y-130992500D01*
X106821000Y-130951500D01*
X106801500Y-130910000D01*
X106783500Y-130867500D01*
X106768000Y-130824500D01*
X106754000Y-130780500D01*
X106742500Y-130736000D01*
X106733000Y-130691000D01*
X106725500Y-130645500D01*
X106720000Y-130600000D01*
X107120000Y-130600000D01*
X107126500Y-130635500D01*
G37*
G36*
X108714500Y-130645500D02*
G01*
X108707000Y-130691000D01*
X108697500Y-130736000D01*
X108686000Y-130780500D01*
X108672000Y-130824500D01*
X108656500Y-130867500D01*
X108638500Y-130910000D01*
X108619000Y-130951500D01*
X108597500Y-130992500D01*
X108574000Y-131032000D01*
X108549000Y-131070500D01*
X108522000Y-131107500D01*
X108493500Y-131143500D01*
X108463500Y-131178500D01*
X108431500Y-131211500D01*
X108398500Y-131243500D01*
X108363500Y-131273500D01*
X108327500Y-131302000D01*
X108290500Y-131329000D01*
X108252000Y-131354000D01*
X108212500Y-131377500D01*
X108171500Y-131399000D01*
X108130000Y-131418500D01*
X108087500Y-131436500D01*
X108044500Y-131452000D01*
X108000500Y-131466000D01*
X107956000Y-131477500D01*
X107911000Y-131487000D01*
X107865500Y-131494500D01*
X107820000Y-131500000D01*
X107820000Y-131100000D01*
X107855500Y-131093500D01*
X107890500Y-131084500D01*
X107924500Y-131074000D01*
X107958500Y-131061000D01*
X107991000Y-131046000D01*
X108023000Y-131029500D01*
X108053500Y-131010500D01*
X108083500Y-130990000D01*
X108111500Y-130968000D01*
X108138500Y-130944000D01*
X108164000Y-130918500D01*
X108188000Y-130891500D01*
X108210000Y-130863500D01*
X108230500Y-130833500D01*
X108249500Y-130803000D01*
X108266000Y-130771000D01*
X108281000Y-130738500D01*
X108294000Y-130704500D01*
X108304500Y-130670500D01*
X108313500Y-130635500D01*
X108320000Y-130600000D01*
X108720000Y-130600000D01*
X108714500Y-130645500D01*
G37*
G04 #@! TO.C,U2*
G36*
X105080000Y-127360000D02*
G01*
X105044500Y-127366500D01*
X105009500Y-127375500D01*
X104975500Y-127386000D01*
X104941500Y-127399000D01*
X104909000Y-127414000D01*
X104877000Y-127430500D01*
X104846500Y-127449500D01*
X104816500Y-127470000D01*
X104788500Y-127492000D01*
X104761500Y-127516000D01*
X104736000Y-127541500D01*
X104712000Y-127568500D01*
X104690000Y-127596500D01*
X104669500Y-127626500D01*
X104650500Y-127657000D01*
X104634000Y-127689000D01*
X104619000Y-127721500D01*
X104606000Y-127755500D01*
X104595500Y-127789500D01*
X104586500Y-127824500D01*
X104580000Y-127860000D01*
X104180000Y-127860000D01*
X104185500Y-127814500D01*
X104193000Y-127769000D01*
X104202500Y-127724000D01*
X104214000Y-127679500D01*
X104228000Y-127635500D01*
X104243500Y-127592500D01*
X104261500Y-127550000D01*
X104281000Y-127508500D01*
X104302500Y-127467500D01*
X104326000Y-127428000D01*
X104351000Y-127389500D01*
X104378000Y-127352500D01*
X104406500Y-127316500D01*
X104436500Y-127281500D01*
X104468500Y-127248500D01*
X104501500Y-127216500D01*
X104536500Y-127186500D01*
X104572500Y-127158000D01*
X104609500Y-127131000D01*
X104648000Y-127106000D01*
X104687500Y-127082500D01*
X104728500Y-127061000D01*
X104770000Y-127041500D01*
X104812500Y-127023500D01*
X104855500Y-127008000D01*
X104899500Y-126994000D01*
X104944000Y-126982500D01*
X104989000Y-126973000D01*
X105034500Y-126965500D01*
X105080000Y-126960000D01*
X105080000Y-127360000D01*
G37*
G36*
X105325500Y-126965500D02*
G01*
X105371000Y-126973000D01*
X105416000Y-126982500D01*
X105460500Y-126994000D01*
X105504500Y-127008000D01*
X105547500Y-127023500D01*
X105590000Y-127041500D01*
X105631500Y-127061000D01*
X105672500Y-127082500D01*
X105712000Y-127106000D01*
X105750500Y-127131000D01*
X105787500Y-127158000D01*
X105823500Y-127186500D01*
X105858500Y-127216500D01*
X105891500Y-127248500D01*
X105923500Y-127281500D01*
X105953500Y-127316500D01*
X105982000Y-127352500D01*
X106009000Y-127389500D01*
X106034000Y-127428000D01*
X106057500Y-127467500D01*
X106079000Y-127508500D01*
X106098500Y-127550000D01*
X106116500Y-127592500D01*
X106132000Y-127635500D01*
X106146000Y-127679500D01*
X106157500Y-127724000D01*
X106167000Y-127769000D01*
X106174500Y-127814500D01*
X106180000Y-127860000D01*
X105780000Y-127860000D01*
X105773500Y-127824500D01*
X105764500Y-127789500D01*
X105754000Y-127755500D01*
X105741000Y-127721500D01*
X105726000Y-127689000D01*
X105709500Y-127657000D01*
X105690500Y-127626500D01*
X105670000Y-127596500D01*
X105648000Y-127568500D01*
X105624000Y-127541500D01*
X105598500Y-127516000D01*
X105571500Y-127492000D01*
X105543500Y-127470000D01*
X105513500Y-127449500D01*
X105483000Y-127430500D01*
X105451000Y-127414000D01*
X105418500Y-127399000D01*
X105384500Y-127386000D01*
X105350500Y-127375500D01*
X105315500Y-127366500D01*
X105280000Y-127360000D01*
X105280000Y-126960000D01*
X105325500Y-126965500D01*
G37*
G36*
X104586500Y-128095500D02*
G01*
X104595500Y-128130500D01*
X104606000Y-128164500D01*
X104619000Y-128198500D01*
X104634000Y-128231000D01*
X104650500Y-128263000D01*
X104669500Y-128293500D01*
X104690000Y-128323500D01*
X104712000Y-128351500D01*
X104736000Y-128378500D01*
X104761500Y-128404000D01*
X104788500Y-128428000D01*
X104816500Y-128450000D01*
X104846500Y-128470500D01*
X104877000Y-128489500D01*
X104909000Y-128506000D01*
X104941500Y-128521000D01*
X104975500Y-128534000D01*
X105009500Y-128544500D01*
X105044500Y-128553500D01*
X105080000Y-128560000D01*
X105080000Y-128960000D01*
X105034500Y-128954500D01*
X104989000Y-128947000D01*
X104944000Y-128937500D01*
X104899500Y-128926000D01*
X104855500Y-128912000D01*
X104812500Y-128896500D01*
X104770000Y-128878500D01*
X104728500Y-128859000D01*
X104687500Y-128837500D01*
X104648000Y-128814000D01*
X104609500Y-128789000D01*
X104572500Y-128762000D01*
X104536500Y-128733500D01*
X104501500Y-128703500D01*
X104468500Y-128671500D01*
X104436500Y-128638500D01*
X104406500Y-128603500D01*
X104378000Y-128567500D01*
X104351000Y-128530500D01*
X104326000Y-128492000D01*
X104302500Y-128452500D01*
X104281000Y-128411500D01*
X104261500Y-128370000D01*
X104243500Y-128327500D01*
X104228000Y-128284500D01*
X104214000Y-128240500D01*
X104202500Y-128196000D01*
X104193000Y-128151000D01*
X104185500Y-128105500D01*
X104180000Y-128060000D01*
X104580000Y-128060000D01*
X104586500Y-128095500D01*
G37*
G36*
X106174500Y-128105500D02*
G01*
X106167000Y-128151000D01*
X106157500Y-128196000D01*
X106146000Y-128240500D01*
X106132000Y-128284500D01*
X106116500Y-128327500D01*
X106098500Y-128370000D01*
X106079000Y-128411500D01*
X106057500Y-128452500D01*
X106034000Y-128492000D01*
X106009000Y-128530500D01*
X105982000Y-128567500D01*
X105953500Y-128603500D01*
X105923500Y-128638500D01*
X105891500Y-128671500D01*
X105858500Y-128703500D01*
X105823500Y-128733500D01*
X105787500Y-128762000D01*
X105750500Y-128789000D01*
X105712000Y-128814000D01*
X105672500Y-128837500D01*
X105631500Y-128859000D01*
X105590000Y-128878500D01*
X105547500Y-128896500D01*
X105504500Y-128912000D01*
X105460500Y-128926000D01*
X105416000Y-128937500D01*
X105371000Y-128947000D01*
X105325500Y-128954500D01*
X105280000Y-128960000D01*
X105280000Y-128560000D01*
X105315500Y-128553500D01*
X105350500Y-128544500D01*
X105384500Y-128534000D01*
X105418500Y-128521000D01*
X105451000Y-128506000D01*
X105483000Y-128489500D01*
X105513500Y-128470500D01*
X105543500Y-128450000D01*
X105571500Y-128428000D01*
X105598500Y-128404000D01*
X105624000Y-128378500D01*
X105648000Y-128351500D01*
X105670000Y-128323500D01*
X105690500Y-128293500D01*
X105709500Y-128263000D01*
X105726000Y-128231000D01*
X105741000Y-128198500D01*
X105754000Y-128164500D01*
X105764500Y-128130500D01*
X105773500Y-128095500D01*
X105780000Y-128060000D01*
X106180000Y-128060000D01*
X106174500Y-128105500D01*
G37*
G04 #@! TO.C,U1*
G36*
X105080000Y-129900000D02*
G01*
X105044500Y-129906500D01*
X105009500Y-129915500D01*
X104975500Y-129926000D01*
X104941500Y-129939000D01*
X104909000Y-129954000D01*
X104877000Y-129970500D01*
X104846500Y-129989500D01*
X104816500Y-130010000D01*
X104788500Y-130032000D01*
X104761500Y-130056000D01*
X104736000Y-130081500D01*
X104712000Y-130108500D01*
X104690000Y-130136500D01*
X104669500Y-130166500D01*
X104650500Y-130197000D01*
X104634000Y-130229000D01*
X104619000Y-130261500D01*
X104606000Y-130295500D01*
X104595500Y-130329500D01*
X104586500Y-130364500D01*
X104580000Y-130400000D01*
X104180000Y-130400000D01*
X104185500Y-130354500D01*
X104193000Y-130309000D01*
X104202500Y-130264000D01*
X104214000Y-130219500D01*
X104228000Y-130175500D01*
X104243500Y-130132500D01*
X104261500Y-130090000D01*
X104281000Y-130048500D01*
X104302500Y-130007500D01*
X104326000Y-129968000D01*
X104351000Y-129929500D01*
X104378000Y-129892500D01*
X104406500Y-129856500D01*
X104436500Y-129821500D01*
X104468500Y-129788500D01*
X104501500Y-129756500D01*
X104536500Y-129726500D01*
X104572500Y-129698000D01*
X104609500Y-129671000D01*
X104648000Y-129646000D01*
X104687500Y-129622500D01*
X104728500Y-129601000D01*
X104770000Y-129581500D01*
X104812500Y-129563500D01*
X104855500Y-129548000D01*
X104899500Y-129534000D01*
X104944000Y-129522500D01*
X104989000Y-129513000D01*
X105034500Y-129505500D01*
X105080000Y-129500000D01*
X105080000Y-129900000D01*
G37*
G36*
X105325500Y-129505500D02*
G01*
X105371000Y-129513000D01*
X105416000Y-129522500D01*
X105460500Y-129534000D01*
X105504500Y-129548000D01*
X105547500Y-129563500D01*
X105590000Y-129581500D01*
X105631500Y-129601000D01*
X105672500Y-129622500D01*
X105712000Y-129646000D01*
X105750500Y-129671000D01*
X105787500Y-129698000D01*
X105823500Y-129726500D01*
X105858500Y-129756500D01*
X105891500Y-129788500D01*
X105923500Y-129821500D01*
X105953500Y-129856500D01*
X105982000Y-129892500D01*
X106009000Y-129929500D01*
X106034000Y-129968000D01*
X106057500Y-130007500D01*
X106079000Y-130048500D01*
X106098500Y-130090000D01*
X106116500Y-130132500D01*
X106132000Y-130175500D01*
X106146000Y-130219500D01*
X106157500Y-130264000D01*
X106167000Y-130309000D01*
X106174500Y-130354500D01*
X106180000Y-130400000D01*
X105780000Y-130400000D01*
X105773500Y-130364500D01*
X105764500Y-130329500D01*
X105754000Y-130295500D01*
X105741000Y-130261500D01*
X105726000Y-130229000D01*
X105709500Y-130197000D01*
X105690500Y-130166500D01*
X105670000Y-130136500D01*
X105648000Y-130108500D01*
X105624000Y-130081500D01*
X105598500Y-130056000D01*
X105571500Y-130032000D01*
X105543500Y-130010000D01*
X105513500Y-129989500D01*
X105483000Y-129970500D01*
X105451000Y-129954000D01*
X105418500Y-129939000D01*
X105384500Y-129926000D01*
X105350500Y-129915500D01*
X105315500Y-129906500D01*
X105280000Y-129900000D01*
X105280000Y-129500000D01*
X105325500Y-129505500D01*
G37*
G36*
X104586500Y-130635500D02*
G01*
X104595500Y-130670500D01*
X104606000Y-130704500D01*
X104619000Y-130738500D01*
X104634000Y-130771000D01*
X104650500Y-130803000D01*
X104669500Y-130833500D01*
X104690000Y-130863500D01*
X104712000Y-130891500D01*
X104736000Y-130918500D01*
X104761500Y-130944000D01*
X104788500Y-130968000D01*
X104816500Y-130990000D01*
X104846500Y-131010500D01*
X104877000Y-131029500D01*
X104909000Y-131046000D01*
X104941500Y-131061000D01*
X104975500Y-131074000D01*
X105009500Y-131084500D01*
X105044500Y-131093500D01*
X105080000Y-131100000D01*
X105080000Y-131500000D01*
X105034500Y-131494500D01*
X104989000Y-131487000D01*
X104944000Y-131477500D01*
X104899500Y-131466000D01*
X104855500Y-131452000D01*
X104812500Y-131436500D01*
X104770000Y-131418500D01*
X104728500Y-131399000D01*
X104687500Y-131377500D01*
X104648000Y-131354000D01*
X104609500Y-131329000D01*
X104572500Y-131302000D01*
X104536500Y-131273500D01*
X104501500Y-131243500D01*
X104468500Y-131211500D01*
X104436500Y-131178500D01*
X104406500Y-131143500D01*
X104378000Y-131107500D01*
X104351000Y-131070500D01*
X104326000Y-131032000D01*
X104302500Y-130992500D01*
X104281000Y-130951500D01*
X104261500Y-130910000D01*
X104243500Y-130867500D01*
X104228000Y-130824500D01*
X104214000Y-130780500D01*
X104202500Y-130736000D01*
X104193000Y-130691000D01*
X104185500Y-130645500D01*
X104180000Y-130600000D01*
X104580000Y-130600000D01*
X104586500Y-130635500D01*
G37*
G36*
X106174500Y-130645500D02*
G01*
X106167000Y-130691000D01*
X106157500Y-130736000D01*
X106146000Y-130780500D01*
X106132000Y-130824500D01*
X106116500Y-130867500D01*
X106098500Y-130910000D01*
X106079000Y-130951500D01*
X106057500Y-130992500D01*
X106034000Y-131032000D01*
X106009000Y-131070500D01*
X105982000Y-131107500D01*
X105953500Y-131143500D01*
X105923500Y-131178500D01*
X105891500Y-131211500D01*
X105858500Y-131243500D01*
X105823500Y-131273500D01*
X105787500Y-131302000D01*
X105750500Y-131329000D01*
X105712000Y-131354000D01*
X105672500Y-131377500D01*
X105631500Y-131399000D01*
X105590000Y-131418500D01*
X105547500Y-131436500D01*
X105504500Y-131452000D01*
X105460500Y-131466000D01*
X105416000Y-131477500D01*
X105371000Y-131487000D01*
X105325500Y-131494500D01*
X105280000Y-131500000D01*
X105280000Y-131100000D01*
X105315500Y-131093500D01*
X105350500Y-131084500D01*
X105384500Y-131074000D01*
X105418500Y-131061000D01*
X105451000Y-131046000D01*
X105483000Y-131029500D01*
X105513500Y-131010500D01*
X105543500Y-130990000D01*
X105571500Y-130968000D01*
X105598500Y-130944000D01*
X105624000Y-130918500D01*
X105648000Y-130891500D01*
X105670000Y-130863500D01*
X105690500Y-130833500D01*
X105709500Y-130803000D01*
X105726000Y-130771000D01*
X105741000Y-130738500D01*
X105754000Y-130704500D01*
X105764500Y-130670500D01*
X105773500Y-130635500D01*
X105780000Y-130600000D01*
X106180000Y-130600000D01*
X106174500Y-130645500D01*
G37*
G04 #@! TD*
M02*
