G04 #@! TF.GenerationSoftware,KiCad,Pcbnew,9.0.7*
G04 #@! TF.CreationDate,2026-02-24T22:04:59+01:00*
G04 #@! TF.ProjectId,QuiverAttachPCB,51756976-6572-4417-9474-616368504342,rev?*
G04 #@! TF.SameCoordinates,Original*
G04 #@! TF.FileFunction,Other,User*
%FSLAX46Y46*%
G04 Gerber Fmt 4.6, Leading zero omitted, Abs format (unit mm)*
G04 Created by KiCad (PCBNEW 9.0.7) date 2026-02-24 22:04:59*
%MOMM*%
%LPD*%
G01*
G04 APERTURE LIST*
%ADD10C,0.300000*%
%ADD11C,0.200000*%
G04 APERTURE END LIST*
D10*
X99571429Y-145521185D02*
X99642857Y-145449757D01*
X99642857Y-145449757D02*
X99785715Y-145378328D01*
X99785715Y-145378328D02*
X100142857Y-145378328D01*
X100142857Y-145378328D02*
X100285715Y-145449757D01*
X100285715Y-145449757D02*
X100357143Y-145521185D01*
X100357143Y-145521185D02*
X100428572Y-145664042D01*
X100428572Y-145664042D02*
X100428572Y-145806900D01*
X100428572Y-145806900D02*
X100357143Y-146021185D01*
X100357143Y-146021185D02*
X99500000Y-146878328D01*
X99500000Y-146878328D02*
X100428572Y-146878328D01*
D11*
X99000000Y-137500000D02*
X99000000Y-148586420D01*
X101000000Y-148586420D02*
X101000000Y-137500000D01*
X99000000Y-148000000D02*
X101000000Y-148000000D01*
X99000000Y-148000000D02*
X100126504Y-147413579D01*
X99000000Y-148000000D02*
X100126504Y-148586421D01*
X101000000Y-148000000D02*
X99873496Y-148586421D01*
X101000000Y-148000000D02*
X99873496Y-147413579D01*
D10*
X126521185Y-133142856D02*
X126449757Y-133285713D01*
X126449757Y-133285713D02*
X126378328Y-133357142D01*
X126378328Y-133357142D02*
X126235471Y-133428570D01*
X126235471Y-133428570D02*
X126164042Y-133428570D01*
X126164042Y-133428570D02*
X126021185Y-133357142D01*
X126021185Y-133357142D02*
X125949757Y-133285713D01*
X125949757Y-133285713D02*
X125878328Y-133142856D01*
X125878328Y-133142856D02*
X125878328Y-132857142D01*
X125878328Y-132857142D02*
X125949757Y-132714285D01*
X125949757Y-132714285D02*
X126021185Y-132642856D01*
X126021185Y-132642856D02*
X126164042Y-132571427D01*
X126164042Y-132571427D02*
X126235471Y-132571427D01*
X126235471Y-132571427D02*
X126378328Y-132642856D01*
X126378328Y-132642856D02*
X126449757Y-132714285D01*
X126449757Y-132714285D02*
X126521185Y-132857142D01*
X126521185Y-132857142D02*
X126521185Y-133142856D01*
X126521185Y-133142856D02*
X126592614Y-133285713D01*
X126592614Y-133285713D02*
X126664042Y-133357142D01*
X126664042Y-133357142D02*
X126806900Y-133428570D01*
X126806900Y-133428570D02*
X127092614Y-133428570D01*
X127092614Y-133428570D02*
X127235471Y-133357142D01*
X127235471Y-133357142D02*
X127306900Y-133285713D01*
X127306900Y-133285713D02*
X127378328Y-133142856D01*
X127378328Y-133142856D02*
X127378328Y-132857142D01*
X127378328Y-132857142D02*
X127306900Y-132714285D01*
X127306900Y-132714285D02*
X127235471Y-132642856D01*
X127235471Y-132642856D02*
X127092614Y-132571427D01*
X127092614Y-132571427D02*
X126806900Y-132571427D01*
X126806900Y-132571427D02*
X126664042Y-132642856D01*
X126664042Y-132642856D02*
X126592614Y-132714285D01*
X126592614Y-132714285D02*
X126521185Y-132857142D01*
D11*
X120000000Y-137000000D02*
X129086420Y-137000000D01*
X129086420Y-129000000D02*
X120000000Y-129000000D01*
X128500000Y-137000000D02*
X128500000Y-129000000D01*
X128500000Y-137000000D02*
X127913579Y-135873496D01*
X128500000Y-137000000D02*
X129086421Y-135873496D01*
X128500000Y-129000000D02*
X129086421Y-130126504D01*
X128500000Y-129000000D02*
X127913579Y-130126504D01*
D10*
X133128328Y-134357141D02*
X133128328Y-135214284D01*
X133128328Y-134785713D02*
X131628328Y-134785713D01*
X131628328Y-134785713D02*
X131842614Y-134928570D01*
X131842614Y-134928570D02*
X131985471Y-135071427D01*
X131985471Y-135071427D02*
X132056900Y-135214284D01*
X131628328Y-132999999D02*
X131628328Y-133714285D01*
X131628328Y-133714285D02*
X132342614Y-133785713D01*
X132342614Y-133785713D02*
X132271185Y-133714285D01*
X132271185Y-133714285D02*
X132199757Y-133571428D01*
X132199757Y-133571428D02*
X132199757Y-133214285D01*
X132199757Y-133214285D02*
X132271185Y-133071428D01*
X132271185Y-133071428D02*
X132342614Y-132999999D01*
X132342614Y-132999999D02*
X132485471Y-132928570D01*
X132485471Y-132928570D02*
X132842614Y-132928570D01*
X132842614Y-132928570D02*
X132985471Y-132999999D01*
X132985471Y-132999999D02*
X133056900Y-133071428D01*
X133056900Y-133071428D02*
X133128328Y-133214285D01*
X133128328Y-133214285D02*
X133128328Y-133571428D01*
X133128328Y-133571428D02*
X133056900Y-133714285D01*
X133056900Y-133714285D02*
X132985471Y-133785713D01*
X133056900Y-132214285D02*
X133128328Y-132214285D01*
X133128328Y-132214285D02*
X133271185Y-132285714D01*
X133271185Y-132285714D02*
X133342614Y-132357142D01*
X132271185Y-131357142D02*
X132199757Y-131499999D01*
X132199757Y-131499999D02*
X132128328Y-131571428D01*
X132128328Y-131571428D02*
X131985471Y-131642856D01*
X131985471Y-131642856D02*
X131914042Y-131642856D01*
X131914042Y-131642856D02*
X131771185Y-131571428D01*
X131771185Y-131571428D02*
X131699757Y-131499999D01*
X131699757Y-131499999D02*
X131628328Y-131357142D01*
X131628328Y-131357142D02*
X131628328Y-131071428D01*
X131628328Y-131071428D02*
X131699757Y-130928571D01*
X131699757Y-130928571D02*
X131771185Y-130857142D01*
X131771185Y-130857142D02*
X131914042Y-130785713D01*
X131914042Y-130785713D02*
X131985471Y-130785713D01*
X131985471Y-130785713D02*
X132128328Y-130857142D01*
X132128328Y-130857142D02*
X132199757Y-130928571D01*
X132199757Y-130928571D02*
X132271185Y-131071428D01*
X132271185Y-131071428D02*
X132271185Y-131357142D01*
X132271185Y-131357142D02*
X132342614Y-131499999D01*
X132342614Y-131499999D02*
X132414042Y-131571428D01*
X132414042Y-131571428D02*
X132556900Y-131642856D01*
X132556900Y-131642856D02*
X132842614Y-131642856D01*
X132842614Y-131642856D02*
X132985471Y-131571428D01*
X132985471Y-131571428D02*
X133056900Y-131499999D01*
X133056900Y-131499999D02*
X133128328Y-131357142D01*
X133128328Y-131357142D02*
X133128328Y-131071428D01*
X133128328Y-131071428D02*
X133056900Y-130928571D01*
X133056900Y-130928571D02*
X132985471Y-130857142D01*
X132985471Y-130857142D02*
X132842614Y-130785713D01*
X132842614Y-130785713D02*
X132556900Y-130785713D01*
X132556900Y-130785713D02*
X132414042Y-130857142D01*
X132414042Y-130857142D02*
X132342614Y-130928571D01*
X132342614Y-130928571D02*
X132271185Y-131071428D01*
D11*
X120250000Y-140900000D02*
X134836420Y-140900000D01*
X134836420Y-125100000D02*
X120250000Y-125100000D01*
X134250000Y-140900000D02*
X134250000Y-125100000D01*
X134250000Y-140900000D02*
X133663579Y-139773496D01*
X134250000Y-140900000D02*
X134836421Y-139773496D01*
X134250000Y-125100000D02*
X134836421Y-126226504D01*
X134250000Y-125100000D02*
X133663579Y-126226504D01*
D10*
X92128328Y-128514285D02*
X92128328Y-129228571D01*
X92128328Y-129228571D02*
X92842614Y-129299999D01*
X92842614Y-129299999D02*
X92771185Y-129228571D01*
X92771185Y-129228571D02*
X92699757Y-129085714D01*
X92699757Y-129085714D02*
X92699757Y-128728571D01*
X92699757Y-128728571D02*
X92771185Y-128585714D01*
X92771185Y-128585714D02*
X92842614Y-128514285D01*
X92842614Y-128514285D02*
X92985471Y-128442856D01*
X92985471Y-128442856D02*
X93342614Y-128442856D01*
X93342614Y-128442856D02*
X93485471Y-128514285D01*
X93485471Y-128514285D02*
X93556900Y-128585714D01*
X93556900Y-128585714D02*
X93628328Y-128728571D01*
X93628328Y-128728571D02*
X93628328Y-129085714D01*
X93628328Y-129085714D02*
X93556900Y-129228571D01*
X93556900Y-129228571D02*
X93485471Y-129299999D01*
X93556900Y-127728571D02*
X93628328Y-127728571D01*
X93628328Y-127728571D02*
X93771185Y-127800000D01*
X93771185Y-127800000D02*
X93842614Y-127871428D01*
X92628328Y-126442857D02*
X93628328Y-126442857D01*
X92056900Y-126799999D02*
X93128328Y-127157142D01*
X93128328Y-127157142D02*
X93128328Y-126228571D01*
D11*
X105250000Y-130500000D02*
X94163580Y-130500000D01*
X94163580Y-125100000D02*
X104750000Y-125100000D01*
X94750000Y-130500000D02*
X94750000Y-125100000D01*
X94750000Y-130500000D02*
X94163579Y-129373496D01*
X94750000Y-130500000D02*
X95336421Y-129373496D01*
X94750000Y-125100000D02*
X95336421Y-126226504D01*
X94750000Y-125100000D02*
X94163579Y-126226504D01*
D10*
X107785715Y-110521185D02*
X107857143Y-110449757D01*
X107857143Y-110449757D02*
X108000001Y-110378328D01*
X108000001Y-110378328D02*
X108357143Y-110378328D01*
X108357143Y-110378328D02*
X108500001Y-110449757D01*
X108500001Y-110449757D02*
X108571429Y-110521185D01*
X108571429Y-110521185D02*
X108642858Y-110664042D01*
X108642858Y-110664042D02*
X108642858Y-110806900D01*
X108642858Y-110806900D02*
X108571429Y-111021185D01*
X108571429Y-111021185D02*
X107714286Y-111878328D01*
X107714286Y-111878328D02*
X108642858Y-111878328D01*
X109142857Y-110378328D02*
X110071429Y-110378328D01*
X110071429Y-110378328D02*
X109571429Y-110949757D01*
X109571429Y-110949757D02*
X109785714Y-110949757D01*
X109785714Y-110949757D02*
X109928572Y-111021185D01*
X109928572Y-111021185D02*
X110000000Y-111092614D01*
X110000000Y-111092614D02*
X110071429Y-111235471D01*
X110071429Y-111235471D02*
X110071429Y-111592614D01*
X110071429Y-111592614D02*
X110000000Y-111735471D01*
X110000000Y-111735471D02*
X109928572Y-111806900D01*
X109928572Y-111806900D02*
X109785714Y-111878328D01*
X109785714Y-111878328D02*
X109357143Y-111878328D01*
X109357143Y-111878328D02*
X109214286Y-111806900D01*
X109214286Y-111806900D02*
X109142857Y-111735471D01*
X110785714Y-111806900D02*
X110785714Y-111878328D01*
X110785714Y-111878328D02*
X110714285Y-112021185D01*
X110714285Y-112021185D02*
X110642857Y-112092614D01*
X112142857Y-110378328D02*
X111428571Y-110378328D01*
X111428571Y-110378328D02*
X111357143Y-111092614D01*
X111357143Y-111092614D02*
X111428571Y-111021185D01*
X111428571Y-111021185D02*
X111571429Y-110949757D01*
X111571429Y-110949757D02*
X111928571Y-110949757D01*
X111928571Y-110949757D02*
X112071429Y-111021185D01*
X112071429Y-111021185D02*
X112142857Y-111092614D01*
X112142857Y-111092614D02*
X112214286Y-111235471D01*
X112214286Y-111235471D02*
X112214286Y-111592614D01*
X112214286Y-111592614D02*
X112142857Y-111735471D01*
X112142857Y-111735471D02*
X112071429Y-111806900D01*
X112071429Y-111806900D02*
X111928571Y-111878328D01*
X111928571Y-111878328D02*
X111571429Y-111878328D01*
X111571429Y-111878328D02*
X111428571Y-111806900D01*
X111428571Y-111806900D02*
X111357143Y-111735471D01*
D11*
X98250000Y-124500000D02*
X98250000Y-112413580D01*
X121750000Y-112413580D02*
X121750000Y-124750000D01*
X98250000Y-113000000D02*
X121750000Y-113000000D01*
X98250000Y-113000000D02*
X99376504Y-112413579D01*
X98250000Y-113000000D02*
X99376504Y-113586421D01*
X121750000Y-113000000D02*
X120623496Y-113586421D01*
X121750000Y-113000000D02*
X120623496Y-112413579D01*
D10*
X91528328Y-138914285D02*
X91528328Y-139628571D01*
X91528328Y-139628571D02*
X92242614Y-139699999D01*
X92242614Y-139699999D02*
X92171185Y-139628571D01*
X92171185Y-139628571D02*
X92099757Y-139485714D01*
X92099757Y-139485714D02*
X92099757Y-139128571D01*
X92099757Y-139128571D02*
X92171185Y-138985714D01*
X92171185Y-138985714D02*
X92242614Y-138914285D01*
X92242614Y-138914285D02*
X92385471Y-138842856D01*
X92385471Y-138842856D02*
X92742614Y-138842856D01*
X92742614Y-138842856D02*
X92885471Y-138914285D01*
X92885471Y-138914285D02*
X92956900Y-138985714D01*
X92956900Y-138985714D02*
X93028328Y-139128571D01*
X93028328Y-139128571D02*
X93028328Y-139485714D01*
X93028328Y-139485714D02*
X92956900Y-139628571D01*
X92956900Y-139628571D02*
X92885471Y-139699999D01*
X92956900Y-138128571D02*
X93028328Y-138128571D01*
X93028328Y-138128571D02*
X93171185Y-138200000D01*
X93171185Y-138200000D02*
X93242614Y-138271428D01*
X92028328Y-136842857D02*
X93028328Y-136842857D01*
X91456900Y-137199999D02*
X92528328Y-137557142D01*
X92528328Y-137557142D02*
X92528328Y-136628571D01*
D11*
X102400000Y-140900000D02*
X93563580Y-140900000D01*
X93563580Y-135500000D02*
X104750000Y-135500000D01*
X94150000Y-140900000D02*
X94150000Y-135500000D01*
X94150000Y-140900000D02*
X93563579Y-139773496D01*
X94150000Y-140900000D02*
X94736421Y-139773496D01*
X94150000Y-135500000D02*
X94736421Y-136626504D01*
X94150000Y-135500000D02*
X93563579Y-136626504D01*
D10*
X108857143Y-118521185D02*
X108928571Y-118449757D01*
X108928571Y-118449757D02*
X109071429Y-118378328D01*
X109071429Y-118378328D02*
X109428571Y-118378328D01*
X109428571Y-118378328D02*
X109571429Y-118449757D01*
X109571429Y-118449757D02*
X109642857Y-118521185D01*
X109642857Y-118521185D02*
X109714286Y-118664042D01*
X109714286Y-118664042D02*
X109714286Y-118806900D01*
X109714286Y-118806900D02*
X109642857Y-119021185D01*
X109642857Y-119021185D02*
X108785714Y-119878328D01*
X108785714Y-119878328D02*
X109714286Y-119878328D01*
X110642857Y-118378328D02*
X110785714Y-118378328D01*
X110785714Y-118378328D02*
X110928571Y-118449757D01*
X110928571Y-118449757D02*
X111000000Y-118521185D01*
X111000000Y-118521185D02*
X111071428Y-118664042D01*
X111071428Y-118664042D02*
X111142857Y-118949757D01*
X111142857Y-118949757D02*
X111142857Y-119306900D01*
X111142857Y-119306900D02*
X111071428Y-119592614D01*
X111071428Y-119592614D02*
X111000000Y-119735471D01*
X111000000Y-119735471D02*
X110928571Y-119806900D01*
X110928571Y-119806900D02*
X110785714Y-119878328D01*
X110785714Y-119878328D02*
X110642857Y-119878328D01*
X110642857Y-119878328D02*
X110500000Y-119806900D01*
X110500000Y-119806900D02*
X110428571Y-119735471D01*
X110428571Y-119735471D02*
X110357142Y-119592614D01*
X110357142Y-119592614D02*
X110285714Y-119306900D01*
X110285714Y-119306900D02*
X110285714Y-118949757D01*
X110285714Y-118949757D02*
X110357142Y-118664042D01*
X110357142Y-118664042D02*
X110428571Y-118521185D01*
X110428571Y-118521185D02*
X110500000Y-118449757D01*
X110500000Y-118449757D02*
X110642857Y-118378328D01*
D11*
X120000000Y-129000000D02*
X120000000Y-120413580D01*
X100000000Y-120413580D02*
X100000000Y-129000000D01*
X120000000Y-121000000D02*
X100000000Y-121000000D01*
X120000000Y-121000000D02*
X118873496Y-121586421D01*
X120000000Y-121000000D02*
X118873496Y-120413579D01*
X100000000Y-121000000D02*
X101126504Y-120413579D01*
X100000000Y-121000000D02*
X101126504Y-121586421D01*
M02*
