G04 #@! TF.GenerationSoftware,KiCad,Pcbnew,9.0.7*
G04 #@! TF.CreationDate,2026-02-24T22:04:58+01:00*
G04 #@! TF.ProjectId,QuiverAttachPCB,51756976-6572-4417-9474-616368504342,rev?*
G04 #@! TF.SameCoordinates,Original*
G04 #@! TF.FileFunction,Legend,Bot*
G04 #@! TF.FilePolarity,Positive*
%FSLAX46Y46*%
G04 Gerber Fmt 4.6, Leading zero omitted, Abs format (unit mm)*
G04 Created by KiCad (PCBNEW 9.0.7) date 2026-02-24 22:04:58*
%MOMM*%
%LPD*%
G01*
G04 APERTURE LIST*
%ADD10C,0.300000*%
%ADD11C,0.187500*%
%ADD12C,0.150000*%
%ADD13C,0.152400*%
%ADD14C,0.508000*%
%ADD15C,0.600000*%
%ADD16O,0.812800X2.000000*%
%ADD17O,0.812800X1.450000*%
%ADD18R,1.092200X4.902200*%
G04 APERTURE END LIST*
D10*
X119300828Y-131011653D02*
X120300828Y-131368796D01*
X120300828Y-131368796D02*
X119300828Y-131725939D01*
X120300828Y-133083082D02*
X120300828Y-132225939D01*
X120300828Y-132654510D02*
X118800828Y-132654510D01*
X118800828Y-132654510D02*
X119015114Y-132511653D01*
X119015114Y-132511653D02*
X119157971Y-132368796D01*
X119157971Y-132368796D02*
X119229400Y-132225939D01*
X120157971Y-133725938D02*
X120229400Y-133797367D01*
X120229400Y-133797367D02*
X120300828Y-133725938D01*
X120300828Y-133725938D02*
X120229400Y-133654510D01*
X120229400Y-133654510D02*
X120157971Y-133725938D01*
X120157971Y-133725938D02*
X120300828Y-133725938D01*
X119300828Y-135083082D02*
X120300828Y-135083082D01*
X118729400Y-134725939D02*
X119800828Y-134368796D01*
X119800828Y-134368796D02*
X119800828Y-135297367D01*
D11*
X117168535Y-131525735D02*
X117130440Y-131563831D01*
X117130440Y-131563831D02*
X117092345Y-131640021D01*
X117092345Y-131640021D02*
X117092345Y-131830497D01*
X117092345Y-131830497D02*
X117130440Y-131906688D01*
X117130440Y-131906688D02*
X117168535Y-131944783D01*
X117168535Y-131944783D02*
X117244726Y-131982878D01*
X117244726Y-131982878D02*
X117320916Y-131982878D01*
X117320916Y-131982878D02*
X117435202Y-131944783D01*
X117435202Y-131944783D02*
X117892345Y-131487640D01*
X117892345Y-131487640D02*
X117892345Y-131982878D01*
X117092345Y-132478117D02*
X117092345Y-132554307D01*
X117092345Y-132554307D02*
X117130440Y-132630498D01*
X117130440Y-132630498D02*
X117168535Y-132668593D01*
X117168535Y-132668593D02*
X117244726Y-132706688D01*
X117244726Y-132706688D02*
X117397107Y-132744783D01*
X117397107Y-132744783D02*
X117587583Y-132744783D01*
X117587583Y-132744783D02*
X117739964Y-132706688D01*
X117739964Y-132706688D02*
X117816154Y-132668593D01*
X117816154Y-132668593D02*
X117854250Y-132630498D01*
X117854250Y-132630498D02*
X117892345Y-132554307D01*
X117892345Y-132554307D02*
X117892345Y-132478117D01*
X117892345Y-132478117D02*
X117854250Y-132401926D01*
X117854250Y-132401926D02*
X117816154Y-132363831D01*
X117816154Y-132363831D02*
X117739964Y-132325736D01*
X117739964Y-132325736D02*
X117587583Y-132287640D01*
X117587583Y-132287640D02*
X117397107Y-132287640D01*
X117397107Y-132287640D02*
X117244726Y-132325736D01*
X117244726Y-132325736D02*
X117168535Y-132363831D01*
X117168535Y-132363831D02*
X117130440Y-132401926D01*
X117130440Y-132401926D02*
X117092345Y-132478117D01*
X117168535Y-133049545D02*
X117130440Y-133087641D01*
X117130440Y-133087641D02*
X117092345Y-133163831D01*
X117092345Y-133163831D02*
X117092345Y-133354307D01*
X117092345Y-133354307D02*
X117130440Y-133430498D01*
X117130440Y-133430498D02*
X117168535Y-133468593D01*
X117168535Y-133468593D02*
X117244726Y-133506688D01*
X117244726Y-133506688D02*
X117320916Y-133506688D01*
X117320916Y-133506688D02*
X117435202Y-133468593D01*
X117435202Y-133468593D02*
X117892345Y-133011450D01*
X117892345Y-133011450D02*
X117892345Y-133506688D01*
X117092345Y-134192403D02*
X117092345Y-134040022D01*
X117092345Y-134040022D02*
X117130440Y-133963831D01*
X117130440Y-133963831D02*
X117168535Y-133925736D01*
X117168535Y-133925736D02*
X117282821Y-133849546D01*
X117282821Y-133849546D02*
X117435202Y-133811450D01*
X117435202Y-133811450D02*
X117739964Y-133811450D01*
X117739964Y-133811450D02*
X117816154Y-133849546D01*
X117816154Y-133849546D02*
X117854250Y-133887641D01*
X117854250Y-133887641D02*
X117892345Y-133963831D01*
X117892345Y-133963831D02*
X117892345Y-134116212D01*
X117892345Y-134116212D02*
X117854250Y-134192403D01*
X117854250Y-134192403D02*
X117816154Y-134230498D01*
X117816154Y-134230498D02*
X117739964Y-134268593D01*
X117739964Y-134268593D02*
X117549488Y-134268593D01*
X117549488Y-134268593D02*
X117473297Y-134230498D01*
X117473297Y-134230498D02*
X117435202Y-134192403D01*
X117435202Y-134192403D02*
X117397107Y-134116212D01*
X117397107Y-134116212D02*
X117397107Y-133963831D01*
X117397107Y-133963831D02*
X117435202Y-133887641D01*
X117435202Y-133887641D02*
X117473297Y-133849546D01*
X117473297Y-133849546D02*
X117549488Y-133811450D01*
X117587583Y-134611451D02*
X117587583Y-135220975D01*
X117092345Y-135754308D02*
X117092345Y-135830498D01*
X117092345Y-135830498D02*
X117130440Y-135906689D01*
X117130440Y-135906689D02*
X117168535Y-135944784D01*
X117168535Y-135944784D02*
X117244726Y-135982879D01*
X117244726Y-135982879D02*
X117397107Y-136020974D01*
X117397107Y-136020974D02*
X117587583Y-136020974D01*
X117587583Y-136020974D02*
X117739964Y-135982879D01*
X117739964Y-135982879D02*
X117816154Y-135944784D01*
X117816154Y-135944784D02*
X117854250Y-135906689D01*
X117854250Y-135906689D02*
X117892345Y-135830498D01*
X117892345Y-135830498D02*
X117892345Y-135754308D01*
X117892345Y-135754308D02*
X117854250Y-135678117D01*
X117854250Y-135678117D02*
X117816154Y-135640022D01*
X117816154Y-135640022D02*
X117739964Y-135601927D01*
X117739964Y-135601927D02*
X117587583Y-135563831D01*
X117587583Y-135563831D02*
X117397107Y-135563831D01*
X117397107Y-135563831D02*
X117244726Y-135601927D01*
X117244726Y-135601927D02*
X117168535Y-135640022D01*
X117168535Y-135640022D02*
X117130440Y-135678117D01*
X117130440Y-135678117D02*
X117092345Y-135754308D01*
X117168535Y-136325736D02*
X117130440Y-136363832D01*
X117130440Y-136363832D02*
X117092345Y-136440022D01*
X117092345Y-136440022D02*
X117092345Y-136630498D01*
X117092345Y-136630498D02*
X117130440Y-136706689D01*
X117130440Y-136706689D02*
X117168535Y-136744784D01*
X117168535Y-136744784D02*
X117244726Y-136782879D01*
X117244726Y-136782879D02*
X117320916Y-136782879D01*
X117320916Y-136782879D02*
X117435202Y-136744784D01*
X117435202Y-136744784D02*
X117892345Y-136287641D01*
X117892345Y-136287641D02*
X117892345Y-136782879D01*
X117587583Y-137125737D02*
X117587583Y-137735261D01*
X117168535Y-138078117D02*
X117130440Y-138116213D01*
X117130440Y-138116213D02*
X117092345Y-138192403D01*
X117092345Y-138192403D02*
X117092345Y-138382879D01*
X117092345Y-138382879D02*
X117130440Y-138459070D01*
X117130440Y-138459070D02*
X117168535Y-138497165D01*
X117168535Y-138497165D02*
X117244726Y-138535260D01*
X117244726Y-138535260D02*
X117320916Y-138535260D01*
X117320916Y-138535260D02*
X117435202Y-138497165D01*
X117435202Y-138497165D02*
X117892345Y-138040022D01*
X117892345Y-138040022D02*
X117892345Y-138535260D01*
X117359011Y-139220975D02*
X117892345Y-139220975D01*
X117054250Y-139030499D02*
X117625678Y-138840022D01*
X117625678Y-138840022D02*
X117625678Y-139335261D01*
D10*
X115266917Y-126672257D02*
X114552632Y-126672257D01*
X115409774Y-127100828D02*
X114909774Y-125600828D01*
X114909774Y-125600828D02*
X114409774Y-127100828D01*
X113909775Y-127100828D02*
X113909775Y-126100828D01*
X113909775Y-126386542D02*
X113838346Y-126243685D01*
X113838346Y-126243685D02*
X113766918Y-126172257D01*
X113766918Y-126172257D02*
X113624060Y-126100828D01*
X113624060Y-126100828D02*
X113481203Y-126100828D01*
X112981204Y-127100828D02*
X112981204Y-126100828D01*
X112981204Y-126386542D02*
X112909775Y-126243685D01*
X112909775Y-126243685D02*
X112838347Y-126172257D01*
X112838347Y-126172257D02*
X112695489Y-126100828D01*
X112695489Y-126100828D02*
X112552632Y-126100828D01*
X111838347Y-127100828D02*
X111981204Y-127029400D01*
X111981204Y-127029400D02*
X112052633Y-126957971D01*
X112052633Y-126957971D02*
X112124061Y-126815114D01*
X112124061Y-126815114D02*
X112124061Y-126386542D01*
X112124061Y-126386542D02*
X112052633Y-126243685D01*
X112052633Y-126243685D02*
X111981204Y-126172257D01*
X111981204Y-126172257D02*
X111838347Y-126100828D01*
X111838347Y-126100828D02*
X111624061Y-126100828D01*
X111624061Y-126100828D02*
X111481204Y-126172257D01*
X111481204Y-126172257D02*
X111409776Y-126243685D01*
X111409776Y-126243685D02*
X111338347Y-126386542D01*
X111338347Y-126386542D02*
X111338347Y-126815114D01*
X111338347Y-126815114D02*
X111409776Y-126957971D01*
X111409776Y-126957971D02*
X111481204Y-127029400D01*
X111481204Y-127029400D02*
X111624061Y-127100828D01*
X111624061Y-127100828D02*
X111838347Y-127100828D01*
X110838347Y-126100828D02*
X110552633Y-127100828D01*
X110552633Y-127100828D02*
X110266918Y-126386542D01*
X110266918Y-126386542D02*
X109981204Y-127100828D01*
X109981204Y-127100828D02*
X109695490Y-126100828D01*
X108052632Y-126672257D02*
X107338347Y-126672257D01*
X108195489Y-127100828D02*
X107695489Y-125600828D01*
X107695489Y-125600828D02*
X107195489Y-127100828D01*
X106695490Y-127100828D02*
X106695490Y-126100828D01*
X106695490Y-125600828D02*
X106766918Y-125672257D01*
X106766918Y-125672257D02*
X106695490Y-125743685D01*
X106695490Y-125743685D02*
X106624061Y-125672257D01*
X106624061Y-125672257D02*
X106695490Y-125600828D01*
X106695490Y-125600828D02*
X106695490Y-125743685D01*
X105981204Y-127100828D02*
X105981204Y-126100828D01*
X105981204Y-126386542D02*
X105909775Y-126243685D01*
X105909775Y-126243685D02*
X105838347Y-126172257D01*
X105838347Y-126172257D02*
X105695489Y-126100828D01*
X105695489Y-126100828D02*
X105552632Y-126100828D01*
D12*
X110333333Y-132451118D02*
X110333333Y-133165403D01*
X110333333Y-133165403D02*
X110380952Y-133308260D01*
X110380952Y-133308260D02*
X110476190Y-133403499D01*
X110476190Y-133403499D02*
X110619047Y-133451118D01*
X110619047Y-133451118D02*
X110714285Y-133451118D01*
X109333333Y-133451118D02*
X109904761Y-133451118D01*
X109619047Y-133451118D02*
X109619047Y-132451118D01*
X109619047Y-132451118D02*
X109714285Y-132593975D01*
X109714285Y-132593975D02*
X109809523Y-132689213D01*
X109809523Y-132689213D02*
X109904761Y-132736832D01*
D13*
G04 #@! TO.C,J1*
X103675400Y-128669300D02*
X106135860Y-128669300D01*
X103675400Y-129708677D02*
X103675400Y-128669300D01*
X103675400Y-137330700D02*
X103675400Y-134883670D01*
X106135860Y-137330700D02*
X103675400Y-137330700D01*
X113864140Y-128669300D02*
X116324600Y-128669300D01*
X116324600Y-128669300D02*
X116324600Y-129708677D01*
X116324600Y-134883670D02*
X116324600Y-137330700D01*
X116324600Y-137330700D02*
X113864140Y-137330700D01*
D14*
X103421400Y-128646298D02*
G75*
G02*
X102659400Y-128646298I-381000J0D01*
G01*
X102659400Y-128646298D02*
G75*
G02*
X103421400Y-128646298I381000J0D01*
G01*
G04 #@! TD*
%LPC*%
D15*
G04 #@! TO.C,U10*
X115340000Y-127960000D03*
G04 #@! TD*
G04 #@! TO.C,U9*
X115340000Y-130500000D03*
G04 #@! TD*
G04 #@! TO.C,U8*
X112800000Y-127960000D03*
G04 #@! TD*
G04 #@! TO.C,U7*
X112800000Y-130500000D03*
G04 #@! TD*
G04 #@! TO.C,U6*
X110260000Y-127960000D03*
G04 #@! TD*
G04 #@! TO.C,U5*
X110260000Y-130500000D03*
G04 #@! TD*
G04 #@! TO.C,U4*
X107720000Y-127960000D03*
G04 #@! TD*
G04 #@! TO.C,U3*
X107720000Y-130500000D03*
G04 #@! TD*
G04 #@! TO.C,U2*
X105180000Y-127960000D03*
G04 #@! TD*
G04 #@! TO.C,U1*
X105180000Y-130500000D03*
G04 #@! TD*
D16*
G04 #@! TO.C,J1*
X106875000Y-128500000D03*
X106875000Y-137500000D03*
D17*
X108100000Y-128775000D03*
D16*
X108125000Y-137500000D03*
X109375000Y-128500000D03*
X109375000Y-137500000D03*
D17*
X110625000Y-128775000D03*
D16*
X110625000Y-137500000D03*
X111875000Y-128500000D03*
X111875000Y-137500000D03*
D17*
X113125000Y-128775000D03*
D16*
X113125000Y-137500000D03*
D18*
X115475000Y-132296174D03*
X104525000Y-132296174D03*
G04 #@! TD*
%LPD*%
M02*
