G04 #@! TF.GenerationSoftware,KiCad,Pcbnew,9.0.7*
G04 #@! TF.CreationDate,2026-02-24T22:04:58+01:00*
G04 #@! TF.ProjectId,QuiverAttachPCB,51756976-6572-4417-9474-616368504342,rev?*
G04 #@! TF.SameCoordinates,Original*
G04 #@! TF.FileFunction,AssemblyDrawing,Bot*
%FSLAX46Y46*%
G04 Gerber Fmt 4.6, Leading zero omitted, Abs format (unit mm)*
G04 Created by KiCad (PCBNEW 9.0.7) date 2026-02-24 22:04:58*
%MOMM*%
%LPD*%
G01*
G04 APERTURE LIST*
%ADD10C,0.150000*%
%ADD11C,0.025400*%
%ADD12C,0.508000*%
G04 APERTURE END LIST*
D10*
X114571428Y-132546356D02*
X114523809Y-132498737D01*
X114523809Y-132498737D02*
X114428571Y-132451118D01*
X114428571Y-132451118D02*
X114190476Y-132451118D01*
X114190476Y-132451118D02*
X114095238Y-132498737D01*
X114095238Y-132498737D02*
X114047619Y-132546356D01*
X114047619Y-132546356D02*
X114000000Y-132641594D01*
X114000000Y-132641594D02*
X114000000Y-132736832D01*
X114000000Y-132736832D02*
X114047619Y-132879689D01*
X114047619Y-132879689D02*
X114619047Y-133451118D01*
X114619047Y-133451118D02*
X114000000Y-133451118D01*
X113380952Y-132451118D02*
X113285714Y-132451118D01*
X113285714Y-132451118D02*
X113190476Y-132498737D01*
X113190476Y-132498737D02*
X113142857Y-132546356D01*
X113142857Y-132546356D02*
X113095238Y-132641594D01*
X113095238Y-132641594D02*
X113047619Y-132832070D01*
X113047619Y-132832070D02*
X113047619Y-133070165D01*
X113047619Y-133070165D02*
X113095238Y-133260641D01*
X113095238Y-133260641D02*
X113142857Y-133355879D01*
X113142857Y-133355879D02*
X113190476Y-133403499D01*
X113190476Y-133403499D02*
X113285714Y-133451118D01*
X113285714Y-133451118D02*
X113380952Y-133451118D01*
X113380952Y-133451118D02*
X113476190Y-133403499D01*
X113476190Y-133403499D02*
X113523809Y-133355879D01*
X113523809Y-133355879D02*
X113571428Y-133260641D01*
X113571428Y-133260641D02*
X113619047Y-133070165D01*
X113619047Y-133070165D02*
X113619047Y-132832070D01*
X113619047Y-132832070D02*
X113571428Y-132641594D01*
X113571428Y-132641594D02*
X113523809Y-132546356D01*
X113523809Y-132546356D02*
X113476190Y-132498737D01*
X113476190Y-132498737D02*
X113380952Y-132451118D01*
X112714285Y-132451118D02*
X112047619Y-132451118D01*
X112047619Y-132451118D02*
X112476190Y-133451118D01*
X111761904Y-132451118D02*
X111095238Y-132451118D01*
X111095238Y-132451118D02*
X111523809Y-133451118D01*
X110285714Y-132451118D02*
X110476190Y-132451118D01*
X110476190Y-132451118D02*
X110571428Y-132498737D01*
X110571428Y-132498737D02*
X110619047Y-132546356D01*
X110619047Y-132546356D02*
X110714285Y-132689213D01*
X110714285Y-132689213D02*
X110761904Y-132879689D01*
X110761904Y-132879689D02*
X110761904Y-133260641D01*
X110761904Y-133260641D02*
X110714285Y-133355879D01*
X110714285Y-133355879D02*
X110666666Y-133403499D01*
X110666666Y-133403499D02*
X110571428Y-133451118D01*
X110571428Y-133451118D02*
X110380952Y-133451118D01*
X110380952Y-133451118D02*
X110285714Y-133403499D01*
X110285714Y-133403499D02*
X110238095Y-133355879D01*
X110238095Y-133355879D02*
X110190476Y-133260641D01*
X110190476Y-133260641D02*
X110190476Y-133022546D01*
X110190476Y-133022546D02*
X110238095Y-132927308D01*
X110238095Y-132927308D02*
X110285714Y-132879689D01*
X110285714Y-132879689D02*
X110380952Y-132832070D01*
X110380952Y-132832070D02*
X110571428Y-132832070D01*
X110571428Y-132832070D02*
X110666666Y-132879689D01*
X110666666Y-132879689D02*
X110714285Y-132927308D01*
X110714285Y-132927308D02*
X110761904Y-133022546D01*
X109571428Y-132451118D02*
X109476190Y-132451118D01*
X109476190Y-132451118D02*
X109380952Y-132498737D01*
X109380952Y-132498737D02*
X109333333Y-132546356D01*
X109333333Y-132546356D02*
X109285714Y-132641594D01*
X109285714Y-132641594D02*
X109238095Y-132832070D01*
X109238095Y-132832070D02*
X109238095Y-133070165D01*
X109238095Y-133070165D02*
X109285714Y-133260641D01*
X109285714Y-133260641D02*
X109333333Y-133355879D01*
X109333333Y-133355879D02*
X109380952Y-133403499D01*
X109380952Y-133403499D02*
X109476190Y-133451118D01*
X109476190Y-133451118D02*
X109571428Y-133451118D01*
X109571428Y-133451118D02*
X109666666Y-133403499D01*
X109666666Y-133403499D02*
X109714285Y-133355879D01*
X109714285Y-133355879D02*
X109761904Y-133260641D01*
X109761904Y-133260641D02*
X109809523Y-133070165D01*
X109809523Y-133070165D02*
X109809523Y-132832070D01*
X109809523Y-132832070D02*
X109761904Y-132641594D01*
X109761904Y-132641594D02*
X109714285Y-132546356D01*
X109714285Y-132546356D02*
X109666666Y-132498737D01*
X109666666Y-132498737D02*
X109571428Y-132451118D01*
X108285714Y-133451118D02*
X108857142Y-133451118D01*
X108571428Y-133451118D02*
X108571428Y-132451118D01*
X108571428Y-132451118D02*
X108666666Y-132593975D01*
X108666666Y-132593975D02*
X108761904Y-132689213D01*
X108761904Y-132689213D02*
X108857142Y-132736832D01*
X107904761Y-132546356D02*
X107857142Y-132498737D01*
X107857142Y-132498737D02*
X107761904Y-132451118D01*
X107761904Y-132451118D02*
X107523809Y-132451118D01*
X107523809Y-132451118D02*
X107428571Y-132498737D01*
X107428571Y-132498737D02*
X107380952Y-132546356D01*
X107380952Y-132546356D02*
X107333333Y-132641594D01*
X107333333Y-132641594D02*
X107333333Y-132736832D01*
X107333333Y-132736832D02*
X107380952Y-132879689D01*
X107380952Y-132879689D02*
X107952380Y-133451118D01*
X107952380Y-133451118D02*
X107333333Y-133451118D01*
X106761904Y-132879689D02*
X106857142Y-132832070D01*
X106857142Y-132832070D02*
X106904761Y-132784451D01*
X106904761Y-132784451D02*
X106952380Y-132689213D01*
X106952380Y-132689213D02*
X106952380Y-132641594D01*
X106952380Y-132641594D02*
X106904761Y-132546356D01*
X106904761Y-132546356D02*
X106857142Y-132498737D01*
X106857142Y-132498737D02*
X106761904Y-132451118D01*
X106761904Y-132451118D02*
X106571428Y-132451118D01*
X106571428Y-132451118D02*
X106476190Y-132498737D01*
X106476190Y-132498737D02*
X106428571Y-132546356D01*
X106428571Y-132546356D02*
X106380952Y-132641594D01*
X106380952Y-132641594D02*
X106380952Y-132689213D01*
X106380952Y-132689213D02*
X106428571Y-132784451D01*
X106428571Y-132784451D02*
X106476190Y-132832070D01*
X106476190Y-132832070D02*
X106571428Y-132879689D01*
X106571428Y-132879689D02*
X106761904Y-132879689D01*
X106761904Y-132879689D02*
X106857142Y-132927308D01*
X106857142Y-132927308D02*
X106904761Y-132974927D01*
X106904761Y-132974927D02*
X106952380Y-133070165D01*
X106952380Y-133070165D02*
X106952380Y-133260641D01*
X106952380Y-133260641D02*
X106904761Y-133355879D01*
X106904761Y-133355879D02*
X106857142Y-133403499D01*
X106857142Y-133403499D02*
X106761904Y-133451118D01*
X106761904Y-133451118D02*
X106571428Y-133451118D01*
X106571428Y-133451118D02*
X106476190Y-133403499D01*
X106476190Y-133403499D02*
X106428571Y-133355879D01*
X106428571Y-133355879D02*
X106380952Y-133260641D01*
X106380952Y-133260641D02*
X106380952Y-133070165D01*
X106380952Y-133070165D02*
X106428571Y-132974927D01*
X106428571Y-132974927D02*
X106476190Y-132927308D01*
X106476190Y-132927308D02*
X106571428Y-132879689D01*
X105428571Y-133451118D02*
X105999999Y-133451118D01*
X105714285Y-133451118D02*
X105714285Y-132451118D01*
X105714285Y-132451118D02*
X105809523Y-132593975D01*
X105809523Y-132593975D02*
X105904761Y-132689213D01*
X105904761Y-132689213D02*
X105999999Y-132736832D01*
X110333333Y-132451118D02*
X110333333Y-133165403D01*
X110333333Y-133165403D02*
X110380952Y-133308260D01*
X110380952Y-133308260D02*
X110476190Y-133403499D01*
X110476190Y-133403499D02*
X110619047Y-133451118D01*
X110619047Y-133451118D02*
X110714285Y-133451118D01*
X109333333Y-133451118D02*
X109904761Y-133451118D01*
X109619047Y-133451118D02*
X109619047Y-132451118D01*
X109619047Y-132451118D02*
X109714285Y-132593975D01*
X109714285Y-132593975D02*
X109809523Y-132689213D01*
X109809523Y-132689213D02*
X109904761Y-132736832D01*
D11*
G04 #@! TO.C,J1*
X103802400Y-128796300D02*
X116197600Y-128796300D01*
X103802400Y-137203700D02*
X103802400Y-128796300D01*
X116197600Y-128796300D02*
X116197600Y-137203700D01*
X116197600Y-137203700D02*
X103802400Y-137203700D01*
D12*
X107256000Y-126741298D02*
G75*
G02*
X106494000Y-126741298I-381000J0D01*
G01*
X106494000Y-126741298D02*
G75*
G02*
X107256000Y-126741298I381000J0D01*
G01*
G04 #@! TD*
M02*
