G04 #@! TF.GenerationSoftware,KiCad,Pcbnew,9.0.7*
G04 #@! TF.CreationDate,2026-02-24T22:04:58+01:00*
G04 #@! TF.ProjectId,QuiverAttachPCB,51756976-6572-4417-9474-616368504342,rev?*
G04 #@! TF.SameCoordinates,Original*
G04 #@! TF.FileFunction,OtherDrawing,Comment*
%FSLAX46Y46*%
G04 Gerber Fmt 4.6, Leading zero omitted, Abs format (unit mm)*
G04 Created by KiCad (PCBNEW 9.0.7) date 2026-02-24 22:04:58*
%MOMM*%
%LPD*%
G01*
G04 APERTURE LIST*
%ADD10C,0.100000*%
%ADD11C,0.075000*%
G04 APERTURE END LIST*
D10*
X116340000Y-138040000D02*
G75*
G02*
X114340000Y-138040000I-1000000J0D01*
G01*
X114340000Y-138040000D02*
G75*
G02*
X116340000Y-138040000I1000000J0D01*
G01*
X108720000Y-135500000D02*
G75*
G02*
X106720000Y-135500000I-1000000J0D01*
G01*
X106720000Y-135500000D02*
G75*
G02*
X108720000Y-135500000I1000000J0D01*
G01*
X111250000Y-130500000D02*
G75*
G02*
X109250000Y-130500000I-1000000J0D01*
G01*
X109250000Y-130500000D02*
G75*
G02*
X111250000Y-130500000I1000000J0D01*
G01*
X111260000Y-135500000D02*
G75*
G02*
X109260000Y-135500000I-1000000J0D01*
G01*
X109260000Y-135500000D02*
G75*
G02*
X111260000Y-135500000I1000000J0D01*
G01*
X116330000Y-130500000D02*
G75*
G02*
X114330000Y-130500000I-1000000J0D01*
G01*
X114330000Y-130500000D02*
G75*
G02*
X116330000Y-130500000I1000000J0D01*
G01*
X106180000Y-127960000D02*
G75*
G02*
X104180000Y-127960000I-1000000J0D01*
G01*
X104180000Y-127960000D02*
G75*
G02*
X106180000Y-127960000I1000000J0D01*
G01*
X116340000Y-135500000D02*
G75*
G02*
X114340000Y-135500000I-1000000J0D01*
G01*
X114340000Y-135500000D02*
G75*
G02*
X116340000Y-135500000I1000000J0D01*
G01*
X106180000Y-135500000D02*
G75*
G02*
X104180000Y-135500000I-1000000J0D01*
G01*
X104180000Y-135500000D02*
G75*
G02*
X106180000Y-135500000I1000000J0D01*
G01*
X116340000Y-127960000D02*
G75*
G02*
X114340000Y-127960000I-1000000J0D01*
G01*
X114340000Y-127960000D02*
G75*
G02*
X116340000Y-127960000I1000000J0D01*
G01*
X111260000Y-127960000D02*
G75*
G02*
X109260000Y-127960000I-1000000J0D01*
G01*
X109260000Y-127960000D02*
G75*
G02*
X111260000Y-127960000I1000000J0D01*
G01*
X113800000Y-135500000D02*
G75*
G02*
X111800000Y-135500000I-1000000J0D01*
G01*
X111800000Y-135500000D02*
G75*
G02*
X113800000Y-135500000I1000000J0D01*
G01*
X106170000Y-130500000D02*
G75*
G02*
X104170000Y-130500000I-1000000J0D01*
G01*
X104170000Y-130500000D02*
G75*
G02*
X106170000Y-130500000I1000000J0D01*
G01*
X108720000Y-138040000D02*
G75*
G02*
X106720000Y-138040000I-1000000J0D01*
G01*
X106720000Y-138040000D02*
G75*
G02*
X108720000Y-138040000I1000000J0D01*
G01*
X113800000Y-127960000D02*
G75*
G02*
X111800000Y-127960000I-1000000J0D01*
G01*
X111800000Y-127960000D02*
G75*
G02*
X113800000Y-127960000I1000000J0D01*
G01*
X106180000Y-138040000D02*
G75*
G02*
X104180000Y-138040000I-1000000J0D01*
G01*
X104180000Y-138040000D02*
G75*
G02*
X106180000Y-138040000I1000000J0D01*
G01*
X113800000Y-138040000D02*
G75*
G02*
X111800000Y-138040000I-1000000J0D01*
G01*
X111800000Y-138040000D02*
G75*
G02*
X113800000Y-138040000I1000000J0D01*
G01*
X111260000Y-138040000D02*
G75*
G02*
X109260000Y-138040000I-1000000J0D01*
G01*
X109260000Y-138040000D02*
G75*
G02*
X111260000Y-138040000I1000000J0D01*
G01*
X113790000Y-130500000D02*
G75*
G02*
X111790000Y-130500000I-1000000J0D01*
G01*
X111790000Y-130500000D02*
G75*
G02*
X113790000Y-130500000I1000000J0D01*
G01*
X108710000Y-130500000D02*
G75*
G02*
X106710000Y-130500000I-1000000J0D01*
G01*
X106710000Y-130500000D02*
G75*
G02*
X108710000Y-130500000I1000000J0D01*
G01*
X108720000Y-127960000D02*
G75*
G02*
X106720000Y-127960000I-1000000J0D01*
G01*
X106720000Y-127960000D02*
G75*
G02*
X108720000Y-127960000I1000000J0D01*
G01*
D11*
X115524885Y-128331428D02*
X115767742Y-128331428D01*
X115767742Y-128331428D02*
X115796314Y-128317142D01*
X115796314Y-128317142D02*
X115810600Y-128302857D01*
X115810600Y-128302857D02*
X115824885Y-128274285D01*
X115824885Y-128274285D02*
X115824885Y-128217142D01*
X115824885Y-128217142D02*
X115810600Y-128188571D01*
X115810600Y-128188571D02*
X115796314Y-128174285D01*
X115796314Y-128174285D02*
X115767742Y-128159999D01*
X115767742Y-128159999D02*
X115524885Y-128159999D01*
X115824885Y-127859999D02*
X115824885Y-128031428D01*
X115824885Y-127945713D02*
X115524885Y-127945713D01*
X115524885Y-127945713D02*
X115567742Y-127974285D01*
X115567742Y-127974285D02*
X115596314Y-128002856D01*
X115596314Y-128002856D02*
X115610600Y-128031428D01*
X115524885Y-127674285D02*
X115524885Y-127645714D01*
X115524885Y-127645714D02*
X115539171Y-127617142D01*
X115539171Y-127617142D02*
X115553457Y-127602857D01*
X115553457Y-127602857D02*
X115582028Y-127588571D01*
X115582028Y-127588571D02*
X115639171Y-127574285D01*
X115639171Y-127574285D02*
X115710600Y-127574285D01*
X115710600Y-127574285D02*
X115767742Y-127588571D01*
X115767742Y-127588571D02*
X115796314Y-127602857D01*
X115796314Y-127602857D02*
X115810600Y-127617142D01*
X115810600Y-127617142D02*
X115824885Y-127645714D01*
X115824885Y-127645714D02*
X115824885Y-127674285D01*
X115824885Y-127674285D02*
X115810600Y-127702857D01*
X115810600Y-127702857D02*
X115796314Y-127717142D01*
X115796314Y-127717142D02*
X115767742Y-127731428D01*
X115767742Y-127731428D02*
X115710600Y-127745714D01*
X115710600Y-127745714D02*
X115639171Y-127745714D01*
X115639171Y-127745714D02*
X115582028Y-127731428D01*
X115582028Y-127731428D02*
X115553457Y-127717142D01*
X115553457Y-127717142D02*
X115539171Y-127702857D01*
X115539171Y-127702857D02*
X115524885Y-127674285D01*
X115524885Y-130728571D02*
X115767742Y-130728571D01*
X115767742Y-130728571D02*
X115796314Y-130714285D01*
X115796314Y-130714285D02*
X115810600Y-130700000D01*
X115810600Y-130700000D02*
X115824885Y-130671428D01*
X115824885Y-130671428D02*
X115824885Y-130614285D01*
X115824885Y-130614285D02*
X115810600Y-130585714D01*
X115810600Y-130585714D02*
X115796314Y-130571428D01*
X115796314Y-130571428D02*
X115767742Y-130557142D01*
X115767742Y-130557142D02*
X115524885Y-130557142D01*
X115824885Y-130399999D02*
X115824885Y-130342856D01*
X115824885Y-130342856D02*
X115810600Y-130314285D01*
X115810600Y-130314285D02*
X115796314Y-130299999D01*
X115796314Y-130299999D02*
X115753457Y-130271428D01*
X115753457Y-130271428D02*
X115696314Y-130257142D01*
X115696314Y-130257142D02*
X115582028Y-130257142D01*
X115582028Y-130257142D02*
X115553457Y-130271428D01*
X115553457Y-130271428D02*
X115539171Y-130285714D01*
X115539171Y-130285714D02*
X115524885Y-130314285D01*
X115524885Y-130314285D02*
X115524885Y-130371428D01*
X115524885Y-130371428D02*
X115539171Y-130399999D01*
X115539171Y-130399999D02*
X115553457Y-130414285D01*
X115553457Y-130414285D02*
X115582028Y-130428571D01*
X115582028Y-130428571D02*
X115653457Y-130428571D01*
X115653457Y-130428571D02*
X115682028Y-130414285D01*
X115682028Y-130414285D02*
X115696314Y-130399999D01*
X115696314Y-130399999D02*
X115710600Y-130371428D01*
X115710600Y-130371428D02*
X115710600Y-130314285D01*
X115710600Y-130314285D02*
X115696314Y-130285714D01*
X115696314Y-130285714D02*
X115682028Y-130271428D01*
X115682028Y-130271428D02*
X115653457Y-130257142D01*
X112984885Y-128188571D02*
X113227742Y-128188571D01*
X113227742Y-128188571D02*
X113256314Y-128174285D01*
X113256314Y-128174285D02*
X113270600Y-128160000D01*
X113270600Y-128160000D02*
X113284885Y-128131428D01*
X113284885Y-128131428D02*
X113284885Y-128074285D01*
X113284885Y-128074285D02*
X113270600Y-128045714D01*
X113270600Y-128045714D02*
X113256314Y-128031428D01*
X113256314Y-128031428D02*
X113227742Y-128017142D01*
X113227742Y-128017142D02*
X112984885Y-128017142D01*
X113113457Y-127831428D02*
X113099171Y-127859999D01*
X113099171Y-127859999D02*
X113084885Y-127874285D01*
X113084885Y-127874285D02*
X113056314Y-127888571D01*
X113056314Y-127888571D02*
X113042028Y-127888571D01*
X113042028Y-127888571D02*
X113013457Y-127874285D01*
X113013457Y-127874285D02*
X112999171Y-127859999D01*
X112999171Y-127859999D02*
X112984885Y-127831428D01*
X112984885Y-127831428D02*
X112984885Y-127774285D01*
X112984885Y-127774285D02*
X112999171Y-127745714D01*
X112999171Y-127745714D02*
X113013457Y-127731428D01*
X113013457Y-127731428D02*
X113042028Y-127717142D01*
X113042028Y-127717142D02*
X113056314Y-127717142D01*
X113056314Y-127717142D02*
X113084885Y-127731428D01*
X113084885Y-127731428D02*
X113099171Y-127745714D01*
X113099171Y-127745714D02*
X113113457Y-127774285D01*
X113113457Y-127774285D02*
X113113457Y-127831428D01*
X113113457Y-127831428D02*
X113127742Y-127859999D01*
X113127742Y-127859999D02*
X113142028Y-127874285D01*
X113142028Y-127874285D02*
X113170600Y-127888571D01*
X113170600Y-127888571D02*
X113227742Y-127888571D01*
X113227742Y-127888571D02*
X113256314Y-127874285D01*
X113256314Y-127874285D02*
X113270600Y-127859999D01*
X113270600Y-127859999D02*
X113284885Y-127831428D01*
X113284885Y-127831428D02*
X113284885Y-127774285D01*
X113284885Y-127774285D02*
X113270600Y-127745714D01*
X113270600Y-127745714D02*
X113256314Y-127731428D01*
X113256314Y-127731428D02*
X113227742Y-127717142D01*
X113227742Y-127717142D02*
X113170600Y-127717142D01*
X113170600Y-127717142D02*
X113142028Y-127731428D01*
X113142028Y-127731428D02*
X113127742Y-127745714D01*
X113127742Y-127745714D02*
X113113457Y-127774285D01*
X112984885Y-130728571D02*
X113227742Y-130728571D01*
X113227742Y-130728571D02*
X113256314Y-130714285D01*
X113256314Y-130714285D02*
X113270600Y-130700000D01*
X113270600Y-130700000D02*
X113284885Y-130671428D01*
X113284885Y-130671428D02*
X113284885Y-130614285D01*
X113284885Y-130614285D02*
X113270600Y-130585714D01*
X113270600Y-130585714D02*
X113256314Y-130571428D01*
X113256314Y-130571428D02*
X113227742Y-130557142D01*
X113227742Y-130557142D02*
X112984885Y-130557142D01*
X112984885Y-130442856D02*
X112984885Y-130242856D01*
X112984885Y-130242856D02*
X113284885Y-130371428D01*
X110444885Y-128188571D02*
X110687742Y-128188571D01*
X110687742Y-128188571D02*
X110716314Y-128174285D01*
X110716314Y-128174285D02*
X110730600Y-128160000D01*
X110730600Y-128160000D02*
X110744885Y-128131428D01*
X110744885Y-128131428D02*
X110744885Y-128074285D01*
X110744885Y-128074285D02*
X110730600Y-128045714D01*
X110730600Y-128045714D02*
X110716314Y-128031428D01*
X110716314Y-128031428D02*
X110687742Y-128017142D01*
X110687742Y-128017142D02*
X110444885Y-128017142D01*
X110444885Y-127745714D02*
X110444885Y-127802856D01*
X110444885Y-127802856D02*
X110459171Y-127831428D01*
X110459171Y-127831428D02*
X110473457Y-127845714D01*
X110473457Y-127845714D02*
X110516314Y-127874285D01*
X110516314Y-127874285D02*
X110573457Y-127888571D01*
X110573457Y-127888571D02*
X110687742Y-127888571D01*
X110687742Y-127888571D02*
X110716314Y-127874285D01*
X110716314Y-127874285D02*
X110730600Y-127859999D01*
X110730600Y-127859999D02*
X110744885Y-127831428D01*
X110744885Y-127831428D02*
X110744885Y-127774285D01*
X110744885Y-127774285D02*
X110730600Y-127745714D01*
X110730600Y-127745714D02*
X110716314Y-127731428D01*
X110716314Y-127731428D02*
X110687742Y-127717142D01*
X110687742Y-127717142D02*
X110616314Y-127717142D01*
X110616314Y-127717142D02*
X110587742Y-127731428D01*
X110587742Y-127731428D02*
X110573457Y-127745714D01*
X110573457Y-127745714D02*
X110559171Y-127774285D01*
X110559171Y-127774285D02*
X110559171Y-127831428D01*
X110559171Y-127831428D02*
X110573457Y-127859999D01*
X110573457Y-127859999D02*
X110587742Y-127874285D01*
X110587742Y-127874285D02*
X110616314Y-127888571D01*
X110444885Y-130728571D02*
X110687742Y-130728571D01*
X110687742Y-130728571D02*
X110716314Y-130714285D01*
X110716314Y-130714285D02*
X110730600Y-130700000D01*
X110730600Y-130700000D02*
X110744885Y-130671428D01*
X110744885Y-130671428D02*
X110744885Y-130614285D01*
X110744885Y-130614285D02*
X110730600Y-130585714D01*
X110730600Y-130585714D02*
X110716314Y-130571428D01*
X110716314Y-130571428D02*
X110687742Y-130557142D01*
X110687742Y-130557142D02*
X110444885Y-130557142D01*
X110444885Y-130271428D02*
X110444885Y-130414285D01*
X110444885Y-130414285D02*
X110587742Y-130428571D01*
X110587742Y-130428571D02*
X110573457Y-130414285D01*
X110573457Y-130414285D02*
X110559171Y-130385714D01*
X110559171Y-130385714D02*
X110559171Y-130314285D01*
X110559171Y-130314285D02*
X110573457Y-130285714D01*
X110573457Y-130285714D02*
X110587742Y-130271428D01*
X110587742Y-130271428D02*
X110616314Y-130257142D01*
X110616314Y-130257142D02*
X110687742Y-130257142D01*
X110687742Y-130257142D02*
X110716314Y-130271428D01*
X110716314Y-130271428D02*
X110730600Y-130285714D01*
X110730600Y-130285714D02*
X110744885Y-130314285D01*
X110744885Y-130314285D02*
X110744885Y-130385714D01*
X110744885Y-130385714D02*
X110730600Y-130414285D01*
X110730600Y-130414285D02*
X110716314Y-130428571D01*
X107904885Y-128188571D02*
X108147742Y-128188571D01*
X108147742Y-128188571D02*
X108176314Y-128174285D01*
X108176314Y-128174285D02*
X108190600Y-128160000D01*
X108190600Y-128160000D02*
X108204885Y-128131428D01*
X108204885Y-128131428D02*
X108204885Y-128074285D01*
X108204885Y-128074285D02*
X108190600Y-128045714D01*
X108190600Y-128045714D02*
X108176314Y-128031428D01*
X108176314Y-128031428D02*
X108147742Y-128017142D01*
X108147742Y-128017142D02*
X107904885Y-128017142D01*
X108004885Y-127745714D02*
X108204885Y-127745714D01*
X107890600Y-127817142D02*
X108104885Y-127888571D01*
X108104885Y-127888571D02*
X108104885Y-127702856D01*
X107904885Y-130728571D02*
X108147742Y-130728571D01*
X108147742Y-130728571D02*
X108176314Y-130714285D01*
X108176314Y-130714285D02*
X108190600Y-130700000D01*
X108190600Y-130700000D02*
X108204885Y-130671428D01*
X108204885Y-130671428D02*
X108204885Y-130614285D01*
X108204885Y-130614285D02*
X108190600Y-130585714D01*
X108190600Y-130585714D02*
X108176314Y-130571428D01*
X108176314Y-130571428D02*
X108147742Y-130557142D01*
X108147742Y-130557142D02*
X107904885Y-130557142D01*
X107904885Y-130442856D02*
X107904885Y-130257142D01*
X107904885Y-130257142D02*
X108019171Y-130357142D01*
X108019171Y-130357142D02*
X108019171Y-130314285D01*
X108019171Y-130314285D02*
X108033457Y-130285714D01*
X108033457Y-130285714D02*
X108047742Y-130271428D01*
X108047742Y-130271428D02*
X108076314Y-130257142D01*
X108076314Y-130257142D02*
X108147742Y-130257142D01*
X108147742Y-130257142D02*
X108176314Y-130271428D01*
X108176314Y-130271428D02*
X108190600Y-130285714D01*
X108190600Y-130285714D02*
X108204885Y-130314285D01*
X108204885Y-130314285D02*
X108204885Y-130399999D01*
X108204885Y-130399999D02*
X108190600Y-130428571D01*
X108190600Y-130428571D02*
X108176314Y-130442856D01*
X105364885Y-128188571D02*
X105607742Y-128188571D01*
X105607742Y-128188571D02*
X105636314Y-128174285D01*
X105636314Y-128174285D02*
X105650600Y-128160000D01*
X105650600Y-128160000D02*
X105664885Y-128131428D01*
X105664885Y-128131428D02*
X105664885Y-128074285D01*
X105664885Y-128074285D02*
X105650600Y-128045714D01*
X105650600Y-128045714D02*
X105636314Y-128031428D01*
X105636314Y-128031428D02*
X105607742Y-128017142D01*
X105607742Y-128017142D02*
X105364885Y-128017142D01*
X105393457Y-127888571D02*
X105379171Y-127874285D01*
X105379171Y-127874285D02*
X105364885Y-127845714D01*
X105364885Y-127845714D02*
X105364885Y-127774285D01*
X105364885Y-127774285D02*
X105379171Y-127745714D01*
X105379171Y-127745714D02*
X105393457Y-127731428D01*
X105393457Y-127731428D02*
X105422028Y-127717142D01*
X105422028Y-127717142D02*
X105450600Y-127717142D01*
X105450600Y-127717142D02*
X105493457Y-127731428D01*
X105493457Y-127731428D02*
X105664885Y-127902856D01*
X105664885Y-127902856D02*
X105664885Y-127717142D01*
X105364885Y-130728571D02*
X105607742Y-130728571D01*
X105607742Y-130728571D02*
X105636314Y-130714285D01*
X105636314Y-130714285D02*
X105650600Y-130700000D01*
X105650600Y-130700000D02*
X105664885Y-130671428D01*
X105664885Y-130671428D02*
X105664885Y-130614285D01*
X105664885Y-130614285D02*
X105650600Y-130585714D01*
X105650600Y-130585714D02*
X105636314Y-130571428D01*
X105636314Y-130571428D02*
X105607742Y-130557142D01*
X105607742Y-130557142D02*
X105364885Y-130557142D01*
X105664885Y-130257142D02*
X105664885Y-130428571D01*
X105664885Y-130342856D02*
X105364885Y-130342856D01*
X105364885Y-130342856D02*
X105407742Y-130371428D01*
X105407742Y-130371428D02*
X105436314Y-130399999D01*
X105436314Y-130399999D02*
X105450600Y-130428571D01*
X116374885Y-138411428D02*
X116617742Y-138411428D01*
X116617742Y-138411428D02*
X116646314Y-138397142D01*
X116646314Y-138397142D02*
X116660600Y-138382857D01*
X116660600Y-138382857D02*
X116674885Y-138354285D01*
X116674885Y-138354285D02*
X116674885Y-138297142D01*
X116674885Y-138297142D02*
X116660600Y-138268571D01*
X116660600Y-138268571D02*
X116646314Y-138254285D01*
X116646314Y-138254285D02*
X116617742Y-138239999D01*
X116617742Y-138239999D02*
X116374885Y-138239999D01*
X116403457Y-138111428D02*
X116389171Y-138097142D01*
X116389171Y-138097142D02*
X116374885Y-138068571D01*
X116374885Y-138068571D02*
X116374885Y-137997142D01*
X116374885Y-137997142D02*
X116389171Y-137968571D01*
X116389171Y-137968571D02*
X116403457Y-137954285D01*
X116403457Y-137954285D02*
X116432028Y-137939999D01*
X116432028Y-137939999D02*
X116460600Y-137939999D01*
X116460600Y-137939999D02*
X116503457Y-137954285D01*
X116503457Y-137954285D02*
X116674885Y-138125713D01*
X116674885Y-138125713D02*
X116674885Y-137939999D01*
X116374885Y-137754285D02*
X116374885Y-137725714D01*
X116374885Y-137725714D02*
X116389171Y-137697142D01*
X116389171Y-137697142D02*
X116403457Y-137682857D01*
X116403457Y-137682857D02*
X116432028Y-137668571D01*
X116432028Y-137668571D02*
X116489171Y-137654285D01*
X116489171Y-137654285D02*
X116560600Y-137654285D01*
X116560600Y-137654285D02*
X116617742Y-137668571D01*
X116617742Y-137668571D02*
X116646314Y-137682857D01*
X116646314Y-137682857D02*
X116660600Y-137697142D01*
X116660600Y-137697142D02*
X116674885Y-137725714D01*
X116674885Y-137725714D02*
X116674885Y-137754285D01*
X116674885Y-137754285D02*
X116660600Y-137782857D01*
X116660600Y-137782857D02*
X116646314Y-137797142D01*
X116646314Y-137797142D02*
X116617742Y-137811428D01*
X116617742Y-137811428D02*
X116560600Y-137825714D01*
X116560600Y-137825714D02*
X116489171Y-137825714D01*
X116489171Y-137825714D02*
X116432028Y-137811428D01*
X116432028Y-137811428D02*
X116403457Y-137797142D01*
X116403457Y-137797142D02*
X116389171Y-137782857D01*
X116389171Y-137782857D02*
X116374885Y-137754285D01*
X116374885Y-135871428D02*
X116617742Y-135871428D01*
X116617742Y-135871428D02*
X116646314Y-135857142D01*
X116646314Y-135857142D02*
X116660600Y-135842857D01*
X116660600Y-135842857D02*
X116674885Y-135814285D01*
X116674885Y-135814285D02*
X116674885Y-135757142D01*
X116674885Y-135757142D02*
X116660600Y-135728571D01*
X116660600Y-135728571D02*
X116646314Y-135714285D01*
X116646314Y-135714285D02*
X116617742Y-135699999D01*
X116617742Y-135699999D02*
X116374885Y-135699999D01*
X116674885Y-135399999D02*
X116674885Y-135571428D01*
X116674885Y-135485713D02*
X116374885Y-135485713D01*
X116374885Y-135485713D02*
X116417742Y-135514285D01*
X116417742Y-135514285D02*
X116446314Y-135542856D01*
X116446314Y-135542856D02*
X116460600Y-135571428D01*
X116674885Y-135257142D02*
X116674885Y-135199999D01*
X116674885Y-135199999D02*
X116660600Y-135171428D01*
X116660600Y-135171428D02*
X116646314Y-135157142D01*
X116646314Y-135157142D02*
X116603457Y-135128571D01*
X116603457Y-135128571D02*
X116546314Y-135114285D01*
X116546314Y-135114285D02*
X116432028Y-135114285D01*
X116432028Y-135114285D02*
X116403457Y-135128571D01*
X116403457Y-135128571D02*
X116389171Y-135142857D01*
X116389171Y-135142857D02*
X116374885Y-135171428D01*
X116374885Y-135171428D02*
X116374885Y-135228571D01*
X116374885Y-135228571D02*
X116389171Y-135257142D01*
X116389171Y-135257142D02*
X116403457Y-135271428D01*
X116403457Y-135271428D02*
X116432028Y-135285714D01*
X116432028Y-135285714D02*
X116503457Y-135285714D01*
X116503457Y-135285714D02*
X116532028Y-135271428D01*
X116532028Y-135271428D02*
X116546314Y-135257142D01*
X116546314Y-135257142D02*
X116560600Y-135228571D01*
X116560600Y-135228571D02*
X116560600Y-135171428D01*
X116560600Y-135171428D02*
X116546314Y-135142857D01*
X116546314Y-135142857D02*
X116532028Y-135128571D01*
X116532028Y-135128571D02*
X116503457Y-135114285D01*
X113834885Y-138411428D02*
X114077742Y-138411428D01*
X114077742Y-138411428D02*
X114106314Y-138397142D01*
X114106314Y-138397142D02*
X114120600Y-138382857D01*
X114120600Y-138382857D02*
X114134885Y-138354285D01*
X114134885Y-138354285D02*
X114134885Y-138297142D01*
X114134885Y-138297142D02*
X114120600Y-138268571D01*
X114120600Y-138268571D02*
X114106314Y-138254285D01*
X114106314Y-138254285D02*
X114077742Y-138239999D01*
X114077742Y-138239999D02*
X113834885Y-138239999D01*
X114134885Y-137939999D02*
X114134885Y-138111428D01*
X114134885Y-138025713D02*
X113834885Y-138025713D01*
X113834885Y-138025713D02*
X113877742Y-138054285D01*
X113877742Y-138054285D02*
X113906314Y-138082856D01*
X113906314Y-138082856D02*
X113920600Y-138111428D01*
X113963457Y-137768571D02*
X113949171Y-137797142D01*
X113949171Y-137797142D02*
X113934885Y-137811428D01*
X113934885Y-137811428D02*
X113906314Y-137825714D01*
X113906314Y-137825714D02*
X113892028Y-137825714D01*
X113892028Y-137825714D02*
X113863457Y-137811428D01*
X113863457Y-137811428D02*
X113849171Y-137797142D01*
X113849171Y-137797142D02*
X113834885Y-137768571D01*
X113834885Y-137768571D02*
X113834885Y-137711428D01*
X113834885Y-137711428D02*
X113849171Y-137682857D01*
X113849171Y-137682857D02*
X113863457Y-137668571D01*
X113863457Y-137668571D02*
X113892028Y-137654285D01*
X113892028Y-137654285D02*
X113906314Y-137654285D01*
X113906314Y-137654285D02*
X113934885Y-137668571D01*
X113934885Y-137668571D02*
X113949171Y-137682857D01*
X113949171Y-137682857D02*
X113963457Y-137711428D01*
X113963457Y-137711428D02*
X113963457Y-137768571D01*
X113963457Y-137768571D02*
X113977742Y-137797142D01*
X113977742Y-137797142D02*
X113992028Y-137811428D01*
X113992028Y-137811428D02*
X114020600Y-137825714D01*
X114020600Y-137825714D02*
X114077742Y-137825714D01*
X114077742Y-137825714D02*
X114106314Y-137811428D01*
X114106314Y-137811428D02*
X114120600Y-137797142D01*
X114120600Y-137797142D02*
X114134885Y-137768571D01*
X114134885Y-137768571D02*
X114134885Y-137711428D01*
X114134885Y-137711428D02*
X114120600Y-137682857D01*
X114120600Y-137682857D02*
X114106314Y-137668571D01*
X114106314Y-137668571D02*
X114077742Y-137654285D01*
X114077742Y-137654285D02*
X114020600Y-137654285D01*
X114020600Y-137654285D02*
X113992028Y-137668571D01*
X113992028Y-137668571D02*
X113977742Y-137682857D01*
X113977742Y-137682857D02*
X113963457Y-137711428D01*
X113834885Y-135871428D02*
X114077742Y-135871428D01*
X114077742Y-135871428D02*
X114106314Y-135857142D01*
X114106314Y-135857142D02*
X114120600Y-135842857D01*
X114120600Y-135842857D02*
X114134885Y-135814285D01*
X114134885Y-135814285D02*
X114134885Y-135757142D01*
X114134885Y-135757142D02*
X114120600Y-135728571D01*
X114120600Y-135728571D02*
X114106314Y-135714285D01*
X114106314Y-135714285D02*
X114077742Y-135699999D01*
X114077742Y-135699999D02*
X113834885Y-135699999D01*
X114134885Y-135399999D02*
X114134885Y-135571428D01*
X114134885Y-135485713D02*
X113834885Y-135485713D01*
X113834885Y-135485713D02*
X113877742Y-135514285D01*
X113877742Y-135514285D02*
X113906314Y-135542856D01*
X113906314Y-135542856D02*
X113920600Y-135571428D01*
X113834885Y-135299999D02*
X113834885Y-135099999D01*
X113834885Y-135099999D02*
X114134885Y-135228571D01*
X111294885Y-138411428D02*
X111537742Y-138411428D01*
X111537742Y-138411428D02*
X111566314Y-138397142D01*
X111566314Y-138397142D02*
X111580600Y-138382857D01*
X111580600Y-138382857D02*
X111594885Y-138354285D01*
X111594885Y-138354285D02*
X111594885Y-138297142D01*
X111594885Y-138297142D02*
X111580600Y-138268571D01*
X111580600Y-138268571D02*
X111566314Y-138254285D01*
X111566314Y-138254285D02*
X111537742Y-138239999D01*
X111537742Y-138239999D02*
X111294885Y-138239999D01*
X111594885Y-137939999D02*
X111594885Y-138111428D01*
X111594885Y-138025713D02*
X111294885Y-138025713D01*
X111294885Y-138025713D02*
X111337742Y-138054285D01*
X111337742Y-138054285D02*
X111366314Y-138082856D01*
X111366314Y-138082856D02*
X111380600Y-138111428D01*
X111294885Y-137682857D02*
X111294885Y-137739999D01*
X111294885Y-137739999D02*
X111309171Y-137768571D01*
X111309171Y-137768571D02*
X111323457Y-137782857D01*
X111323457Y-137782857D02*
X111366314Y-137811428D01*
X111366314Y-137811428D02*
X111423457Y-137825714D01*
X111423457Y-137825714D02*
X111537742Y-137825714D01*
X111537742Y-137825714D02*
X111566314Y-137811428D01*
X111566314Y-137811428D02*
X111580600Y-137797142D01*
X111580600Y-137797142D02*
X111594885Y-137768571D01*
X111594885Y-137768571D02*
X111594885Y-137711428D01*
X111594885Y-137711428D02*
X111580600Y-137682857D01*
X111580600Y-137682857D02*
X111566314Y-137668571D01*
X111566314Y-137668571D02*
X111537742Y-137654285D01*
X111537742Y-137654285D02*
X111466314Y-137654285D01*
X111466314Y-137654285D02*
X111437742Y-137668571D01*
X111437742Y-137668571D02*
X111423457Y-137682857D01*
X111423457Y-137682857D02*
X111409171Y-137711428D01*
X111409171Y-137711428D02*
X111409171Y-137768571D01*
X111409171Y-137768571D02*
X111423457Y-137797142D01*
X111423457Y-137797142D02*
X111437742Y-137811428D01*
X111437742Y-137811428D02*
X111466314Y-137825714D01*
X111294885Y-135871428D02*
X111537742Y-135871428D01*
X111537742Y-135871428D02*
X111566314Y-135857142D01*
X111566314Y-135857142D02*
X111580600Y-135842857D01*
X111580600Y-135842857D02*
X111594885Y-135814285D01*
X111594885Y-135814285D02*
X111594885Y-135757142D01*
X111594885Y-135757142D02*
X111580600Y-135728571D01*
X111580600Y-135728571D02*
X111566314Y-135714285D01*
X111566314Y-135714285D02*
X111537742Y-135699999D01*
X111537742Y-135699999D02*
X111294885Y-135699999D01*
X111594885Y-135399999D02*
X111594885Y-135571428D01*
X111594885Y-135485713D02*
X111294885Y-135485713D01*
X111294885Y-135485713D02*
X111337742Y-135514285D01*
X111337742Y-135514285D02*
X111366314Y-135542856D01*
X111366314Y-135542856D02*
X111380600Y-135571428D01*
X111294885Y-135128571D02*
X111294885Y-135271428D01*
X111294885Y-135271428D02*
X111437742Y-135285714D01*
X111437742Y-135285714D02*
X111423457Y-135271428D01*
X111423457Y-135271428D02*
X111409171Y-135242857D01*
X111409171Y-135242857D02*
X111409171Y-135171428D01*
X111409171Y-135171428D02*
X111423457Y-135142857D01*
X111423457Y-135142857D02*
X111437742Y-135128571D01*
X111437742Y-135128571D02*
X111466314Y-135114285D01*
X111466314Y-135114285D02*
X111537742Y-135114285D01*
X111537742Y-135114285D02*
X111566314Y-135128571D01*
X111566314Y-135128571D02*
X111580600Y-135142857D01*
X111580600Y-135142857D02*
X111594885Y-135171428D01*
X111594885Y-135171428D02*
X111594885Y-135242857D01*
X111594885Y-135242857D02*
X111580600Y-135271428D01*
X111580600Y-135271428D02*
X111566314Y-135285714D01*
X108754885Y-138411428D02*
X108997742Y-138411428D01*
X108997742Y-138411428D02*
X109026314Y-138397142D01*
X109026314Y-138397142D02*
X109040600Y-138382857D01*
X109040600Y-138382857D02*
X109054885Y-138354285D01*
X109054885Y-138354285D02*
X109054885Y-138297142D01*
X109054885Y-138297142D02*
X109040600Y-138268571D01*
X109040600Y-138268571D02*
X109026314Y-138254285D01*
X109026314Y-138254285D02*
X108997742Y-138239999D01*
X108997742Y-138239999D02*
X108754885Y-138239999D01*
X109054885Y-137939999D02*
X109054885Y-138111428D01*
X109054885Y-138025713D02*
X108754885Y-138025713D01*
X108754885Y-138025713D02*
X108797742Y-138054285D01*
X108797742Y-138054285D02*
X108826314Y-138082856D01*
X108826314Y-138082856D02*
X108840600Y-138111428D01*
X108854885Y-137682857D02*
X109054885Y-137682857D01*
X108740600Y-137754285D02*
X108954885Y-137825714D01*
X108954885Y-137825714D02*
X108954885Y-137639999D01*
X108754885Y-135871428D02*
X108997742Y-135871428D01*
X108997742Y-135871428D02*
X109026314Y-135857142D01*
X109026314Y-135857142D02*
X109040600Y-135842857D01*
X109040600Y-135842857D02*
X109054885Y-135814285D01*
X109054885Y-135814285D02*
X109054885Y-135757142D01*
X109054885Y-135757142D02*
X109040600Y-135728571D01*
X109040600Y-135728571D02*
X109026314Y-135714285D01*
X109026314Y-135714285D02*
X108997742Y-135699999D01*
X108997742Y-135699999D02*
X108754885Y-135699999D01*
X109054885Y-135399999D02*
X109054885Y-135571428D01*
X109054885Y-135485713D02*
X108754885Y-135485713D01*
X108754885Y-135485713D02*
X108797742Y-135514285D01*
X108797742Y-135514285D02*
X108826314Y-135542856D01*
X108826314Y-135542856D02*
X108840600Y-135571428D01*
X108754885Y-135299999D02*
X108754885Y-135114285D01*
X108754885Y-135114285D02*
X108869171Y-135214285D01*
X108869171Y-135214285D02*
X108869171Y-135171428D01*
X108869171Y-135171428D02*
X108883457Y-135142857D01*
X108883457Y-135142857D02*
X108897742Y-135128571D01*
X108897742Y-135128571D02*
X108926314Y-135114285D01*
X108926314Y-135114285D02*
X108997742Y-135114285D01*
X108997742Y-135114285D02*
X109026314Y-135128571D01*
X109026314Y-135128571D02*
X109040600Y-135142857D01*
X109040600Y-135142857D02*
X109054885Y-135171428D01*
X109054885Y-135171428D02*
X109054885Y-135257142D01*
X109054885Y-135257142D02*
X109040600Y-135285714D01*
X109040600Y-135285714D02*
X109026314Y-135299999D01*
X106214885Y-138411428D02*
X106457742Y-138411428D01*
X106457742Y-138411428D02*
X106486314Y-138397142D01*
X106486314Y-138397142D02*
X106500600Y-138382857D01*
X106500600Y-138382857D02*
X106514885Y-138354285D01*
X106514885Y-138354285D02*
X106514885Y-138297142D01*
X106514885Y-138297142D02*
X106500600Y-138268571D01*
X106500600Y-138268571D02*
X106486314Y-138254285D01*
X106486314Y-138254285D02*
X106457742Y-138239999D01*
X106457742Y-138239999D02*
X106214885Y-138239999D01*
X106514885Y-137939999D02*
X106514885Y-138111428D01*
X106514885Y-138025713D02*
X106214885Y-138025713D01*
X106214885Y-138025713D02*
X106257742Y-138054285D01*
X106257742Y-138054285D02*
X106286314Y-138082856D01*
X106286314Y-138082856D02*
X106300600Y-138111428D01*
X106243457Y-137825714D02*
X106229171Y-137811428D01*
X106229171Y-137811428D02*
X106214885Y-137782857D01*
X106214885Y-137782857D02*
X106214885Y-137711428D01*
X106214885Y-137711428D02*
X106229171Y-137682857D01*
X106229171Y-137682857D02*
X106243457Y-137668571D01*
X106243457Y-137668571D02*
X106272028Y-137654285D01*
X106272028Y-137654285D02*
X106300600Y-137654285D01*
X106300600Y-137654285D02*
X106343457Y-137668571D01*
X106343457Y-137668571D02*
X106514885Y-137839999D01*
X106514885Y-137839999D02*
X106514885Y-137654285D01*
X106214885Y-135871428D02*
X106457742Y-135871428D01*
X106457742Y-135871428D02*
X106486314Y-135857142D01*
X106486314Y-135857142D02*
X106500600Y-135842857D01*
X106500600Y-135842857D02*
X106514885Y-135814285D01*
X106514885Y-135814285D02*
X106514885Y-135757142D01*
X106514885Y-135757142D02*
X106500600Y-135728571D01*
X106500600Y-135728571D02*
X106486314Y-135714285D01*
X106486314Y-135714285D02*
X106457742Y-135699999D01*
X106457742Y-135699999D02*
X106214885Y-135699999D01*
X106514885Y-135399999D02*
X106514885Y-135571428D01*
X106514885Y-135485713D02*
X106214885Y-135485713D01*
X106214885Y-135485713D02*
X106257742Y-135514285D01*
X106257742Y-135514285D02*
X106286314Y-135542856D01*
X106286314Y-135542856D02*
X106300600Y-135571428D01*
X106514885Y-135114285D02*
X106514885Y-135285714D01*
X106514885Y-135199999D02*
X106214885Y-135199999D01*
X106214885Y-135199999D02*
X106257742Y-135228571D01*
X106257742Y-135228571D02*
X106286314Y-135257142D01*
X106286314Y-135257142D02*
X106300600Y-135285714D01*
M02*
