G04 #@! TF.GenerationSoftware,KiCad,Pcbnew,9.0.7*
G04 #@! TF.CreationDate,2026-02-24T22:04:58+01:00*
G04 #@! TF.ProjectId,QuiverAttachPCB,51756976-6572-4417-9474-616368504342,rev?*
G04 #@! TF.SameCoordinates,Original*
G04 #@! TF.FileFunction,Legend,Top*
G04 #@! TF.FilePolarity,Positive*
%FSLAX46Y46*%
G04 Gerber Fmt 4.6, Leading zero omitted, Abs format (unit mm)*
G04 Created by KiCad (PCBNEW 9.0.7) date 2026-02-24 22:04:58*
%MOMM*%
%LPD*%
G01*
G04 APERTURE LIST*
G04 Aperture macros list*
%AMFreePoly0*
4,1,54,0.452500,0.050000,0.417000,0.043500,0.382000,0.034500,0.348000,0.024000,0.314000,0.011000,0.281500,-0.004000,0.249500,-0.020500,0.219000,-0.039500,0.189000,-0.060000,0.161000,-0.082000,0.134000,-0.106000,0.108500,-0.131500,0.084500,-0.158500,0.062500,-0.186500,0.042000,-0.216500,0.023000,-0.247000,0.006500,-0.279000,-0.008500,-0.311500,-0.021500,-0.345500,-0.032000,-0.379500,
-0.041000,-0.414500,-0.047500,-0.450000,-0.447500,-0.450000,-0.442000,-0.404500,-0.434500,-0.359000,-0.425000,-0.314000,-0.413500,-0.269500,-0.399500,-0.225500,-0.384000,-0.182500,-0.366000,-0.140000,-0.346500,-0.098500,-0.325000,-0.057500,-0.301500,-0.018000,-0.276500,0.020500,-0.249500,0.057500,-0.221000,0.093500,-0.191000,0.128500,-0.159000,0.161500,-0.126000,0.193500,-0.091000,0.223500,
-0.055000,0.252000,-0.018000,0.279000,0.020500,0.304000,0.060000,0.327500,0.101000,0.349000,0.142500,0.368500,0.185000,0.386500,0.228000,0.402000,0.272000,0.416000,0.316500,0.427500,0.361500,0.437000,0.407000,0.444500,0.452500,0.450000,0.452500,0.050000,0.452500,0.050000,$1*%
%AMFreePoly1*
4,1,54,-0.043500,0.417000,-0.034500,0.382000,-0.024000,0.348000,-0.011000,0.314000,0.004000,0.281500,0.020500,0.249500,0.039500,0.219000,0.060000,0.189000,0.082000,0.161000,0.106000,0.134000,0.131500,0.108500,0.158500,0.084500,0.186500,0.062500,0.216500,0.042000,0.247000,0.023000,0.279000,0.006500,0.311500,-0.008500,0.345500,-0.021500,0.379500,-0.032000,0.414500,-0.041000,
0.450000,-0.047500,0.450000,-0.447500,0.404500,-0.442000,0.359000,-0.434500,0.314000,-0.425000,0.269500,-0.413500,0.225500,-0.399500,0.182500,-0.384000,0.140000,-0.366000,0.098500,-0.346500,0.057500,-0.325000,0.018000,-0.301500,-0.020500,-0.276500,-0.057500,-0.249500,-0.093500,-0.221000,-0.128500,-0.191000,-0.161500,-0.159000,-0.193500,-0.126000,-0.223500,-0.091000,-0.252000,-0.055000,
-0.279000,-0.018000,-0.304000,0.020500,-0.327500,0.060000,-0.349000,0.101000,-0.368500,0.142500,-0.386500,0.185000,-0.402000,0.228000,-0.416000,0.272000,-0.427500,0.316500,-0.437000,0.361500,-0.444500,0.407000,-0.450000,0.452500,-0.050000,0.452500,-0.043500,0.417000,-0.043500,0.417000,$1*%
%AMFreePoly2*
4,1,66,0.077171,0.050000,0.100000,0.050000,0.100000,0.045459,0.204651,0.024643,0.332335,-0.028246,0.447247,-0.105028,0.544972,-0.202753,0.621754,-0.317665,0.674643,-0.445349,0.701605,-0.580898,0.701605,-0.719102,0.674643,-0.854651,0.621754,-0.982335,0.544972,-1.097247,0.447247,-1.194972,0.332335,-1.271754,0.204651,-1.324643,0.069102,-1.351605,-0.069102,-1.351605,-0.204651,-1.324643,
-0.332335,-1.271754,-0.447247,-1.194972,-0.544972,-1.097247,-0.621754,-0.982335,-0.674643,-0.854651,-0.701605,-0.719102,-0.701605,-0.580898,-0.699769,-0.571667,-0.595000,-0.571667,-0.595000,-0.728333,-0.554452,-0.879661,-0.476118,-1.015338,-0.365338,-1.126118,-0.229661,-1.204452,-0.078333,-1.245000,0.078333,-1.245000,0.229661,-1.204452,0.365338,-1.126118,0.476118,-1.015338,0.554452,-0.879661,
0.595000,-0.728333,0.595000,-0.571667,0.554452,-0.420339,0.476118,-0.284662,0.365338,-0.173882,0.229661,-0.095548,0.078333,-0.055000,-0.078333,-0.055000,-0.229661,-0.095548,-0.365338,-0.173882,-0.476118,-0.284662,-0.554452,-0.420339,-0.595000,-0.571667,-0.699769,-0.571667,-0.674643,-0.445349,-0.621754,-0.317665,-0.544972,-0.202753,-0.447247,-0.105028,-0.332335,-0.028246,-0.204651,0.024643,
-0.100000,0.045459,-0.100000,0.050000,-0.077171,0.050000,-0.069102,0.051605,0.069102,0.051605,0.077171,0.050000,0.077171,0.050000,$1*%
%AMFreePoly3*
4,1,54,-0.404500,0.442000,-0.359000,0.434500,-0.314000,0.425000,-0.269500,0.413500,-0.225500,0.399500,-0.182500,0.384000,-0.140000,0.366000,-0.098500,0.346500,-0.057500,0.325000,-0.018000,0.301500,0.020500,0.276500,0.057500,0.249500,0.093500,0.221000,0.128500,0.191000,0.161500,0.159000,0.193500,0.126000,0.223500,0.091000,0.252000,0.055000,0.279000,0.018000,0.304000,-0.020500,
0.327500,-0.060000,0.349000,-0.101000,0.368500,-0.142500,0.386500,-0.185000,0.402000,-0.228000,0.416000,-0.272000,0.427500,-0.316500,0.437000,-0.361500,0.444500,-0.407000,0.450000,-0.452500,0.050000,-0.452500,0.043500,-0.417000,0.034500,-0.382000,0.024000,-0.348000,0.011000,-0.314000,-0.004000,-0.281500,-0.020500,-0.249500,-0.039500,-0.219000,-0.060000,-0.189000,-0.082000,-0.161000,
-0.106000,-0.134000,-0.131500,-0.108500,-0.158500,-0.084500,-0.186500,-0.062500,-0.216500,-0.042000,-0.247000,-0.023000,-0.279000,-0.006500,-0.311500,0.008500,-0.345500,0.021500,-0.379500,0.032000,-0.414500,0.041000,-0.450000,0.047500,-0.450000,0.447500,-0.404500,0.442000,-0.404500,0.442000,$1*%
%AMFreePoly4*
4,1,54,0.442000,0.404500,0.434500,0.359000,0.425000,0.314000,0.413500,0.269500,0.399500,0.225500,0.384000,0.182500,0.366000,0.140000,0.346500,0.098500,0.325000,0.057500,0.301500,0.018000,0.276500,-0.020500,0.249500,-0.057500,0.221000,-0.093500,0.191000,-0.128500,0.159000,-0.161500,0.126000,-0.193500,0.091000,-0.223500,0.055000,-0.252000,0.018000,-0.279000,-0.020500,-0.304000,
-0.060000,-0.327500,-0.101000,-0.349000,-0.142500,-0.368500,-0.185000,-0.386500,-0.228000,-0.402000,-0.272000,-0.416000,-0.316500,-0.427500,-0.361500,-0.437000,-0.407000,-0.444500,-0.452500,-0.450000,-0.452500,-0.050000,-0.417000,-0.043500,-0.382000,-0.034500,-0.348000,-0.024000,-0.314000,-0.011000,-0.281500,0.004000,-0.249500,0.020500,-0.219000,0.039500,-0.189000,0.060000,-0.161000,0.082000,
-0.134000,0.106000,-0.108500,0.131500,-0.084500,0.158500,-0.062500,0.186500,-0.042000,0.216500,-0.023000,0.247000,-0.006500,0.279000,0.008500,0.311500,0.021500,0.345500,0.032000,0.379500,0.041000,0.414500,0.047500,0.450000,0.447500,0.450000,0.442000,0.404500,0.442000,0.404500,$1*%
G04 Aperture macros list end*
%ADD10C,0.300000*%
%ADD11C,0.508000*%
%ADD12C,0.600000*%
%ADD13FreePoly0,270.000000*%
%ADD14FreePoly1,270.000000*%
%ADD15FreePoly2,270.000000*%
%ADD16FreePoly3,270.000000*%
%ADD17FreePoly4,270.000000*%
%ADD18C,2.000000*%
G04 APERTURE END LIST*
D10*
X119000000Y-130500000D02*
X120500000Y-131500000D01*
X120500000Y-131500000D02*
X120500000Y-134500000D01*
X120500000Y-134500000D02*
X119000000Y-135500000D01*
X102322257Y-139416917D02*
X102322257Y-138702632D01*
X102750828Y-139559774D02*
X101250828Y-139059774D01*
X101250828Y-139059774D02*
X102750828Y-138559774D01*
X102750828Y-138059775D02*
X101750828Y-138059775D01*
X102036542Y-138059775D02*
X101893685Y-137988346D01*
X101893685Y-137988346D02*
X101822257Y-137916918D01*
X101822257Y-137916918D02*
X101750828Y-137774060D01*
X101750828Y-137774060D02*
X101750828Y-137631203D01*
X102750828Y-137131204D02*
X101750828Y-137131204D01*
X102036542Y-137131204D02*
X101893685Y-137059775D01*
X101893685Y-137059775D02*
X101822257Y-136988347D01*
X101822257Y-136988347D02*
X101750828Y-136845489D01*
X101750828Y-136845489D02*
X101750828Y-136702632D01*
X102750828Y-135988347D02*
X102679400Y-136131204D01*
X102679400Y-136131204D02*
X102607971Y-136202633D01*
X102607971Y-136202633D02*
X102465114Y-136274061D01*
X102465114Y-136274061D02*
X102036542Y-136274061D01*
X102036542Y-136274061D02*
X101893685Y-136202633D01*
X101893685Y-136202633D02*
X101822257Y-136131204D01*
X101822257Y-136131204D02*
X101750828Y-135988347D01*
X101750828Y-135988347D02*
X101750828Y-135774061D01*
X101750828Y-135774061D02*
X101822257Y-135631204D01*
X101822257Y-135631204D02*
X101893685Y-135559776D01*
X101893685Y-135559776D02*
X102036542Y-135488347D01*
X102036542Y-135488347D02*
X102465114Y-135488347D01*
X102465114Y-135488347D02*
X102607971Y-135559776D01*
X102607971Y-135559776D02*
X102679400Y-135631204D01*
X102679400Y-135631204D02*
X102750828Y-135774061D01*
X102750828Y-135774061D02*
X102750828Y-135988347D01*
X101750828Y-134988347D02*
X102750828Y-134702633D01*
X102750828Y-134702633D02*
X102036542Y-134416918D01*
X102036542Y-134416918D02*
X102750828Y-134131204D01*
X102750828Y-134131204D02*
X101750828Y-133845490D01*
X102322257Y-132202632D02*
X102322257Y-131488347D01*
X102750828Y-132345489D02*
X101250828Y-131845489D01*
X101250828Y-131845489D02*
X102750828Y-131345489D01*
X102750828Y-130845490D02*
X101750828Y-130845490D01*
X101250828Y-130845490D02*
X101322257Y-130916918D01*
X101322257Y-130916918D02*
X101393685Y-130845490D01*
X101393685Y-130845490D02*
X101322257Y-130774061D01*
X101322257Y-130774061D02*
X101250828Y-130845490D01*
X101250828Y-130845490D02*
X101393685Y-130845490D01*
X102750828Y-130131204D02*
X101750828Y-130131204D01*
X102036542Y-130131204D02*
X101893685Y-130059775D01*
X101893685Y-130059775D02*
X101822257Y-129988347D01*
X101822257Y-129988347D02*
X101750828Y-129845489D01*
X101750828Y-129845489D02*
X101750828Y-129702632D01*
D11*
G04 #@! TO.C,J1*
X103421400Y-128646298D02*
G75*
G02*
X102659400Y-128646298I-381000J0D01*
G01*
X102659400Y-128646298D02*
G75*
G02*
X103421400Y-128646298I381000J0D01*
G01*
G04 #@! TD*
%LPC*%
D12*
G04 #@! TO.C,U10*
X115340000Y-127960000D03*
D13*
X115890000Y-127407500D03*
D14*
X114787500Y-127410000D03*
D15*
X115990000Y-127960000D03*
D16*
X115892500Y-128510000D03*
D17*
X114790000Y-128512500D03*
G04 #@! TD*
D12*
G04 #@! TO.C,U9*
X115340000Y-130500000D03*
D13*
X115890000Y-129947500D03*
D14*
X114787500Y-129950000D03*
D15*
X115990000Y-130500000D03*
D16*
X115892500Y-131050000D03*
D17*
X114790000Y-131052500D03*
G04 #@! TD*
D12*
G04 #@! TO.C,U8*
X112800000Y-127960000D03*
D13*
X113350000Y-127407500D03*
D14*
X112247500Y-127410000D03*
D15*
X113450000Y-127960000D03*
D16*
X113352500Y-128510000D03*
D17*
X112250000Y-128512500D03*
G04 #@! TD*
D12*
G04 #@! TO.C,U7*
X112800000Y-130500000D03*
D13*
X113350000Y-129947500D03*
D14*
X112247500Y-129950000D03*
D15*
X113450000Y-130500000D03*
D16*
X113352500Y-131050000D03*
D17*
X112250000Y-131052500D03*
G04 #@! TD*
D12*
G04 #@! TO.C,U6*
X110260000Y-127960000D03*
D13*
X110810000Y-127407500D03*
D14*
X109707500Y-127410000D03*
D15*
X110910000Y-127960000D03*
D16*
X110812500Y-128510000D03*
D17*
X109710000Y-128512500D03*
G04 #@! TD*
D12*
G04 #@! TO.C,U5*
X110260000Y-130500000D03*
D13*
X110810000Y-129947500D03*
D14*
X109707500Y-129950000D03*
D15*
X110910000Y-130500000D03*
D16*
X110812500Y-131050000D03*
D17*
X109710000Y-131052500D03*
G04 #@! TD*
D12*
G04 #@! TO.C,U4*
X107720000Y-127960000D03*
D13*
X108270000Y-127407500D03*
D14*
X107167500Y-127410000D03*
D15*
X108370000Y-127960000D03*
D16*
X108272500Y-128510000D03*
D17*
X107170000Y-128512500D03*
G04 #@! TD*
D12*
G04 #@! TO.C,U3*
X107720000Y-130500000D03*
D13*
X108270000Y-129947500D03*
D14*
X107167500Y-129950000D03*
D15*
X108370000Y-130500000D03*
D16*
X108272500Y-131050000D03*
D17*
X107170000Y-131052500D03*
G04 #@! TD*
D12*
G04 #@! TO.C,U2*
X105180000Y-127960000D03*
D13*
X105730000Y-127407500D03*
D14*
X104627500Y-127410000D03*
D15*
X105830000Y-127960000D03*
D16*
X105732500Y-128510000D03*
D17*
X104630000Y-128512500D03*
G04 #@! TD*
D12*
G04 #@! TO.C,U1*
X105180000Y-130500000D03*
D13*
X105730000Y-129947500D03*
D14*
X104627500Y-129950000D03*
D15*
X105830000Y-130500000D03*
D16*
X105732500Y-131050000D03*
D17*
X104630000Y-131052500D03*
G04 #@! TD*
D18*
G04 #@! TO.C,U20*
X115340000Y-138040000D03*
G04 #@! TD*
G04 #@! TO.C,U19*
X115340000Y-135500000D03*
G04 #@! TD*
G04 #@! TO.C,U18*
X112800000Y-138040000D03*
G04 #@! TD*
G04 #@! TO.C,U17*
X112800000Y-135500000D03*
G04 #@! TD*
G04 #@! TO.C,U16*
X110260000Y-138040000D03*
G04 #@! TD*
G04 #@! TO.C,U15*
X110260000Y-135500000D03*
G04 #@! TD*
G04 #@! TO.C,U14*
X107720000Y-138040000D03*
G04 #@! TD*
G04 #@! TO.C,U13*
X107720000Y-135500000D03*
G04 #@! TD*
G04 #@! TO.C,U12*
X105180000Y-138040000D03*
G04 #@! TD*
G04 #@! TO.C,U11*
X105180000Y-135500000D03*
G04 #@! TD*
G36*
X113022733Y-131184416D02*
G01*
X113023202Y-131184610D01*
X113077627Y-131228425D01*
X113090303Y-131251588D01*
X113090498Y-131252057D01*
X113100000Y-131299663D01*
X113100000Y-132675336D01*
X113090498Y-132722942D01*
X113090303Y-132723411D01*
X113046389Y-132777755D01*
X113023411Y-132790303D01*
X113022942Y-132790498D01*
X112975336Y-132800000D01*
X112624664Y-132800000D01*
X112577145Y-132790534D01*
X112576675Y-132790339D01*
X112522297Y-132746466D01*
X112509610Y-132723202D01*
X112509416Y-132722733D01*
X112500000Y-132675336D01*
X112500000Y-131299663D01*
X112509416Y-131252266D01*
X112509610Y-131251797D01*
X112553425Y-131197372D01*
X112576883Y-131184574D01*
X112577353Y-131184380D01*
X112624664Y-131175000D01*
X112975336Y-131175000D01*
X113022733Y-131184416D01*
G37*
G36*
X113097733Y-126009416D02*
G01*
X113098202Y-126009610D01*
X113152627Y-126053425D01*
X113165303Y-126076588D01*
X113165498Y-126077057D01*
X113175000Y-126124663D01*
X113175000Y-127175336D01*
X113165498Y-127222942D01*
X113165303Y-127223411D01*
X113121389Y-127277755D01*
X113098411Y-127290303D01*
X113097942Y-127290498D01*
X113050336Y-127300000D01*
X112549664Y-127300000D01*
X112502145Y-127290534D01*
X112501675Y-127290339D01*
X112447297Y-127246466D01*
X112434610Y-127223202D01*
X112434416Y-127222733D01*
X112425000Y-127175336D01*
X112425000Y-126124663D01*
X112434416Y-126077266D01*
X112434610Y-126076797D01*
X112478425Y-126022372D01*
X112501883Y-126009574D01*
X112502353Y-126009380D01*
X112549664Y-126000000D01*
X113050336Y-126000000D01*
X113097733Y-126009416D01*
G37*
G36*
X108022733Y-131184416D02*
G01*
X108023202Y-131184610D01*
X108077627Y-131228425D01*
X108090303Y-131251588D01*
X108090498Y-131252057D01*
X108100000Y-131299663D01*
X108100000Y-132675336D01*
X108090498Y-132722942D01*
X108090303Y-132723411D01*
X108046389Y-132777755D01*
X108023411Y-132790303D01*
X108022942Y-132790498D01*
X107975336Y-132800000D01*
X107524664Y-132800000D01*
X107477145Y-132790534D01*
X107476675Y-132790339D01*
X107422297Y-132746466D01*
X107409610Y-132723202D01*
X107409416Y-132722733D01*
X107400000Y-132675336D01*
X107400000Y-131299663D01*
X107409416Y-131252266D01*
X107409610Y-131251797D01*
X107453425Y-131197372D01*
X107476883Y-131184574D01*
X107477353Y-131184380D01*
X107524664Y-131175000D01*
X107975336Y-131175000D01*
X108022733Y-131184416D01*
G37*
G36*
X105422733Y-131184416D02*
G01*
X105423202Y-131184610D01*
X105477627Y-131228425D01*
X105490303Y-131251588D01*
X105490498Y-131252057D01*
X105500000Y-131299663D01*
X105500000Y-132675336D01*
X105490498Y-132722942D01*
X105490303Y-132723411D01*
X105446389Y-132777755D01*
X105423411Y-132790303D01*
X105422942Y-132790498D01*
X105375336Y-132800000D01*
X104974664Y-132800000D01*
X104927145Y-132790534D01*
X104926675Y-132790339D01*
X104872297Y-132746466D01*
X104859610Y-132723202D01*
X104859416Y-132722733D01*
X104850000Y-132675336D01*
X104850000Y-131299663D01*
X104859416Y-131252266D01*
X104859610Y-131251797D01*
X104903425Y-131197372D01*
X104926883Y-131184574D01*
X104927353Y-131184380D01*
X104974664Y-131175000D01*
X105375336Y-131175000D01*
X105422733Y-131184416D01*
G37*
G36*
X110522733Y-131184416D02*
G01*
X110523202Y-131184610D01*
X110577627Y-131228425D01*
X110590303Y-131251588D01*
X110590498Y-131252057D01*
X110600000Y-131299663D01*
X110600000Y-132675336D01*
X110590498Y-132722942D01*
X110590303Y-132723411D01*
X110546389Y-132777755D01*
X110523411Y-132790303D01*
X110522942Y-132790498D01*
X110475336Y-132800000D01*
X110024664Y-132800000D01*
X109977145Y-132790534D01*
X109976675Y-132790339D01*
X109922297Y-132746466D01*
X109909610Y-132723202D01*
X109909416Y-132722733D01*
X109900000Y-132675336D01*
X109900000Y-131299663D01*
X109909416Y-131252266D01*
X109909610Y-131251797D01*
X109953425Y-131197372D01*
X109976883Y-131184574D01*
X109977353Y-131184380D01*
X110024664Y-131175000D01*
X110475336Y-131175000D01*
X110522733Y-131184416D01*
G37*
G36*
X107972733Y-126009416D02*
G01*
X107973202Y-126009610D01*
X108027627Y-126053425D01*
X108040303Y-126076588D01*
X108040498Y-126077057D01*
X108050000Y-126124663D01*
X108050000Y-127175336D01*
X108040498Y-127222942D01*
X108040303Y-127223411D01*
X107996389Y-127277755D01*
X107973411Y-127290303D01*
X107972942Y-127290498D01*
X107925336Y-127300000D01*
X107524664Y-127300000D01*
X107477145Y-127290534D01*
X107476675Y-127290339D01*
X107422297Y-127246466D01*
X107409610Y-127223202D01*
X107409416Y-127222733D01*
X107400000Y-127175336D01*
X107400000Y-126124663D01*
X107409416Y-126077266D01*
X107409610Y-126076797D01*
X107453425Y-126022372D01*
X107476883Y-126009574D01*
X107477353Y-126009380D01*
X107524664Y-126000000D01*
X107925336Y-126000000D01*
X107972733Y-126009416D01*
G37*
G36*
X115597733Y-131232061D02*
G01*
X115598202Y-131232255D01*
X115652627Y-131276070D01*
X115665303Y-131299233D01*
X115665498Y-131299702D01*
X115675000Y-131347308D01*
X115675000Y-132672981D01*
X115665498Y-132720587D01*
X115665303Y-132721056D01*
X115621389Y-132775400D01*
X115598411Y-132787948D01*
X115597942Y-132788143D01*
X115550336Y-132797645D01*
X115124664Y-132797645D01*
X115077145Y-132788179D01*
X115076675Y-132787984D01*
X115022297Y-132744111D01*
X115009610Y-132720847D01*
X115009416Y-132720378D01*
X115000000Y-132672981D01*
X115000000Y-131347308D01*
X115009416Y-131299911D01*
X115009610Y-131299442D01*
X115053425Y-131245017D01*
X115076883Y-131232219D01*
X115077353Y-131232025D01*
X115124664Y-131222645D01*
X115550336Y-131222645D01*
X115597733Y-131232061D01*
G37*
G36*
X110547733Y-126009416D02*
G01*
X110548202Y-126009610D01*
X110602627Y-126053425D01*
X110615303Y-126076588D01*
X110615498Y-126077057D01*
X110625000Y-126124663D01*
X110625000Y-127175336D01*
X110615498Y-127222942D01*
X110615303Y-127223411D01*
X110571389Y-127277755D01*
X110548411Y-127290303D01*
X110547942Y-127290498D01*
X110500336Y-127300000D01*
X109999664Y-127300000D01*
X109952145Y-127290534D01*
X109951675Y-127290339D01*
X109897297Y-127246466D01*
X109884610Y-127223202D01*
X109884416Y-127222733D01*
X109875000Y-127175336D01*
X109875000Y-126124663D01*
X109884416Y-126077266D01*
X109884610Y-126076797D01*
X109928425Y-126022372D01*
X109951883Y-126009574D01*
X109952353Y-126009380D01*
X109999664Y-126000000D01*
X110500336Y-126000000D01*
X110547733Y-126009416D01*
G37*
G36*
X105422733Y-126001040D02*
G01*
X105423202Y-126001234D01*
X105477627Y-126045049D01*
X105490303Y-126068212D01*
X105490498Y-126068681D01*
X105500000Y-126116287D01*
X105500000Y-127166960D01*
X105490498Y-127214566D01*
X105490303Y-127215035D01*
X105446389Y-127269379D01*
X105423411Y-127281927D01*
X105422942Y-127282122D01*
X105375336Y-127291624D01*
X104974664Y-127291624D01*
X104927145Y-127282158D01*
X104926675Y-127281963D01*
X104872297Y-127238090D01*
X104859610Y-127214826D01*
X104859416Y-127214357D01*
X104850000Y-127166960D01*
X104850000Y-126116287D01*
X104859416Y-126068890D01*
X104859610Y-126068421D01*
X104903425Y-126013996D01*
X104926883Y-126001198D01*
X104927353Y-126001004D01*
X104974664Y-125991624D01*
X105375336Y-125991624D01*
X105422733Y-126001040D01*
G37*
G36*
X115622733Y-126007061D02*
G01*
X115623202Y-126007255D01*
X115677627Y-126051070D01*
X115690303Y-126074233D01*
X115690498Y-126074702D01*
X115700000Y-126122308D01*
X115700000Y-127147981D01*
X115690498Y-127195587D01*
X115690303Y-127196056D01*
X115646389Y-127250400D01*
X115623411Y-127262948D01*
X115622942Y-127263143D01*
X115575336Y-127272645D01*
X115124664Y-127272645D01*
X115077145Y-127263179D01*
X115076675Y-127262984D01*
X115022297Y-127219111D01*
X115009610Y-127195847D01*
X115009416Y-127195378D01*
X115000000Y-127147981D01*
X115000000Y-126122308D01*
X115009416Y-126074911D01*
X115009610Y-126074442D01*
X115053425Y-126020017D01*
X115076883Y-126007219D01*
X115077353Y-126007025D01*
X115124664Y-125997645D01*
X115575336Y-125997645D01*
X115622733Y-126007061D01*
G37*
%LPD*%
M02*
