999
dxfrw 0.6.3
  0
SECTION
  2
HEADER
  9
$ACADVER
  1
AC1021
  9
$DWGCODEPAGE
  3
ANSI_1252
  9
$INSBASE
 10
0
 20
0
 30
0
  9
$EXTMIN
 10
-8.413514317620212
 20
-7.105427357601001e-14
 30
0
  9
$EXTMAX
 10
602.3461390031734
 20
595.3575617554011
 30
0
  9
$LIMMIN
 10
0
 20
0
  9
$LIMMAX
 10
420
 20
297
  9
$ORTHOMODE
 70
    0
  9
$REGENMODE
 70
    1
  9
$FILLMODE
 70
    1
  9
$QTEXTMODE
 70
    0
  9
$MIRRTEXT
 70
    0
  9
$LTSCALE
 40
1
  9
$ATTMODE
 70
    0
  9
$TEXTSIZE
 40
2.5
  9
$TRACEWID
 40
15.68
  9
$TEXTSTYLE
  7
STANDARD
  9
$CLAYER
  8
0
  9
$CELTYPE
  6
BYLAYER
  9
$CECOLOR
 62
  256
  9
$CELTSCALE
 40
1
  9
$DISPSILH
 70
    0
  9
$DIMSCALE
 40
2.5
  9
$DIMASZ
 40
2.5
  9
$DIMEXO
 40
0.625
  9
$DIMDLI
 40
3.75
  9
$DIMRND
 40
0
  9
$DIMDLE
 40
0
  9
$DIMEXE
 40
1.25
  9
$DIMTP
 40
0
  9
$DIMTM
 40
0
  9
$DIMTXT
 40
2.5
  9
$DIMCEN
 40
2.5
  9
$DIMTSZ
 40
0
  9
$DIMTOL
 70
    0
  9
$DIMLIM
 70
    0
  9
$DIMTIH
 70
    0
  9
$DIMTOH
 70
    0
  9
$DIMSE1
 70
    0
  9
$DIMSE2
 70
    0
  9
$DIMTAD
 70
    1
  9
$DIMZIN
 70
    8
  9
$DIMBLK
  1

  9
$DIMASO
 70
    1
  9
$DIMSHO
 70
    1
  9
$DIMPOST
  1

  9
$DIMAPOST
  1

  9
$DIMALT
 70
    0
  9
$DIMALTD
 70
    3
  9
$DIMALTF
 40
0.03937
  9
$DIMLFAC
 40
1
  9
$DIMTOFL
 70
    1
  9
$DIMTVP
 40
0
  9
$DIMTIX
 70
    0
  9
$DIMSOXD
 70
    0
  9
$DIMSAH
 70
    0
  9
$DIMBLK1
  1

  9
$DIMBLK2
  1

  9
$DIMSTYLE
  2
Standard
  9
$DIMCLRD
 70
    0
  9
$DIMCLRE
 70
    0
  9
$DIMCLRT
 70
    0
  9
$DIMTFAC
 40
1
  9
$DIMGAP
 40
0.625
  9
$DIMJUST
 70
    0
  9
$DIMSD1
 70
    0
  9
$DIMSD2
 70
    0
  9
$DIMTOLJ
 70
    0
  9
$DIMTZIN
 70
    8
  9
$DIMALTZ
 70
    0
  9
$DIMALTTZ
 70
    0
  9
$DIMUPT
 70
    0
  9
$DIMDEC
 70
    2
  9
$DIMTDEC
 70
    2
  9
$DIMALTU
 70
    2
  9
$DIMALTTD
 70
    3
  9
$DIMTXSTY
  7
STANDARD
  9
$DIMAUNIT
 70
    0
  9
$DIMADEC
 70
    0
  9
$DIMALTRND
 40
0
  9
$DIMAZIN
 70
    0
  9
$DIMDSEP
 70
   44
  9
$DIMATFIT
 70
    3
  9
$DIMFRAC
 70
    0
  9
$DIMLDRBLK
  1
STANDARD
  9
$DIMLUNIT
 70
    2
  9
$DIMLWD
 70
   -2
  9
$DIMLWE
 70
   -2
  9
$DIMTMOVE
 70
    0
  9
$DIMFXL
 40
1
  9
$DIMFXLON
 70
    0
  9
$DIMJOGANG
 40
0.7854
  9
$DIMTFILL
 70
    0
  9
$DIMTFILLCLR
 70
    0
  9
$DIMARCSYM
 70
    0
  9
$DIMLTYPE
  6

  9
$DIMLTEX1
  6

  9
$DIMLTEX2
  6

  9
$LUNITS
 70
    2
  9
$LUPREC
 70
    4
  9
$SKETCHINC
 40
1
  9
$FILLETRAD
 40
0
  9
$AUNITS
 70
    0
  9
$AUPREC
 70
    2
  9
$MENU
  1
.
  9
$ELEVATION
 40
0
  9
$PELEVATION
 40
0
  9
$THICKNESS
 40
0
  9
$LIMCHECK
 70
    0
  9
$CHAMFERA
 40
0
  9
$CHAMFERB
 40
0
  9
$CHAMFERC
 40
0
  9
$CHAMFERD
 40
0
  9
$SKPOLY
 70
    0
  9
$USRTIMER
 70
    1
  9
$ANGBASE
 50
0
  9
$ANGDIR
 70
    0
  9
$PDMODE
 70
   96
  9
$PDSIZE
 40
-2
  9
$PLINEWID
 40
0
  9
$SPLFRAME
 70
    0
  9
$SPLINETYPE
 70
    2
  9
$SPLINESEGS
 70
    8
  9
$HANDSEED
  5
20000
  9
$SURFTAB1
 70
    6
  9
$SURFTAB2
 70
    6
  9
$SURFTYPE
 70
    6
  9
$SURFU
 70
    6
  9
$SURFV
 70
    6
  9
$UCSBASE
  2

  9
$UCSNAME
  2

  9
$UCSORG
 10
0
 20
0
 30
0
  9
$UCSXDIR
 10
1
 20
0
 30
0
  9
$UCSYDIR
 10
0
 20
1
 30
0
  9
$UCSORTHOREF
  2

  9
$UCSORTHOVIEW
 70
    0
  9
$UCSORGTOP
 10
0
 20
0
 30
0
  9
$UCSORGBOTTOM
 10
0
 20
0
 30
0
  9
$UCSORGLEFT
 10
0
 20
0
 30
0
  9
$UCSORGRIGHT
 10
0
 20
0
 30
0
  9
$UCSORGFRONT
 10
0
 20
0
 30
0
  9
$UCSORGBACK
 10
0
 20
0
 30
0
  9
$PUCSBASE
  2

  9
$PUCSNAME
  2

  9
$PUCSORG
 10
0
 20
0
 30
0
  9
$PUCSXDIR
 10
1
 20
0
 30
0
  9
$PUCSYDIR
 10
0
 20
1
 30
0
  9
$PUCSORTHOREF
  2

  9
$PUCSORTHOVIEW
 70
    0
  9
$PUCSORGTOP
 10
0
 20
0
 30
0
  9
$PUCSORGBOTTOM
 10
0
 20
0
 30
0
  9
$PUCSORGLEFT
 10
0
 20
0
 30
0
  9
$PUCSORGRIGHT
 10
0
 20
0
 30
0
  9
$PUCSORGFRONT
 10
0
 20
0
 30
0
  9
$PUCSORGBACK
 10
0
 20
0
 30
0
  9
$USERI1
 70
    0
  9
$USERI2
 70
    0
  9
$USERI3
 70
    0
  9
$USERI4
 70
    0
  9
$USERI5
 70
    0
  9
$USERR1
 40
0
  9
$USERR2
 40
0
  9
$USERR3
 40
0
  9
$USERR4
 40
0
  9
$USERR5
 40
0
  9
$WORLDVIEW
 70
    1
  9
$SHADEDGE
 70
    3
  9
$SHADEDIF
 70
   70
  9
$TILEMODE
 70
    1
  9
$MAXACTVP
 70
   64
  9
$PINSBASE
 10
0
 20
0
 30
0
  9
$PLIMCHECK
 70
    0
  9
$PEXTMIN
 10
0
 20
0
 30
0
  9
$PEXTMAX
 10
0
 20
0
 30
0
  9
$GRIDMODE
 70
    1
  9
$SNAPSTYLE
 70
    0
  9
$PLIMMIN
 10
0
 20
0
  9
$PLIMMAX
 10
210
 20
297
  9
$UNITMODE
 70
    0
  9
$VISRETAIN
 70
    1
  9
$PLINEGEN
 70
    0
  9
$PSLTSCALE
 70
    1
  9
$TREEDEPTH
 70
 3020
  9
$CMLSTYLE
  2
Standard
  9
$CMLJUST
 70
    0
  9
$CMLSCALE
 40
20
  9
$PROXYGRAPHICS
 70
    1
  9
$MEASUREMENT
 70
    1
  9
$CELWEIGHT
370
   -1
  9
$ENDCAPS
280
    0
  9
$JOINSTYLE
280
    0
  9
$LWDISPLAY
290
    0
  9
$INSUNITS
 70
    4
  9
$HYPERLINKBASE
  1

  9
$STYLESHEET
  1

  9
$XEDIT
290
    1
  9
$CEPSNTYPE
380
    0
  9
$PSTYLEMODE
290
    1
  9
$EXTNAMES
290
    1
  9
$PSVPSCALE
 40
1
  9
$OLESTARTUP
290
    0
  9
$SORTENTS
280
  127
  9
$INDEXCTL
280
    0
  9
$HIDETEXT
280
    1
  9
$XCLIPFRAME
290
    0
  9
$HALOGAP
280
    0
  9
$OBSCOLOR
 70
  257
  9
$OBSLTYPE
280
    0
  9
$INTERSECTIONDISPLAY
280
    0
  9
$INTERSECTIONCOLOR
 70
  257
  9
$DIMASSOC
280
    1
  9
$PROJECTNAME
  1

  9
$CAMERADISPLAY
290
    0
  9
$LENSLENGTH
 40
50
  9
$CAMERAHEIGHT
 40
0
  9
$STEPSPERSEC
 40
2
  9
$STEPSIZE
 40
50
  9
$3DDWFPREC
 40
2
  9
$PSOLWIDTH
 40
5
  9
$PSOLHEIGHT
 40
80
  9
$LOFTANG1
 40
1.570796326794897
  9
$LOFTANG2
 40
1.570796326794897
  9
$LOFTMAG1
 40
0
  9
$LOFTMAG2
 40
0
  9
$LOFTPARAM
 70
    7
  9
$LOFTNORMALS
280
    1
  9
$LATITUDE
 40
1
  9
$LONGITUDE
 40
1
  9
$NORTHDIRECTION
 40
0
  9
$TIMEZONE
 70
-8000
  9
$LIGHTGLYPHDISPLAY
280
    1
  9
$TILEMODELIGHTSYNCH
280
    1
  9
$SOLIDHIST
280
    1
  9
$SHOWHIST
280
    1
  9
$DWFFRAME
280
    2
  9
$DGNFRAME
280
    0
  9
$REALWORLDSCALE
290
    1
  9
$INTERFERECOLOR
 62
    1
  9
$CSHADOW
280
    0
  9
$SHADOWPLANELOCATION
 40
0
  0
ENDSEC
  0
SECTION
  2
CLASSES
  0
ENDSEC
  0
SECTION
  2
TABLES
  0
TABLE
  2
VPORT
  5
8
330
0
100
AcDbSymbolTable
 70
    1
  0
VPORT
  5
31
330
2
100
AcDbSymbolTableRecord
100
AcDbViewportTableRecord
  2
*ACTIVE
 70
    0
 10
0
 20
0
 11
1
 21
1
 12
580.2775963397924
 22
368.1663014026517
 13
0
 23
0
 14
10
 24
10
 15
10
 25
10
 16
0
 26
0
 36
1
 17
0
 27
0
 37
0
 40
857.4711922990791
 41
1.762880886426593
 42
50
 43
0
 44
0
 50
0
 51
0
 71
    0
 72
  100
 73
    1
 74
    3
 75
    0
 76
    1
 77
    0
 78
    0
281
    0
 65
    1
110
0
120
0
130
0
111
1
121
0
131
0
112
0
122
1
132
0
 79
    0
146
0
348
10020
 60
    7
 61
    5
292
1
282
    1
141
0
142
0
 63
  250
421
3358443
  0
ENDTAB
  0
TABLE
  2
LTYPE
  5
5
330
0
100
AcDbSymbolTable
 70
    4
  0
LTYPE
  5
14
330
5
100
AcDbSymbolTableRecord
100
AcDbLinetypeTableRecord
  2
ByBlock
 70
    0
  3

 72
   65
 73
    0
 40
0
  0
LTYPE
  5
15
330
5
100
AcDbSymbolTableRecord
100
AcDbLinetypeTableRecord
  2
ByLayer
 70
    0
  3

 72
   65
 73
    0
 40
0
  0
LTYPE
  5
16
330
5
100
AcDbSymbolTableRecord
100
AcDbLinetypeTableRecord
  2
Continuous
 70
    0
  3
Solid line
 72
   65
 73
    0
 40
0
  0
LTYPE
  5
32
330
5
100
AcDbSymbolTableRecord
100
AcDbLinetypeTableRecord
  2
DOT
 70
    0
  3
Dot . . . . . . . . . . . . . . . . . . . . . .
 72
   65
 73
    2
 40
6.35
 49
0
 74
    0
 49
-6.35
 74
    0
  0
LTYPE
  5
33
330
5
100
AcDbSymbolTableRecord
100
AcDbLinetypeTableRecord
  2
DOTTINY
 70
    0
  3
Dot (.15x) .....................................
 72
   65
 73
    2
 40
0.9525
 49
0
 74
    0
 49
-0.9525
 74
    0
  0
LTYPE
  5
34
330
5
100
AcDbSymbolTableRecord
100
AcDbLinetypeTableRecord
  2
DOT2
 70
    0
  3
Dot (.5x) .....................................
 72
   65
 73
    2
 40
3.175
 49
0
 74
    0
 49
-3.175
 74
    0
  0
LTYPE
  5
35
330
5
100
AcDbSymbolTableRecord
100
AcDbLinetypeTableRecord
  2
DOTX2
 70
    0
  3
Dot (2x) .  .  .  .  .  .  .  .  .  .  .  .  .
 72
   65
 73
    2
 40
12.7
 49
0
 74
    0
 49
-12.7
 74
    0
  0
LTYPE
  5
36
330
5
100
AcDbSymbolTableRecord
100
AcDbLinetypeTableRecord
  2
DASHED
 70
    0
  3
Dashed _ _ _ _ _ _ _ _ _ _ _ _ _ _ _ _ _
 72
   65
 73
    2
 40
19.05
 49
12.7
 74
    0
 49
-6.35
 74
    0
  0
LTYPE
  5
37
330
5
100
AcDbSymbolTableRecord
100
AcDbLinetypeTableRecord
  2
DASHEDTINY
 70
    0
  3
Dashed (.15x) _ _ _ _ _ _ _ _ _ _ _ _ _ _ _ _ _
 72
   65
 73
    2
 40
2.8575
 49
1.905
 74
    0
 49
-0.9525
 74
    0
  0
LTYPE
  5
38
330
5
100
AcDbSymbolTableRecord
100
AcDbLinetypeTableRecord
  2
DASHED2
 70
    0
  3
Dashed (.5x) _ _ _ _ _ _ _ _ _ _ _ _ _ _ _ _ _
 72
   65
 73
    2
 40
9.524999999999999
 49
6.35
 74
    0
 49
-3.175
 74
    0
  0
LTYPE
  5
39
330
5
100
AcDbSymbolTableRecord
100
AcDbLinetypeTableRecord
  2
DASHEDX2
 70
    0
  3
Dashed (2x) ____  ____  ____  ____  ____  ___
 72
   65
 73
    2
 40
38.09999999999999
 49
25.4
 74
    0
 49
-12.7
 74
    0
  0
LTYPE
  5
3A
330
5
100
AcDbSymbolTableRecord
100
AcDbLinetypeTableRecord
  2
DASHDOT
 70
    0
  3
Dash dot __ . __ . __ . __ . __ . __ . __ . __
 72
   65
 73
    4
 40
25.4
 49
12.7
 74
    0
 49
-6.35
 74
    0
 49
0
 74
    0
 49
-6.35
 74
    0
  0
LTYPE
  5
3B
330
5
100
AcDbSymbolTableRecord
100
AcDbLinetypeTableRecord
  2
DASHDOTTINY
 70
    0
  3
Dash dot (.15x) _._._._._._._._._._._._._._._.
 72
   65
 73
    4
 40
3.81
 49
1.905
 74
    0
 49
-0.9525
 74
    0
 49
0
 74
    0
 49
-0.9525
 74
    0
  0
LTYPE
  5
3C
330
5
100
AcDbSymbolTableRecord
100
AcDbLinetypeTableRecord
  2
DASHDOT2
 70
    0
  3
Dash dot (.5x) _._._._._._._._._._._._._._._.
 72
   65
 73
    4
 40
12.7
 49
6.35
 74
    0
 49
-3.175
 74
    0
 49
0
 74
    0
 49
-3.175
 74
    0
  0
LTYPE
  5
3D
330
5
100
AcDbSymbolTableRecord
100
AcDbLinetypeTableRecord
  2
DASHDOTX2
 70
    0
  3
Dash dot (2x) ____  .  ____  .  ____  .  ___
 72
   65
 73
    4
 40
50.8
 49
25.4
 74
    0
 49
-12.7
 74
    0
 49
0
 74
    0
 49
-12.7
 74
    0
  0
LTYPE
  5
3E
330
5
100
AcDbSymbolTableRecord
100
AcDbLinetypeTableRecord
  2
DIVIDE
 70
    0
  3
Divide ____ . . ____ . . ____ . . ____ . . ____
 72
   65
 73
    6
 40
31.75
 49
12.7
 74
    0
 49
-6.35
 74
    0
 49
0
 74
    0
 49
-6.35
 74
    0
 49
0
 74
    0
 49
-6.35
 74
    0
  0
LTYPE
  5
3F
330
5
100
AcDbSymbolTableRecord
100
AcDbLinetypeTableRecord
  2
DIVIDETINY
 70
    0
  3
Divide (.15x) __..__..__..__..__..__..__..__.._
 72
   65
 73
    6
 40
4.7625
 49
1.905
 74
    0
 49
-0.9525
 74
    0
 49
0
 74
    0
 49
-0.9525
 74
    0
 49
0
 74
    0
 49
-0.9525
 74
    0
  0
LTYPE
  5
40
330
5
100
AcDbSymbolTableRecord
100
AcDbLinetypeTableRecord
  2
DIVIDE2
 70
    0
  3
Divide (.5x) __..__..__..__..__..__..__..__.._
 72
   65
 73
    6
 40
15.875
 49
6.35
 74
    0
 49
-3.175
 74
    0
 49
0
 74
    0
 49
-3.175
 74
    0
 49
0
 74
    0
 49
-3.175
 74
    0
  0
LTYPE
  5
41
330
5
100
AcDbSymbolTableRecord
100
AcDbLinetypeTableRecord
  2
DIVIDEX2
 70
    0
  3
Divide (2x) ________  .  .  ________  .  .  _
 72
   65
 73
    6
 40
63.5
 49
25.4
 74
    0
 49
-12.7
 74
    0
 49
0
 74
    0
 49
-12.7
 74
    0
 49
0
 74
    0
 49
-12.7
 74
    0
  0
LTYPE
  5
42
330
5
100
AcDbSymbolTableRecord
100
AcDbLinetypeTableRecord
  2
BORDER
 70
    0
  3
Border __ __ . __ __ . __ __ . __ __ . __ __ .
 72
   65
 73
    6
 40
44.45
 49
12.7
 74
    0
 49
-6.35
 74
    0
 49
12.7
 74
    0
 49
-6.35
 74
    0
 49
0
 74
    0
 49
-6.35
 74
    0
  0
LTYPE
  5
43
330
5
100
AcDbSymbolTableRecord
100
AcDbLinetypeTableRecord
  2
BORDERTINY
 70
    0
  3
Border (.15x) __.__.__.__.__.__.__.__.__.__.__.
 72
   65
 73
    6
 40
6.6675
 49
1.905
 74
    0
 49
-0.9525
 74
    0
 49
1.905
 74
    0
 49
-0.9525
 74
    0
 49
0
 74
    0
 49
-0.9525
 74
    0
  0
LTYPE
  5
44
330
5
100
AcDbSymbolTableRecord
100
AcDbLinetypeTableRecord
  2
BORDER2
 70
    0
  3
Border (.5x) __.__.__.__.__.__.__.__.__.__.__.
 72
   65
 73
    6
 40
22.225
 49
6.35
 74
    0
 49
-3.175
 74
    0
 49
6.35
 74
    0
 49
-3.175
 74
    0
 49
0
 74
    0
 49
-3.175
 74
    0
  0
LTYPE
  5
45
330
5
100
AcDbSymbolTableRecord
100
AcDbLinetypeTableRecord
  2
BORDERX2
 70
    0
  3
Border (2x) ____  ____  .  ____  ____  .  ___
 72
   65
 73
    6
 40
88.89999999999999
 49
25.4
 74
    0
 49
-12.7
 74
    0
 49
25.4
 74
    0
 49
-12.7
 74
    0
 49
0
 74
    0
 49
-12.7
 74
    0
  0
LTYPE
  5
46
330
5
100
AcDbSymbolTableRecord
100
AcDbLinetypeTableRecord
  2
CENTER
 70
    0
  3
Center ____ _ ____ _ ____ _ ____ _ ____ _ ____
 72
   65
 73
    4
 40
50.8
 49
31.75
 74
    0
 49
-6.35
 74
    0
 49
6.35
 74
    0
 49
-6.35
 74
    0
  0
LTYPE
  5
47
330
5
100
AcDbSymbolTableRecord
100
AcDbLinetypeTableRecord
  2
CENTERTINY
 70
    0
  3
Center (.15x) ___ _ ___ _ ___ _ ___ _ ___ _ ___
 72
   65
 73
    4
 40
7.619999999999999
 49
4.7625
 74
    0
 49
-0.9525
 74
    0
 49
0.9525
 74
    0
 49
-0.9525
 74
    0
  0
LTYPE
  5
48
330
5
100
AcDbSymbolTableRecord
100
AcDbLinetypeTableRecord
  2
CENTER2
 70
    0
  3
Center (.5x) ___ _ ___ _ ___ _ ___ _ ___ _ ___
 72
   65
 73
    4
 40
28.575
 49
19.05
 74
    0
 49
-3.175
 74
    0
 49
3.175
 74
    0
 49
-3.175
 74
    0
  0
LTYPE
  5
49
330
5
100
AcDbSymbolTableRecord
100
AcDbLinetypeTableRecord
  2
CENTERX2
 70
    0
  3
Center (2x) ________  __  ________  __  _____
 72
   65
 73
    4
 40
101.6
 49
63.5
 74
    0
 49
-12.7
 74
    0
 49
12.7
 74
    0
 49
-12.7
 74
    0
  0
ENDTAB
  0
TABLE
  2
LAYER
  5
2
330
0
100
AcDbSymbolTable
 70
    1
  0
LAYER
  5
10
330
2
100
AcDbSymbolTableRecord
100
AcDbLayerTableRecord
  2
0
 70
    0
 62
    7
  6
CONTINUOUS
370
   -3
390
F
  0
LAYER
  5
4A
330
2
100
AcDbSymbolTableRecord
100
AcDbLayerTableRecord
  2
INTERIOR_PROFILES
 70
    0
 62
    7
  6
CONTINUOUS
370
   -3
390
F
  0
LAYER
  5
4B
330
2
100
AcDbSymbolTableRecord
100
AcDbLayerTableRecord
  2
OUTER_PROFILES
 70
    0
 62
    7
  6
CONTINUOUS
370
   -3
390
F
  0
ENDTAB
  0
TABLE
  2
STYLE
  5
3
330
0
100
AcDbSymbolTable
 70
    3
  0
STYLE
  5
4C
330
2
100
AcDbSymbolTableRecord
100
AcDbTextStyleTableRecord
  2
Standard
 70
    0
 40
0
 41
1
 50
0
 71
    0
 42
1
  3
txt
  4

  0
ENDTAB
  0
TABLE
  2
VIEW
  5
6
330
0
100
AcDbSymbolTable
 70
    0
  0
ENDTAB
  0
TABLE
  2
UCS
  5
7
330
0
100
AcDbSymbolTable
 70
    0
  0
ENDTAB
  0
TABLE
  2
APPID
  5
9
330
0
100
AcDbSymbolTable
 70
    1
  0
APPID
  5
12
330
9
100
AcDbSymbolTableRecord
100
AcDbRegAppTableRecord
  2
ACAD
 70
    0
  0
APPID
  5
4D
330
9
100
AcDbSymbolTableRecord
100
AcDbRegAppTableRecord
  2
LibreCad
 70
    0
  0
ENDTAB
  0
TABLE
  2
DIMSTYLE
  5
A
330
0
100
AcDbSymbolTable
 70
    1
100
AcDbDimStyleTable
 71
    1
  0
DIMSTYLE
105
4E
330
A
100
AcDbSymbolTableRecord
100
AcDbDimStyleTableRecord
  2
Standard
 70
    0
 40
2.5
 41
2.5
 42
0.625
 43
0.38
 44
1.25
 45
0
 46
0
 47
0
 48
0
 49
1
140
2.5
141
0.09
142
0
143
25.4
144
1
145
0
146
1
147
0.625
148
0
 71
    0
 72
    0
 73
    0
 74
    1
 75
    0
 76
    0
 77
    0
 78
    8
 79
    0
170
    0
171
    2
172
    0
173
    0
174
    0
175
    0
176
    0
177
    0
178
    0
179
    0
271
    2
272
    4
273
    2
274
    2
275
    0
276
    0
277
    2
278
   44
279
    0
280
    0
281
    0
282
    0
283
    1
284
    0
285
    0
286
    0
288
    0
289
    3
340
4C
  0
ENDTAB
  0
TABLE
  2
BLOCK_RECORD
  5
1
330
0
100
AcDbSymbolTable
 70
    2
  0
BLOCK_RECORD
  5
1F
330
1
100
AcDbSymbolTableRecord
100
AcDbBlockTableRecord
  2
*Model_Space
 70
    0
280
    1
281
    0
  0
BLOCK_RECORD
  5
1E
330
1
100
AcDbSymbolTableRecord
100
AcDbBlockTableRecord
  2
*Paper_Space
 70
    0
280
    1
281
    0
  0
BLOCK_RECORD
  5
4F
330
1
100
AcDbSymbolTableRecord
100
AcDbBlockTableRecord
  2
Bottom_Middle_Part
 70
    0
280
    1
281
    0
  0
BLOCK_RECORD
  5
52
330
1
100
AcDbSymbolTableRecord
100
AcDbBlockTableRecord
  2
Top_T
 70
    0
280
    1
281
    0
  0
BLOCK_RECORD
  5
55
330
1
100
AcDbSymbolTableRecord
100
AcDbBlockTableRecord
  2
Top_B
 70
    0
280
    1
281
    0
  0
ENDTAB
  0
ENDSEC
  0
SECTION
  2
BLOCKS
  0
BLOCK
  5
20
330
1F
100
AcDbEntity
  8
0
100
AcDbBlockBegin
  2
*Model_Space
 70
    0
 10
0
 20
0
 30
0
  3
*Model_Space
  1

  0
ENDBLK
  5
21
330
1F
100
AcDbEntity
  8
0
100
AcDbBlockEnd
  0
BLOCK
  5
1C
330
1B
100
AcDbEntity
  8
0
100
AcDbBlockBegin
  2
*Paper_Space
 70
    0
 10
0
 20
0
 30
0
  3
*Paper_Space
  1

  0
ENDBLK
  5
1D
330
1F
100
AcDbEntity
  8
0
100
AcDbBlockEnd
  0
BLOCK
  5
50
330
4F
100
AcDbEntity
  8
0
100
AcDbBlockBegin
  2
Bottom_Middle_Part
 70
    0
 10
0
 20
0
  3
Bottom_Middle_Part
  1

  0
LWPOLYLINE
  5
58
100
AcDbEntity
  8
OUTER_PROFILES
  6
ByLayer
 62
  256
370
   -1
100
AcDbPolyline
 90
   24
 70
    1
 43
0
 10
-186.0742603594935
 20
282.6512969142283
 10
-186.0742603594936
 20
151.135591102909
 42
0.292610889860677
 10
-180.2624105967744
 20
142.0548754047956
 42
-0.640021112424712
 10
-180.2624105967745
 20
51.2477184236611
 42
0.2926108898606766
 10
-186.0742603594936
 20
42.16700272554765
 10
-186.0742603594935
 20
10.15129691423165
 42
0.414213562373095
 10
-176.0742603594935
 20
0.1512969142316472
 10
-28.07426035948561
 20
0.1512969142316418
 42
0.414213562373095
 10
-18.07426035948561
 20
10.15129691423164
 10
-18.07426035948559
 20
282.6512969142283
 42
0.4142135623730948
 10
-28.07426035948558
 20
292.6512969142283
 10
-88.07426035948558
 20
292.6512969142283
 42
-0.414213562373095
 10
-98.07426035948558
 20
302.6512969142283
 10
-98.07426035948558
 20
382.6512969142283
 42
-0.414213562373095
 10
-88.07426035948558
 20
392.6512969142283
 10
-18.07426035948559
 20
392.6512969142283
 10
-18.07426035948558
 20
412.1512969142413
 10
-186.0742603594935
 20
412.1512969142413
 10
-186.0742603594935
 20
392.6512969142283
 10
-126.0742603594934
 20
392.6512969142283
 42
-0.4142135623730945
 10
-116.0742603594935
 20
382.6512969142283
 10
-116.0742603594935
 20
302.6512969142283
 42
-0.414213562373095
 10
-126.0742603594935
 20
292.6512969142283
 10
-176.0742603594935
 20
292.6512969142283
 42
0.414213562373095
  0
CIRCLE
  5
59
100
AcDbEntity
  8
INTERIOR_PROFILES
  6
ByLayer
 62
  256
370
   -1
100
AcDbCircle
 10
-82.07426035949476
 20
219.6512969142283
 40
50
  0
ENDBLK
  5
51
330
4F
100
AcDbEntity
  8
0
100
AcDbBlockEnd
  0
BLOCK
  5
53
330
52
100
AcDbEntity
  8
0
100
AcDbBlockBegin
  2
Top_T
 70
    0
 10
0
 20
0
  3
Top_T
  1

  0
LWPOLYLINE
  5
5A
100
AcDbEntity
  8
OUTER_PROFILES
  6
ByLayer
 62
  256
370
   -1
100
AcDbPolyline
 90
   12
 70
    1
 43
0
 10
341.2598044501196
 20
67.05566428362499
 10
4.002801051951854
 20
13.63940255487304
 42
0.06965581995904595
 10
1.350742008180607
 20
12.83015058650002
 42
-0.0322408169848068
 10
-3.052091612237319
 20
8.960396039603943
 42
0.7157993024705198
 10
-1.055014636850565e-13
 20
-1.06581410364015e-14
 10
443.9973295680801
 20
8.881784197001252e-16
 42
0.642913776250119
 10
447.7737335481134
 20
8.277006710336295
 42
-0.2687164316213058
 10
439.2680342884864
 20
52.57940448844099
 42
0.4568540928264087
 10
431.7331608911569
 20
65.68664018626849
 10
425.0019619765856
 20
66.99505271215023
 42
0.04803344448518335
 10
423.0938720228203
 20
67.17878087767357
 10
342.8241491005219
 20
67.1787808776736
 42
0.03929010700767042
  0
ENDBLK
  5
54
330
52
100
AcDbEntity
  8
0
100
AcDbBlockEnd
  0
BLOCK
  5
56
330
55
100
AcDbEntity
  8
0
100
AcDbBlockBegin
  2
Top_B
 70
    0
 10
0
 20
0
  3
Top_B
  1

  0
LWPOLYLINE
  5
5B
100
AcDbEntity
  8
OUTER_PROFILES
  6
ByLayer
 62
  256
370
   -1
100
AcDbPolyline
 90
   10
 70
    1
 43
0
 10
447.7737335481345
 20
8.277006710338831
 42
-0.1450670747884799
 10
437.1920657110641
 20
31.55901473692641
 42
0.374215516432197
 10
427.2877760094301
 20
40.17878087771264
 10
172.3528582044087
 20
40.17878087769884
 42
0.03929010700767186
 10
170.7885135540063
 20
40.05566428365012
 10
4.002801051954264
 20
13.63940255487291
 42
0.06965581995906625
 10
1.350742008182312
 20
12.83015058649939
 42
-0.03224081698481169
 10
-3.052091612237407
 20
8.960396039603914
 42
0.7157993024705153
 10
-1.601748790026891e-14
 20
3.286260152890463e-14
 10
443.9973295681035
 20
-3.286260152890463e-14
 42
0.6429137762503501
  0
ENDBLK
  5
57
330
55
100
AcDbEntity
  8
0
100
AcDbBlockEnd
  0
ENDSEC
  0
SECTION
  2
ENTITIES
  0
SPLINE
  5
5C
100
AcDbEntity
  8
OUTER_PROFILES
  6
ByLayer
 62
  256
370
   -1
100
AcDbSpline
210
0
220
0
230
0
 70
 4096
 71
    3
 72
   12
 73
    8
 74
    0
 42
1e-07
 43
1e-07
 40
0
 40
0
 40
0
 40
0
 40
0.1953222
 40
0.1953222
 40
0.3355081
 40
0.3355081
 40
0.4756939
 40
0.4756939
 40
0.4756939
 40
0.4756939
 10
-4.037568035215457
 20
593.2690289529947
 30
0
 10
-3.65845184515301
 20
593.7983383400042
 30
0
 10
-3.179574319128378
 20
594.2485374185683
 30
0
 10
-2.231937555453456
 20
594.8424349043679
 30
0
 10
-1.803145804429249
 20
595.0338563832422
 30
0
 10
-0.9049482388304142
 20
595.2920548565176
 30
0
 10
-0.4399607180092602
 20
595.3575617554012
 30
0
 10
0.02732541447528547
 20
595.3575617554011
 30
0
  0
SPLINE
  5
5D
100
AcDbEntity
  8
OUTER_PROFILES
  6
ByLayer
 62
  256
370
   -1
100
AcDbSpline
210
0
220
0
230
0
 70
 4096
 71
    3
 72
   11
 73
    7
 74
    0
 42
1e-07
 43
1e-07
 40
0.1636554
 40
0.1636554
 40
0.1636554
 40
0.1636554
 40
0.4288899
 40
0.4288899
 40
0.4288899
 40
0.7847892
 40
0.7847892
 40
0.7847892
 40
0.7847892
 10
-4.037568035216239
 20
593.2690289529937
 30
0
 10
-5.24287766778599
 20
591.5862158220982
 30
0
 10
-6.223534754399154
 20
589.7423240445894
 30
0
 10
-6.945262484297601
 20
587.8016580647054
 30
0
 10
-7.913697148740013
 20
585.197617608496
 30
0
 10
-8.413514317588948
 20
582.4193921820546
 30
0
 10
-8.41351431758909
 20
579.6395724288562
 30
0
  0
LINE
  5
5E
100
AcDbEntity
  8
OUTER_PROFILES
  6
ByLayer
 62
  256
370
   -1
100
AcDbLine
 10
-8.413514317589089
 20
579.6395724288562
 11
-8.413514317620212
 21
15.67973528116688
  0
SPLINE
  5
5F
100
AcDbEntity
  8
OUTER_PROFILES
  6
ByLayer
 62
  256
370
   -1
100
AcDbSpline
210
0
220
0
230
0
 70
 4096
 71
    3
 72
   11
 73
    7
 74
    0
 42
1e-07
 43
1e-07
 40
-0.7847892
 40
-0.7847892
 40
-0.7847892
 40
-0.7847892
 40
-0.1785518
 40
-0.1785518
 40
-0.1785518
 40
-0.1662093
 40
-0.1662093
 40
-0.1662093
 40
-0.1662093
 10
-8.413514317620212
 20
15.67973528116688
 30
0
 10
-8.413514317620425
 20
10.94460115172716
 30
0
 10
-6.935929437350694
 20
6.222515351175986
 30
0
 10
-4.238536999312004
 20
2.335331251209425
 30
0
 10
-4.183620121251437
 20
2.256191111196273
 30
0
 10
-4.128217015638427
 20
2.177394110612667
 30
0
 10
-4.07232430721912
 20
2.098935585542421
 30
0
  0
SPLINE
  5
60
100
AcDbEntity
  8
OUTER_PROFILES
  6
ByLayer
 62
  256
370
   -1
100
AcDbSpline
210
0
220
0
230
0
 70
 4096
 71
    3
 72
   12
 73
    8
 74
    0
 42
1e-07
 43
1e-07
 40
0
 40
0
 40
0
 40
0
 40
0.1953222
 40
0.1953222
 40
0.3361504
 40
0.3361504
 40
0.4769786
 40
0.4769786
 40
0.4769786
 40
0.4769786
 10
0
 20
0
 30
0
 10
-0.6510741223115701
 20
0
 30
0
 10
-1.295923621150976
 20
0.1271692538230695
 30
0
 10
-2.332533134247115
 20
0.552568027322593
 30
0
 10
-2.739560360172533
 20
0.7910605840751828
 30
0
 10
-3.47509778433043
 20
1.374526601491084
 30
0
 10
-3.799956550085568
 20
1.716603558597214
 30
0
 10
-4.072324307219191
 20
2.098935585542421
 30
0
  0
LINE
  5
61
100
AcDbEntity
  8
OUTER_PROFILES
  6
ByLayer
 62
  256
370
   -1
100
AcDbLine
 10
0
 20
0
 11
593.9326246855445
 21
-7.105427357601001e-14
  0
SPLINE
  5
62
100
AcDbEntity
  8
OUTER_PROFILES
  6
ByLayer
 62
  256
370
   -1
100
AcDbSpline
210
0
220
0
230
0
 70
 4096
 71
    3
 72
   12
 73
    8
 74
    0
 42
1e-07
 43
1e-07
 40
0
 40
0
 40
0
 40
0
 40
0.1953222
 40
0.1953222
 40
0.3361504
 40
0.3361504
 40
0.4769786
 40
0.4769786
 40
0.4769786
 40
0.4769786
 10
598.0049489927698
 20
2.098935585550947
 30
0
 10
597.6271873992885
 20
1.568658590731999
 30
0
 10
597.1494625238416
 20
1.11723657238251
 30
0
 10
596.2015359766986
 20
0.5197763976750736
 30
0
 10
595.7711297293367
 20
0.3266434784080019
 30
0
 10
594.8691488709566
 20
0.06610859218667997
 30
0
 10
594.4020519684709
 20
-7.105427357601002e-14
 30
0
 10
593.9326246855445
 20
-7.105427357601002e-14
 30
0
  0
SPLINE
  5
63
100
AcDbEntity
  8
OUTER_PROFILES
  6
ByLayer
 62
  256
370
   -1
100
AcDbSpline
210
0
220
0
230
0
 70
 4096
 71
    3
 72
   11
 73
    7
 74
    0
 42
1e-07
 43
1e-07
 40
0.1662093
 40
0.1662093
 40
0.1662093
 40
0.1662093
 40
0.4288899
 40
0.4288899
 40
0.4288899
 40
0.7847892
 40
0.7847892
 40
0.7847892
 40
0.7847892
 10
598.0049489927704
 20
2.098935585552013
 30
0
 10
599.1943918319603
 20
3.768597576496759
 30
0
 10
600.1631088227227
 20
5.595669979039783
 30
0
 10
600.8778871698509
 20
7.51764964528391
 30
0
 10
601.8463218342933
 20
10.12169010149336
 30
0
 10
602.3461390031422
 20
12.8999155279346
 30
0
 10
602.3461390031423
 20
15.67973528113292
 30
0
  0
LINE
  5
64
100
AcDbEntity
  8
OUTER_PROFILES
  6
ByLayer
 62
  256
370
   -1
100
AcDbLine
 10
602.3461390031422
 20
15.67973528113292
 11
602.3461390031734
 21
579.6395724288227
  0
SPLINE
  5
65
100
AcDbEntity
  8
OUTER_PROFILES
  6
ByLayer
 62
  256
370
   -1
100
AcDbSpline
210
0
220
0
230
0
 70
 4096
 71
    3
 72
   11
 73
    7
 74
    0
 42
1e-07
 43
1e-07
 40
2.3568035
 40
2.3568035
 40
2.3568035
 40
2.3568035
 40
2.9630408
 40
2.9630408
 40
2.9630408
 40
2.9779373
 40
2.9779373
 40
2.9779373
 40
2.9779373
 10
602.3461390031734
 20
579.6395724288227
 30
0
 10
602.3461390031737
 20
584.3747065582623
 30
0
 10
600.8685541229039
 20
589.0967923588137
 30
0
 10
598.1711616848652
 20
592.9839764587803
 30
0
 10
598.1048815088785
 20
593.0794921288789
 30
0
 10
598.0378928700173
 20
593.1745082613601
 30
0
 10
597.9701927208008
 20
593.2690289529622
 30
0
  0
SPLINE
  5
66
100
AcDbEntity
  8
OUTER_PROFILES
  6
ByLayer
 62
  256
370
   -1
100
AcDbSpline
210
0
220
0
230
0
 70
 4096
 71
    3
 72
   12
 73
    8
 74
    0
 42
1e-07
 43
1e-07
 40
0
 40
0
 40
0
 40
0
 40
0.1953222
 40
0.1953222
 40
0.3355081
 40
0.3355081
 40
0.4756939
 40
0.4756939
 40
0.4756939
 40
0.4756939
 10
593.9052992711104
 20
595.3575617553689
 30
0
 10
594.5563733934219
 20
595.3575617553689
 30
0
 10
595.2012228922614
 20
595.2303925015458
 30
0
 10
596.235851562759
 20
594.8058066166039
 30
0
 10
596.6411557694213
 20
594.5686715319315
 30
0
 10
597.3740801758084
 20
593.9888033288273
 30
0
 10
597.698095071477
 20
593.6489226207757
 30
0
 10
597.9701927208008
 20
593.2690289529622
 30
0
  0
LINE
  5
67
100
AcDbEntity
  8
OUTER_PROFILES
  6
ByLayer
 62
  256
370
   -1
100
AcDbLine
 10
593.9052992711104
 20
595.3575617553689
 11
0.02732541447528557
 21
595.3575617554011
  0
LINE
  5
68
100
AcDbEntity
  8
INTERIOR_PROFILES
  6
ByLayer
 62
  256
370
   -1
100
AcDbLine
 10
592.0194076086273
 20
105.1787808776735
 11
592.0194076086273
 21
67.17878087767353
  0
LINE
  5
69
100
AcDbEntity
  8
INTERIOR_PROFILES
  6
ByLayer
 62
  256
370
   -1
100
AcDbLine
 10
592.0194076086273
 20
67.17878087767353
 11
82.01940760862712
 21
67.1787808776736
  0
LINE
  5
6A
100
AcDbEntity
  8
INTERIOR_PROFILES
  6
ByLayer
 62
  256
370
   -1
100
AcDbLine
 10
82.01940760862712
 20
67.1787808776736
 11
82.01940760862712
 21
105.1787808776736
  0
LINE
  5
6B
100
AcDbEntity
  8
INTERIOR_PROFILES
  6
ByLayer
 62
  256
370
   -1
100
AcDbLine
 10
82.01940760862712
 20
105.1787808776736
 11
145.0194076086384
 21
105.1787808776736
  0
ARC
  5
6C
100
AcDbEntity
  8
INTERIOR_PROFILES
  6
ByLayer
 62
  256
370
   -1
100
AcDbCircle
 10
145.0194076086384
 20
115.1787808776736
 40
10
100
AcDbArc
 50
270
 51
0
  0
LINE
  5
6D
100
AcDbEntity
  8
INTERIOR_PROFILES
  6
ByLayer
 62
  256
370
   -1
100
AcDbLine
 10
155.0194076086384
 20
115.1787808776736
 11
155.0194076086383
 21
124.4842505144469
  0
ARC
  5
6E
100
AcDbEntity
  8
INTERIOR_PROFILES
  6
ByLayer
 62
  256
370
   -1
100
AcDbCircle
 10
145.0194076086383
 20
124.4842505144469
 40
9.999999999999936
100
AcDbArc
 50
359.9999999999998
 51
56.78024882139172
  0
ARC
  5
6F
100
AcDbEntity
  8
INTERIOR_PROFILES
  6
ByLayer
 62
  256
370
   -1
100
AcDbCircle
 10
177.8905061849533
 20
174.6787808776865
 40
50.00000000000001
100
AcDbArc
 50
123.2197511786079
 51
236.7802488213921
  0
ARC
  5
70
100
AcDbEntity
  8
INTERIOR_PROFILES
  6
ByLayer
 62
  256
370
   -1
100
AcDbCircle
 10
145.0194076086384
 20
224.8733112409262
 40
10.00000000000008
100
AcDbArc
 50
303.2197511786075
 51
359.9999999999998
  0
ARC
  5
71
100
AcDbEntity
  8
INTERIOR_PROFILES
  6
ByLayer
 62
  256
370
   -1
100
AcDbCircle
 10
145.0194076086384
 20
370.484250514447
 40
9.999999999999989
100
AcDbArc
 50
359.999999999999
 51
56.78024882139145
  0
ARC
  5
72
100
AcDbEntity
  8
INTERIOR_PROFILES
  6
ByLayer
 62
  256
370
   -1
100
AcDbCircle
 10
177.8905061849534
 20
420.6787808776865
 40
49.99999999999994
100
AcDbArc
 50
123.2197511786079
 51
236.7802488213921
  0
ARC
  5
73
100
AcDbEntity
  8
INTERIOR_PROFILES
  6
ByLayer
 62
  256
370
   -1
100
AcDbCircle
 10
145.0194076086385
 20
470.8733112409262
 40
10.00000000000004
100
AcDbArc
 50
303.2197511786079
 51
359.9999999999997
  0
LINE
  5
74
100
AcDbEntity
  8
INTERIOR_PROFILES
  6
ByLayer
 62
  256
370
   -1
100
AcDbLine
 10
155.0194076086385
 20
470.8733112409261
 11
155.0194076086385
 21
507.1787808776833
  0
ARC
  5
75
100
AcDbEntity
  8
INTERIOR_PROFILES
  6
ByLayer
 62
  256
370
   -1
100
AcDbCircle
 10
145.0194076086385
 20
507.1787808776833
 40
9.999999999999972
100
AcDbArc
 50
3.307776868722058e-13
 51
90.00000000000017
  0
LINE
  5
76
100
AcDbEntity
  8
INTERIOR_PROFILES
  6
ByLayer
 62
  256
370
   -1
100
AcDbLine
 10
145.0194076086385
 20
517.1787808776833
 11
42.01940760863621
 21
517.1787808776833
  0
LINE
  5
77
100
AcDbEntity
  8
INTERIOR_PROFILES
  6
ByLayer
 62
  256
370
   -1
100
AcDbLine
 10
42.01940760863621
 20
517.1787808776833
 11
42.01940760863629
 21
555.1787808776833
  0
LINE
  5
78
100
AcDbEntity
  8
INTERIOR_PROFILES
  6
ByLayer
 62
  256
370
   -1
100
AcDbLine
 10
42.01940760863629
 20
555.1787808776833
 11
552.0194076086362
 21
555.1787808776832
  0
LINE
  5
79
100
AcDbEntity
  8
INTERIOR_PROFILES
  6
ByLayer
 62
  256
370
   -1
100
AcDbLine
 10
552.0194076086362
 20
555.1787808776832
 11
552.0194076086362
 21
517.1787808776832
  0
LINE
  5
7A
100
AcDbEntity
  8
INTERIOR_PROFILES
  6
ByLayer
 62
  256
370
   -1
100
AcDbLine
 10
552.0194076086362
 20
517.1787808776832
 11
489.0194076086283
 21
517.1787808776832
  0
ARC
  5
7B
100
AcDbEntity
  8
INTERIOR_PROFILES
  6
ByLayer
 62
  256
370
   -1
100
AcDbCircle
 10
489.0194076086283
 20
507.1787808776832
 40
9.999999999999972
100
AcDbArc
 50
90
 51
179.9999999999997
  0
ARC
  5
7C
100
AcDbEntity
  8
INTERIOR_PROFILES
  6
ByLayer
 62
  256
370
   -1
100
AcDbCircle
 10
489.0194076086283
 20
115.1787808776735
 40
10
100
AcDbArc
 50
180
 51
270
  0
LINE
  5
7D
100
AcDbEntity
  8
INTERIOR_PROFILES
  6
ByLayer
 62
  256
370
   -1
100
AcDbLine
 10
489.0194076086283
 20
105.1787808776735
 11
592.0194076086273
 21
105.1787808776735
  0
CIRCLE
  5
7E
100
AcDbEntity
  8
INTERIOR_PROFILES
  6
ByLayer
 62
  256
370
   -1
100
AcDbCircle
 10
272.1664227135061
 20
325.1150687419786
 40
50
  0
ARC
  5
7F
100
AcDbEntity
  8
OUTER_PROFILES
  6
ByLayer
 62
  256
370
   -1
100
AcDbCircle
 10
178.1664227135072
 20
256.5993629306594
 40
9.99999999999998
100
AcDbArc
 50
180.0000000000006
 51
245.2402024324487
  0
ARC
  5
80
100
AcDbEntity
  8
OUTER_PROFILES
  6
ByLayer
 62
  256
370
   -1
100
AcDbCircle
 10
153.037521289822
 20
202.1150687419786
 40
49.99999999999999
100
AcDbArc
 50
294.7597975675519
 51
65.24020243244799
  0
ARC
  5
81
100
AcDbEntity
  8
OUTER_PROFILES
  6
ByLayer
 62
  256
370
   -1
100
AcDbCircle
 10
178.1664227135073
 20
147.630774553298
 40
9.999999999999989
100
AcDbArc
 50
114.7597975675522
 51
180.0000000000002
  0
LINE
  5
82
100
AcDbEntity
  8
OUTER_PROFILES
  6
ByLayer
 62
  256
370
   -1
100
AcDbLine
 10
168.1664227135073
 20
147.6307745532979
 11
168.1664227135074
 21
115.6150687419819
  0
ARC
  5
83
100
AcDbEntity
  8
OUTER_PROFILES
  6
ByLayer
 62
  256
370
   -1
100
AcDbCircle
 10
178.1664227135074
 20
115.6150687419819
 40
10
100
AcDbArc
 50
180
 51
270
  0
LINE
  5
84
100
AcDbEntity
  8
OUTER_PROFILES
  6
ByLayer
 62
  256
370
   -1
100
AcDbLine
 10
178.1664227135074
 20
105.6150687419819
 11
326.1664227135153
 21
105.6150687419819
  0
ARC
  5
85
100
AcDbEntity
  8
OUTER_PROFILES
  6
ByLayer
 62
  256
370
   -1
100
AcDbCircle
 10
326.1664227135153
 20
115.6150687419819
 40
10
100
AcDbArc
 50
270
 51
0
  0
LINE
  5
86
100
AcDbEntity
  8
OUTER_PROFILES
  6
ByLayer
 62
  256
370
   -1
100
AcDbLine
 10
336.1664227135153
 20
115.6150687419819
 11
336.1664227135153
 21
388.1150687419786
  0
ARC
  5
87
100
AcDbEntity
  8
OUTER_PROFILES
  6
ByLayer
 62
  256
370
   -1
100
AcDbCircle
 10
326.1664227135153
 20
388.1150687419786
 40
10
100
AcDbArc
 50
0
 51
89.99999999999996
  0
LINE
  5
88
100
AcDbEntity
  8
OUTER_PROFILES
  6
ByLayer
 62
  256
370
   -1
100
AcDbLine
 10
326.1664227135153
 20
398.1150687419786
 11
266.1664227135153
 21
398.1150687419786
  0
ARC
  5
89
100
AcDbEntity
  8
OUTER_PROFILES
  6
ByLayer
 62
  256
370
   -1
100
AcDbCircle
 10
266.1664227135153
 20
408.1150687419786
 40
10
100
AcDbArc
 50
180
 51
270
  0
LINE
  5
8A
100
AcDbEntity
  8
OUTER_PROFILES
  6
ByLayer
 62
  256
370
   -1
100
AcDbLine
 10
256.1664227135153
 20
408.1150687419786
 11
256.1664227135153
 21
488.1150687419786
  0
ARC
  5
8B
100
AcDbEntity
  8
OUTER_PROFILES
  6
ByLayer
 62
  256
370
   -1
100
AcDbCircle
 10
266.1664227135153
 20
488.1150687419786
 40
10
100
AcDbArc
 50
90
 51
180
  0
LINE
  5
8C
100
AcDbEntity
  8
OUTER_PROFILES
  6
ByLayer
 62
  256
370
   -1
100
AcDbLine
 10
266.1664227135153
 20
498.1150687419786
 11
336.1664227135153
 21
498.1150687419786
  0
LINE
  5
8D
100
AcDbEntity
  8
OUTER_PROFILES
  6
ByLayer
 62
  256
370
   -1
100
AcDbLine
 10
336.1664227135153
 20
498.1150687419786
 11
336.1664227135153
 21
517.6150687419915
  0
LINE
  5
8E
100
AcDbEntity
  8
OUTER_PROFILES
  6
ByLayer
 62
  256
370
   -1
100
AcDbLine
 10
336.1664227135153
 20
517.6150687419915
 11
168.1664227135074
 21
517.6150687419915
  0
LINE
  5
8F
100
AcDbEntity
  8
OUTER_PROFILES
  6
ByLayer
 62
  256
370
   -1
100
AcDbLine
 10
168.1664227135074
 20
517.6150687419915
 11
168.1664227135074
 21
498.1150687419786
  0
LINE
  5
90
100
AcDbEntity
  8
OUTER_PROFILES
  6
ByLayer
 62
  256
370
   -1
100
AcDbLine
 10
168.1664227135074
 20
498.1150687419786
 11
228.1664227135075
 21
498.1150687419786
  0
ARC
  5
91
100
AcDbEntity
  8
OUTER_PROFILES
  6
ByLayer
 62
  256
370
   -1
100
AcDbCircle
 10
228.1664227135074
 20
488.1150687419786
 40
9.999999999999963
100
AcDbArc
 50
359.9999999999997
 51
89.99999999999959
  0
LINE
  5
92
100
AcDbEntity
  8
OUTER_PROFILES
  6
ByLayer
 62
  256
370
   -1
100
AcDbLine
 10
238.1664227135074
 20
488.1150687419786
 11
238.1664227135074
 21
408.1150687419786
  0
ARC
  5
93
100
AcDbEntity
  8
OUTER_PROFILES
  6
ByLayer
 62
  256
370
   -1
100
AcDbCircle
 10
228.1664227135074
 20
408.1150687419786
 40
10
100
AcDbArc
 50
270
 51
0
  0
LINE
  5
94
100
AcDbEntity
  8
OUTER_PROFILES
  6
ByLayer
 62
  256
370
   -1
100
AcDbLine
 10
228.1664227135074
 20
398.1150687419786
 11
178.1664227135074
 21
398.1150687419786
  0
ARC
  5
95
100
AcDbEntity
  8
OUTER_PROFILES
  6
ByLayer
 62
  256
370
   -1
100
AcDbCircle
 10
178.1664227135074
 20
388.1150687419786
 40
10
100
AcDbArc
 50
90
 51
180
  0
LINE
  5
96
100
AcDbEntity
  8
0
  6
ByLayer
 62
  256
370
   -1
100
AcDbLine
 10
155.0194076086384
 20
370.4842505144468
 11
155.0194076086384
 21
340.8866261241458
  0
LINE
  5
97
100
AcDbEntity
  8
0
  6
ByLayer
 62
  256
370
   -1
100
AcDbLine
 10
155.0194076086384
 20
337.4152755526168
 11
155.0194076086385
 21
224.8733112409262
  0
LINE
  5
98
100
AcDbEntity
  8
0
  6
ByLayer
 62
  256
370
   -1
100
AcDbLine
 10
168.1664227135074
 20
388.1150630445979
 11
168.1664227135073
 21
340.8866261241458
  0
LINE
  5
99
100
AcDbEntity
  8
0
  6
ByLayer
 62
  256
370
   -1
100
AcDbLine
 10
168.1664227135073
 20
337.4152755526168
 11
168.1664227135073
 21
256.5993629306593
  0
ARC
  5
9A
100
AcDbEntity
  8
OUTER_PROFILES
  6
ByLayer
 62
  256
370
   -1
100
AcDbCircle
 10
428.1813707976133
 20
573.2612968426643
 40
44.99999999999985
100
AcDbArc
 50
277.9334842122062
 51
310.9500888441083
  0
ARC
  5
9B
100
AcDbEntity
  8
OUTER_PROFILES
  6
ByLayer
 62
  256
370
   -1
100
AcDbCircle
 10
435.7726570232886
 20
518.787703483681
 40
10.00000000000009
100
AcDbArc
 50
97.93348421220719
 51
180.0000000000036
  0
ARC
  5
9C
100
AcDbEntity
  8
OUTER_PROFILES
  6
ByLayer
 62
  256
370
   -1
100
AcDbCircle
 10
435.7726570233024
 20
263.8527856786595
 40
10.00000000000009
100
AcDbArc
 50
180.0000000000031
 51
189.0000000000036
  0
LINE
  5
9D
100
AcDbEntity
  8
OUTER_PROFILES
  6
ByLayer
 62
  256
370
   -1
100
AcDbLine
 10
425.895773617351
 20
262.2884410282566
 11
452.3120353461283
 21
95.50272852620452
  0
ARC
  5
9E
100
AcDbEntity
  8
OUTER_PROFILES
  6
ByLayer
 62
  256
370
   -1
100
AcDbCircle
 10
462.1889187520796
 20
97.06707317660744
 40
10.00000000000004
100
AcDbArc
 50
189.0000000000036
 51
204.9381942575399
  0
ARC
  5
9F
100
AcDbEntity
  8
OUTER_PROFILES
  6
ByLayer
 62
  256
370
   -1
100
AcDbCircle
 10
420.9514379009975
 20
60.67380219065791
 40
45.50000000000022
100
AcDbArc
 50
37.61975655058007
 51
45.00624887834256
  0
ARC
  5
A0
100
AcDbEntity
  8
OUTER_PROFILES
  6
ByLayer
 62
  256
370
   -1
100
AcDbCircle
 10
460.9514379010011
 20
91.49992747425023
 40
5.000000000000001
100
AcDbArc
 50
217.6197565505888
 51
359.9999999999999
  0
ARC
  5
A1
100
AcDbEntity
  8
OUTER_PROFILES
  6
ByLayer
 62
  256
370
   -1
100
AcDbCircle
 10
460.9514379010012
 20
535.4972570423537
 40
5.000000000000004
100
AcDbArc
 50
6.615553737444115e-13
 51
130.9500888441089
  0
LINE
  5
A2
100
AcDbEntity
  8
OUTER_PROFILES
  6
ByLayer
 62
  256
370
   -1
100
AcDbLine
 10
344.877744144626
 20
431.6573231596198
 11
398.294005873378
 21
94.40031976145207
  0
ARC
  5
A3
100
AcDbEntity
  8
OUTER_PROFILES
  6
ByLayer
 62
  256
370
   -1
100
AcDbCircle
 10
408.1708892793293
 20
95.96466441185436
 40
9.999999999999943
100
AcDbArc
 50
189.0000000000001
 51
204.9381942575318
  0
ARC
  5
A4
100
AcDbEntity
  8
OUTER_PROFILES
  6
ByLayer
 62
  256
370
   -1
100
AcDbCircle
 10
366.9334084282557
 20
59.57139342589778
 40
45.49999999999974
100
AcDbArc
 50
37.61975655059671
 51
45.00624887835809
  0
ARC
  5
A5
100
AcDbEntity
  8
OUTER_PROFILES
  6
ByLayer
 62
  256
370
   -1
100
AcDbCircle
 10
406.933408428251
 20
90.39751870950022
 40
4.999999999999997
100
AcDbArc
 50
217.6197565505873
 51
359.999999999999
  0
ARC
  5
A6
100
AcDbEntity
  8
OUTER_PROFILES
  6
ByLayer
 62
  256
370
   -1
100
AcDbCircle
 10
406.933408428251
 20
534.3948482775803
 40
5.000000000000006
100
AcDbArc
 50
359.9999999999993
 51
130.9500888440701
  0
ARC
  5
A7
100
AcDbEntity
  8
OUTER_PROFILES
  6
ByLayer
 62
  256
370
   -1
100
AcDbCircle
 10
374.1633413248885
 20
572.158888077913
 40
44.99999999999996
100
AcDbArc
 50
250.7860609949369
 51
310.9500888440696
  0
ARC
  5
A8
100
AcDbEntity
  8
OUTER_PROFILES
  6
ByLayer
 62
  256
370
   -1
100
AcDbCircle
 10
356.0630400764592
 20
520.2225896468918
 40
9.999999999999988
100
AcDbArc
 50
70.78606099493645
 51
169.0000000000009
  0
LINE
  5
A9
100
AcDbEntity
  8
OUTER_PROFILES
  6
ByLayer
 62
  256
370
   -1
100
AcDbLine
 10
346.2467682419825
 20
522.1306796006571
 11
344.9383557161008
 21
515.3994806860859
  0
ARC
  5
AA
100
AcDbEntity
  8
OUTER_PROFILES
  6
ByLayer
 62
  256
370
   -1
100
AcDbCircle
 10
354.7546275505778
 20
513.4913907323204
 40
10.00000000000029
100
AcDbArc
 50
169.0000000000003
 51
179.9999999999993
  0
LINE
  5
AB
100
AcDbEntity
  8
OUTER_PROFILES
  6
ByLayer
 62
  256
370
   -1
100
AcDbLine
 10
344.7546275505775
 20
513.4913907323205
 11
344.7546275505774
 21
433.221667810022
  0
ARC
  5
AC
100
AcDbEntity
  8
OUTER_PROFILES
  6
ByLayer
 62
  256
370
   -1
100
AcDbCircle
 10
354.7546275505771
 20
433.221667810022
 40
9.99999999999968
100
AcDbArc
 50
179.9999999999997
 51
188.9999999999999
  0
LINE
  5
AD
100
AcDbEntity
  8
0
  6
ByLayer
 62
  256
370
   -1
100
AcDbLine
 10
411.9334084282511
 20
534.3948377659985
 11
411.933408428251
 21
405.4757312287628
  0
LINE
  5
AE
100
AcDbEntity
  8
0
  6
ByLayer
 62
  256
370
   -1
100
AcDbLine
 10
411.933408428251
 20
400.373268167998
 11
411.933408428251
 21
90.3975187095003
  0
LINE
  5
AF
100
AcDbEntity
  8
0
  6
ByLayer
 62
  256
370
   -1
100
AcDbLine
 10
425.7726570232884
 20
518.7876956462858
 11
425.7726570232946
 21
405.4757312287628
  0
LINE
  5
B0
100
AcDbEntity
  8
0
  6
ByLayer
 62
  256
370
   -1
100
AcDbLine
 10
425.7726570232949
 20
400.373268167998
 11
425.7726570233023
 21
263.8527902793704
  0
LINE
  5
B1
100
AcDbEntity
  8
0
  6
ByLayer
 62
  256
370
   -1
100
AcDbLine
 10
465.9514379010012
 20
535.4972570423536
 11
465.9514379010012
 21
406.8363880449667
  0
LINE
  5
B2
100
AcDbEntity
  8
0
  6
ByLayer
 62
  256
370
   -1
100
AcDbLine
 10
465.9514379010012
 20
400.8835144740746
 11
465.9514379010011
 21
91.49992747425021
  0
LINE
  5
B3
100
AcDbEntity
  8
0
  6
ByLayer
 62
  256
370
   -1
100
AcDbLine
 10
479.0194076086283
 20
507.1787808776832
 11
479.0194076086283
 21
406.8363880449667
  0
LINE
  5
B4
100
AcDbEntity
  8
0
  6
ByLayer
 62
  256
370
   -1
100
AcDbLine
 10
479.0194076086283
 20
400.8835144740746
 11
479.0194076086283
 21
115.1787808776735
  0
LINE
  5
B5
100
AcDbEntity
  8
0
  6
ByLayer
 62
  256
370
   -1
100
AcDbLine
 10
479.0194076086283
 20
406.8363880449667
 11
479.0194076086283
 21
400.8835144740746
  0
LINE
  5
B6
100
AcDbEntity
  8
0
  6
ByLayer
 62
  256
370
   -1
100
AcDbLine
 10
465.9514379010012
 20
406.8363880449667
 11
465.9514379010012
 21
400.8835144740746
  0
LINE
  5
B7
100
AcDbEntity
  8
0
  6
ByLayer
 62
  256
370
   -1
100
AcDbLine
 10
425.7726570232946
 20
405.4757312287628
 11
425.7726570232949
 21
400.373268167998
  0
LINE
  5
B8
100
AcDbEntity
  8
0
  6
ByLayer
 62
  256
370
   -1
100
AcDbLine
 10
411.933408428251
 20
405.4757312287628
 11
411.933408428251
 21
400.373268167998
  0
LINE
  5
B9
100
AcDbEntity
  8
0
  6
ByLayer
 62
  256
370
   -1
100
AcDbLine
 10
168.1664227135073
 20
340.8866261241458
 11
168.1664227135073
 21
337.4152755526168
  0
LINE
  5
BA
100
AcDbEntity
  8
0
  6
ByLayer
 62
  256
370
   -1
100
AcDbLine
 10
155.0194076086384
 20
340.8866261241458
 11
155.0194076086384
 21
337.4152755526168
  0
ENDSEC
  0
SECTION
  2
OBJECTS
  0
DICTIONARY
  5
C
330
0
100
AcDbDictionary
281
    1
  3
ACAD_GROUP
350
D
  0
DICTIONARY
  5
D
330
C
100
AcDbDictionary
281
    1
  0
PLOTSETTINGS
  5
BB
100
AcDbPlotSettings
  6
1x1
 40
0
 41
0
 42
0
 43
0
  0
ENDSEC
  0
EOF
