999
dxfrw 0.6.3
  0
SECTION
  2
HEADER
  9
$ACADVER
  1
AC1021
  9
$DWGCODEPAGE
  3
ANSI_1252
  9
$INSBASE
 10
0
 20
0
 30
0
  9
$EXTMIN
 10
-6.460267602549123
 20
0
 30
0
  9
$EXTMAX
 10
611.2835396165943
 20
595.3575617554015
 30
0
  9
$LIMMIN
 10
0
 20
0
  9
$LIMMAX
 10
420
 20
297
  9
$ORTHOMODE
 70
    0
  9
$REGENMODE
 70
    1
  9
$FILLMODE
 70
    1
  9
$QTEXTMODE
 70
    0
  9
$MIRRTEXT
 70
    0
  9
$LTSCALE
 40
1
  9
$ATTMODE
 70
    0
  9
$TEXTSIZE
 40
2.5
  9
$TRACEWID
 40
15.68
  9
$TEXTSTYLE
  7
STANDARD
  9
$CLAYER
  8
0
  9
$CELTYPE
  6
BYLAYER
  9
$CECOLOR
 62
  256
  9
$CELTSCALE
 40
1
  9
$DISPSILH
 70
    0
  9
$DIMSCALE
 40
2.5
  9
$DIMASZ
 40
2.5
  9
$DIMEXO
 40
0.625
  9
$DIMDLI
 40
3.75
  9
$DIMRND
 40
0
  9
$DIMDLE
 40
0
  9
$DIMEXE
 40
1.25
  9
$DIMTP
 40
0
  9
$DIMTM
 40
0
  9
$DIMTXT
 40
2.5
  9
$DIMCEN
 40
2.5
  9
$DIMTSZ
 40
0
  9
$DIMTOL
 70
    0
  9
$DIMLIM
 70
    0
  9
$DIMTIH
 70
    0
  9
$DIMTOH
 70
    0
  9
$DIMSE1
 70
    0
  9
$DIMSE2
 70
    0
  9
$DIMTAD
 70
    1
  9
$DIMZIN
 70
    8
  9
$DIMBLK
  1

  9
$DIMASO
 70
    1
  9
$DIMSHO
 70
    1
  9
$DIMPOST
  1

  9
$DIMAPOST
  1

  9
$DIMALT
 70
    0
  9
$DIMALTD
 70
    3
  9
$DIMALTF
 40
0.03937
  9
$DIMLFAC
 40
1
  9
$DIMTOFL
 70
    1
  9
$DIMTVP
 40
0
  9
$DIMTIX
 70
    0
  9
$DIMSOXD
 70
    0
  9
$DIMSAH
 70
    0
  9
$DIMBLK1
  1

  9
$DIMBLK2
  1

  9
$DIMSTYLE
  2
Standard
  9
$DIMCLRD
 70
    0
  9
$DIMCLRE
 70
    0
  9
$DIMCLRT
 70
    0
  9
$DIMTFAC
 40
1
  9
$DIMGAP
 40
0.625
  9
$DIMJUST
 70
    0
  9
$DIMSD1
 70
    0
  9
$DIMSD2
 70
    0
  9
$DIMTOLJ
 70
    0
  9
$DIMTZIN
 70
    8
  9
$DIMALTZ
 70
    0
  9
$DIMALTTZ
 70
    0
  9
$DIMUPT
 70
    0
  9
$DIMDEC
 70
    2
  9
$DIMTDEC
 70
    2
  9
$DIMALTU
 70
    2
  9
$DIMALTTD
 70
    3
  9
$DIMTXSTY
  7
STANDARD
  9
$DIMAUNIT
 70
    0
  9
$DIMADEC
 70
    0
  9
$DIMALTRND
 40
0
  9
$DIMAZIN
 70
    0
  9
$DIMDSEP
 70
   44
  9
$DIMATFIT
 70
    3
  9
$DIMFRAC
 70
    0
  9
$DIMLDRBLK
  1
STANDARD
  9
$DIMLUNIT
 70
    2
  9
$DIMLWD
 70
   -2
  9
$DIMLWE
 70
   -2
  9
$DIMTMOVE
 70
    0
  9
$DIMFXL
 40
1
  9
$DIMFXLON
 70
    0
  9
$DIMJOGANG
 40
0.7854
  9
$DIMTFILL
 70
    0
  9
$DIMTFILLCLR
 70
    0
  9
$DIMARCSYM
 70
    0
  9
$DIMLTYPE
  6

  9
$DIMLTEX1
  6

  9
$DIMLTEX2
  6

  9
$LUNITS
 70
    2
  9
$LUPREC
 70
    4
  9
$SKETCHINC
 40
1
  9
$FILLETRAD
 40
0
  9
$AUNITS
 70
    0
  9
$AUPREC
 70
    2
  9
$MENU
  1
.
  9
$ELEVATION
 40
0
  9
$PELEVATION
 40
0
  9
$THICKNESS
 40
0
  9
$LIMCHECK
 70
    0
  9
$CHAMFERA
 40
0
  9
$CHAMFERB
 40
0
  9
$CHAMFERC
 40
0
  9
$CHAMFERD
 40
0
  9
$SKPOLY
 70
    0
  9
$USRTIMER
 70
    1
  9
$ANGBASE
 50
0
  9
$ANGDIR
 70
    0
  9
$PDMODE
 70
   96
  9
$PDSIZE
 40
-2
  9
$PLINEWID
 40
0
  9
$SPLFRAME
 70
    0
  9
$SPLINETYPE
 70
    2
  9
$SPLINESEGS
 70
    8
  9
$HANDSEED
  5
20000
  9
$SURFTAB1
 70
    6
  9
$SURFTAB2
 70
    6
  9
$SURFTYPE
 70
    6
  9
$SURFU
 70
    6
  9
$SURFV
 70
    6
  9
$UCSBASE
  2

  9
$UCSNAME
  2

  9
$UCSORG
 10
0
 20
0
 30
0
  9
$UCSXDIR
 10
1
 20
0
 30
0
  9
$UCSYDIR
 10
0
 20
1
 30
0
  9
$UCSORTHOREF
  2

  9
$UCSORTHOVIEW
 70
    0
  9
$UCSORGTOP
 10
0
 20
0
 30
0
  9
$UCSORGBOTTOM
 10
0
 20
0
 30
0
  9
$UCSORGLEFT
 10
0
 20
0
 30
0
  9
$UCSORGRIGHT
 10
0
 20
0
 30
0
  9
$UCSORGFRONT
 10
0
 20
0
 30
0
  9
$UCSORGBACK
 10
0
 20
0
 30
0
  9
$PUCSBASE
  2

  9
$PUCSNAME
  2

  9
$PUCSORG
 10
0
 20
0
 30
0
  9
$PUCSXDIR
 10
1
 20
0
 30
0
  9
$PUCSYDIR
 10
0
 20
1
 30
0
  9
$PUCSORTHOREF
  2

  9
$PUCSORTHOVIEW
 70
    0
  9
$PUCSORGTOP
 10
0
 20
0
 30
0
  9
$PUCSORGBOTTOM
 10
0
 20
0
 30
0
  9
$PUCSORGLEFT
 10
0
 20
0
 30
0
  9
$PUCSORGRIGHT
 10
0
 20
0
 30
0
  9
$PUCSORGFRONT
 10
0
 20
0
 30
0
  9
$PUCSORGBACK
 10
0
 20
0
 30
0
  9
$USERI1
 70
    0
  9
$USERI2
 70
    0
  9
$USERI3
 70
    0
  9
$USERI4
 70
    0
  9
$USERI5
 70
    0
  9
$USERR1
 40
0
  9
$USERR2
 40
0
  9
$USERR3
 40
0
  9
$USERR4
 40
0
  9
$USERR5
 40
0
  9
$WORLDVIEW
 70
    1
  9
$SHADEDGE
 70
    3
  9
$SHADEDIF
 70
   70
  9
$TILEMODE
 70
    1
  9
$MAXACTVP
 70
   64
  9
$PINSBASE
 10
0
 20
0
 30
0
  9
$PLIMCHECK
 70
    0
  9
$PEXTMIN
 10
0
 20
0
 30
0
  9
$PEXTMAX
 10
0
 20
0
 30
0
  9
$GRIDMODE
 70
    1
  9
$SNAPSTYLE
 70
    0
  9
$PLIMMIN
 10
0
 20
0
  9
$PLIMMAX
 10
210
 20
297
  9
$UNITMODE
 70
    0
  9
$VISRETAIN
 70
    1
  9
$PLINEGEN
 70
    0
  9
$PSLTSCALE
 70
    1
  9
$TREEDEPTH
 70
 3020
  9
$CMLSTYLE
  2
Standard
  9
$CMLJUST
 70
    0
  9
$CMLSCALE
 40
20
  9
$PROXYGRAPHICS
 70
    1
  9
$MEASUREMENT
 70
    1
  9
$CELWEIGHT
370
   -1
  9
$ENDCAPS
280
    0
  9
$JOINSTYLE
280
    0
  9
$LWDISPLAY
290
    0
  9
$INSUNITS
 70
    4
  9
$HYPERLINKBASE
  1

  9
$STYLESHEET
  1

  9
$XEDIT
290
    1
  9
$CEPSNTYPE
380
    0
  9
$PSTYLEMODE
290
    1
  9
$EXTNAMES
290
    1
  9
$PSVPSCALE
 40
1
  9
$OLESTARTUP
290
    0
  9
$SORTENTS
280
  127
  9
$INDEXCTL
280
    0
  9
$HIDETEXT
280
    1
  9
$XCLIPFRAME
290
    0
  9
$HALOGAP
280
    0
  9
$OBSCOLOR
 70
  257
  9
$OBSLTYPE
280
    0
  9
$INTERSECTIONDISPLAY
280
    0
  9
$INTERSECTIONCOLOR
 70
  257
  9
$DIMASSOC
280
    1
  9
$PROJECTNAME
  1

  9
$CAMERADISPLAY
290
    0
  9
$LENSLENGTH
 40
50
  9
$CAMERAHEIGHT
 40
0
  9
$STEPSPERSEC
 40
2
  9
$STEPSIZE
 40
50
  9
$3DDWFPREC
 40
2
  9
$PSOLWIDTH
 40
5
  9
$PSOLHEIGHT
 40
80
  9
$LOFTANG1
 40
1.570796326794897
  9
$LOFTANG2
 40
1.570796326794897
  9
$LOFTMAG1
 40
0
  9
$LOFTMAG2
 40
0
  9
$LOFTPARAM
 70
    7
  9
$LOFTNORMALS
280
    1
  9
$LATITUDE
 40
1
  9
$LONGITUDE
 40
1
  9
$NORTHDIRECTION
 40
0
  9
$TIMEZONE
 70
-8000
  9
$LIGHTGLYPHDISPLAY
280
    1
  9
$TILEMODELIGHTSYNCH
280
    1
  9
$SOLIDHIST
280
    1
  9
$SHOWHIST
280
    1
  9
$DWFFRAME
280
    2
  9
$DGNFRAME
280
    0
  9
$REALWORLDSCALE
290
    1
  9
$INTERFERECOLOR
 62
    1
  9
$CSHADOW
280
    0
  9
$SHADOWPLANELOCATION
 40
0
  0
ENDSEC
  0
SECTION
  2
CLASSES
  0
ENDSEC
  0
SECTION
  2
TABLES
  0
TABLE
  2
VPORT
  5
8
330
0
100
AcDbSymbolTable
 70
    1
  0
VPORT
  5
31
330
2
100
AcDbSymbolTableRecord
100
AcDbViewportTableRecord
  2
*ACTIVE
 70
    0
 10
0
 20
0
 11
1
 21
1
 12
674.0122509348023
 22
386.2903925630894
 13
0
 23
0
 14
10
 24
10
 15
10
 25
10
 16
0
 26
0
 36
1
 17
0
 27
0
 37
0
 40
1108.512175797101
 41
1.762880886426593
 42
50
 43
0
 44
0
 50
0
 51
0
 71
    0
 72
  100
 73
    1
 74
    3
 75
    0
 76
    1
 77
    0
 78
    0
281
    0
 65
    1
110
0
120
0
130
0
111
1
121
0
131
0
112
0
122
1
132
0
 79
    0
146
0
348
10020
 60
    7
 61
    5
292
1
282
    1
141
0
142
0
 63
  250
421
3358443
  0
ENDTAB
  0
TABLE
  2
LTYPE
  5
5
330
0
100
AcDbSymbolTable
 70
    4
  0
LTYPE
  5
14
330
5
100
AcDbSymbolTableRecord
100
AcDbLinetypeTableRecord
  2
ByBlock
 70
    0
  3

 72
   65
 73
    0
 40
0
  0
LTYPE
  5
15
330
5
100
AcDbSymbolTableRecord
100
AcDbLinetypeTableRecord
  2
ByLayer
 70
    0
  3

 72
   65
 73
    0
 40
0
  0
LTYPE
  5
16
330
5
100
AcDbSymbolTableRecord
100
AcDbLinetypeTableRecord
  2
Continuous
 70
    0
  3
Solid line
 72
   65
 73
    0
 40
0
  0
LTYPE
  5
32
330
5
100
AcDbSymbolTableRecord
100
AcDbLinetypeTableRecord
  2
DOT
 70
    0
  3
Dot . . . . . . . . . . . . . . . . . . . . . .
 72
   65
 73
    2
 40
6.35
 49
0
 74
    0
 49
-6.35
 74
    0
  0
LTYPE
  5
33
330
5
100
AcDbSymbolTableRecord
100
AcDbLinetypeTableRecord
  2
DOTTINY
 70
    0
  3
Dot (.15x) .....................................
 72
   65
 73
    2
 40
0.9525
 49
0
 74
    0
 49
-0.9525
 74
    0
  0
LTYPE
  5
34
330
5
100
AcDbSymbolTableRecord
100
AcDbLinetypeTableRecord
  2
DOT2
 70
    0
  3
Dot (.5x) .....................................
 72
   65
 73
    2
 40
3.175
 49
0
 74
    0
 49
-3.175
 74
    0
  0
LTYPE
  5
35
330
5
100
AcDbSymbolTableRecord
100
AcDbLinetypeTableRecord
  2
DOTX2
 70
    0
  3
Dot (2x) .  .  .  .  .  .  .  .  .  .  .  .  .
 72
   65
 73
    2
 40
12.7
 49
0
 74
    0
 49
-12.7
 74
    0
  0
LTYPE
  5
36
330
5
100
AcDbSymbolTableRecord
100
AcDbLinetypeTableRecord
  2
DASHED
 70
    0
  3
Dashed _ _ _ _ _ _ _ _ _ _ _ _ _ _ _ _ _
 72
   65
 73
    2
 40
19.05
 49
12.7
 74
    0
 49
-6.35
 74
    0
  0
LTYPE
  5
37
330
5
100
AcDbSymbolTableRecord
100
AcDbLinetypeTableRecord
  2
DASHEDTINY
 70
    0
  3
Dashed (.15x) _ _ _ _ _ _ _ _ _ _ _ _ _ _ _ _ _
 72
   65
 73
    2
 40
2.8575
 49
1.905
 74
    0
 49
-0.9525
 74
    0
  0
LTYPE
  5
38
330
5
100
AcDbSymbolTableRecord
100
AcDbLinetypeTableRecord
  2
DASHED2
 70
    0
  3
Dashed (.5x) _ _ _ _ _ _ _ _ _ _ _ _ _ _ _ _ _
 72
   65
 73
    2
 40
9.524999999999999
 49
6.35
 74
    0
 49
-3.175
 74
    0
  0
LTYPE
  5
39
330
5
100
AcDbSymbolTableRecord
100
AcDbLinetypeTableRecord
  2
DASHEDX2
 70
    0
  3
Dashed (2x) ____  ____  ____  ____  ____  ___
 72
   65
 73
    2
 40
38.09999999999999
 49
25.4
 74
    0
 49
-12.7
 74
    0
  0
LTYPE
  5
3A
330
5
100
AcDbSymbolTableRecord
100
AcDbLinetypeTableRecord
  2
DASHDOT
 70
    0
  3
Dash dot __ . __ . __ . __ . __ . __ . __ . __
 72
   65
 73
    4
 40
25.4
 49
12.7
 74
    0
 49
-6.35
 74
    0
 49
0
 74
    0
 49
-6.35
 74
    0
  0
LTYPE
  5
3B
330
5
100
AcDbSymbolTableRecord
100
AcDbLinetypeTableRecord
  2
DASHDOTTINY
 70
    0
  3
Dash dot (.15x) _._._._._._._._._._._._._._._.
 72
   65
 73
    4
 40
3.81
 49
1.905
 74
    0
 49
-0.9525
 74
    0
 49
0
 74
    0
 49
-0.9525
 74
    0
  0
LTYPE
  5
3C
330
5
100
AcDbSymbolTableRecord
100
AcDbLinetypeTableRecord
  2
DASHDOT2
 70
    0
  3
Dash dot (.5x) _._._._._._._._._._._._._._._.
 72
   65
 73
    4
 40
12.7
 49
6.35
 74
    0
 49
-3.175
 74
    0
 49
0
 74
    0
 49
-3.175
 74
    0
  0
LTYPE
  5
3D
330
5
100
AcDbSymbolTableRecord
100
AcDbLinetypeTableRecord
  2
DASHDOTX2
 70
    0
  3
Dash dot (2x) ____  .  ____  .  ____  .  ___
 72
   65
 73
    4
 40
50.8
 49
25.4
 74
    0
 49
-12.7
 74
    0
 49
0
 74
    0
 49
-12.7
 74
    0
  0
LTYPE
  5
3E
330
5
100
AcDbSymbolTableRecord
100
AcDbLinetypeTableRecord
  2
DIVIDE
 70
    0
  3
Divide ____ . . ____ . . ____ . . ____ . . ____
 72
   65
 73
    6
 40
31.75
 49
12.7
 74
    0
 49
-6.35
 74
    0
 49
0
 74
    0
 49
-6.35
 74
    0
 49
0
 74
    0
 49
-6.35
 74
    0
  0
LTYPE
  5
3F
330
5
100
AcDbSymbolTableRecord
100
AcDbLinetypeTableRecord
  2
DIVIDETINY
 70
    0
  3
Divide (.15x) __..__..__..__..__..__..__..__.._
 72
   65
 73
    6
 40
4.7625
 49
1.905
 74
    0
 49
-0.9525
 74
    0
 49
0
 74
    0
 49
-0.9525
 74
    0
 49
0
 74
    0
 49
-0.9525
 74
    0
  0
LTYPE
  5
40
330
5
100
AcDbSymbolTableRecord
100
AcDbLinetypeTableRecord
  2
DIVIDE2
 70
    0
  3
Divide (.5x) __..__..__..__..__..__..__..__.._
 72
   65
 73
    6
 40
15.875
 49
6.35
 74
    0
 49
-3.175
 74
    0
 49
0
 74
    0
 49
-3.175
 74
    0
 49
0
 74
    0
 49
-3.175
 74
    0
  0
LTYPE
  5
41
330
5
100
AcDbSymbolTableRecord
100
AcDbLinetypeTableRecord
  2
DIVIDEX2
 70
    0
  3
Divide (2x) ________  .  .  ________  .  .  _
 72
   65
 73
    6
 40
63.5
 49
25.4
 74
    0
 49
-12.7
 74
    0
 49
0
 74
    0
 49
-12.7
 74
    0
 49
0
 74
    0
 49
-12.7
 74
    0
  0
LTYPE
  5
42
330
5
100
AcDbSymbolTableRecord
100
AcDbLinetypeTableRecord
  2
BORDER
 70
    0
  3
Border __ __ . __ __ . __ __ . __ __ . __ __ .
 72
   65
 73
    6
 40
44.45
 49
12.7
 74
    0
 49
-6.35
 74
    0
 49
12.7
 74
    0
 49
-6.35
 74
    0
 49
0
 74
    0
 49
-6.35
 74
    0
  0
LTYPE
  5
43
330
5
100
AcDbSymbolTableRecord
100
AcDbLinetypeTableRecord
  2
BORDERTINY
 70
    0
  3
Border (.15x) __.__.__.__.__.__.__.__.__.__.__.
 72
   65
 73
    6
 40
6.6675
 49
1.905
 74
    0
 49
-0.9525
 74
    0
 49
1.905
 74
    0
 49
-0.9525
 74
    0
 49
0
 74
    0
 49
-0.9525
 74
    0
  0
LTYPE
  5
44
330
5
100
AcDbSymbolTableRecord
100
AcDbLinetypeTableRecord
  2
BORDER2
 70
    0
  3
Border (.5x) __.__.__.__.__.__.__.__.__.__.__.
 72
   65
 73
    6
 40
22.225
 49
6.35
 74
    0
 49
-3.175
 74
    0
 49
6.35
 74
    0
 49
-3.175
 74
    0
 49
0
 74
    0
 49
-3.175
 74
    0
  0
LTYPE
  5
45
330
5
100
AcDbSymbolTableRecord
100
AcDbLinetypeTableRecord
  2
BORDERX2
 70
    0
  3
Border (2x) ____  ____  .  ____  ____  .  ___
 72
   65
 73
    6
 40
88.89999999999999
 49
25.4
 74
    0
 49
-12.7
 74
    0
 49
25.4
 74
    0
 49
-12.7
 74
    0
 49
0
 74
    0
 49
-12.7
 74
    0
  0
LTYPE
  5
46
330
5
100
AcDbSymbolTableRecord
100
AcDbLinetypeTableRecord
  2
CENTER
 70
    0
  3
Center ____ _ ____ _ ____ _ ____ _ ____ _ ____
 72
   65
 73
    4
 40
50.8
 49
31.75
 74
    0
 49
-6.35
 74
    0
 49
6.35
 74
    0
 49
-6.35
 74
    0
  0
LTYPE
  5
47
330
5
100
AcDbSymbolTableRecord
100
AcDbLinetypeTableRecord
  2
CENTERTINY
 70
    0
  3
Center (.15x) ___ _ ___ _ ___ _ ___ _ ___ _ ___
 72
   65
 73
    4
 40
7.619999999999999
 49
4.7625
 74
    0
 49
-0.9525
 74
    0
 49
0.9525
 74
    0
 49
-0.9525
 74
    0
  0
LTYPE
  5
48
330
5
100
AcDbSymbolTableRecord
100
AcDbLinetypeTableRecord
  2
CENTER2
 70
    0
  3
Center (.5x) ___ _ ___ _ ___ _ ___ _ ___ _ ___
 72
   65
 73
    4
 40
28.575
 49
19.05
 74
    0
 49
-3.175
 74
    0
 49
3.175
 74
    0
 49
-3.175
 74
    0
  0
LTYPE
  5
49
330
5
100
AcDbSymbolTableRecord
100
AcDbLinetypeTableRecord
  2
CENTERX2
 70
    0
  3
Center (2x) ________  __  ________  __  _____
 72
   65
 73
    4
 40
101.6
 49
63.5
 74
    0
 49
-12.7
 74
    0
 49
12.7
 74
    0
 49
-12.7
 74
    0
  0
ENDTAB
  0
TABLE
  2
LAYER
  5
2
330
0
100
AcDbSymbolTable
 70
    1
  0
LAYER
  5
10
330
2
100
AcDbSymbolTableRecord
100
AcDbLayerTableRecord
  2
0
 70
    0
 62
    7
  6
CONTINUOUS
370
   -3
390
F
  0
LAYER
  5
4A
330
2
100
AcDbSymbolTableRecord
100
AcDbLayerTableRecord
  2
INTERIOR_PROFILES
 70
    0
 62
    7
  6
CONTINUOUS
370
   -3
390
F
  0
LAYER
  5
4B
330
2
100
AcDbSymbolTableRecord
100
AcDbLayerTableRecord
  2
OUTER_PROFILES
 70
    0
 62
    7
  6
CONTINUOUS
370
   -3
390
F
  0
ENDTAB
  0
TABLE
  2
STYLE
  5
3
330
0
100
AcDbSymbolTable
 70
    3
  0
STYLE
  5
4C
330
2
100
AcDbSymbolTableRecord
100
AcDbTextStyleTableRecord
  2
Standard
 70
    0
 40
0
 41
1
 50
0
 71
    0
 42
1
  3
txt
  4

  0
ENDTAB
  0
TABLE
  2
VIEW
  5
6
330
0
100
AcDbSymbolTable
 70
    0
  0
ENDTAB
  0
TABLE
  2
UCS
  5
7
330
0
100
AcDbSymbolTable
 70
    0
  0
ENDTAB
  0
TABLE
  2
APPID
  5
9
330
0
100
AcDbSymbolTable
 70
    1
  0
APPID
  5
12
330
9
100
AcDbSymbolTableRecord
100
AcDbRegAppTableRecord
  2
ACAD
 70
    0
  0
APPID
  5
4D
330
9
100
AcDbSymbolTableRecord
100
AcDbRegAppTableRecord
  2
LibreCad
 70
    0
  0
ENDTAB
  0
TABLE
  2
DIMSTYLE
  5
A
330
0
100
AcDbSymbolTable
 70
    1
100
AcDbDimStyleTable
 71
    1
  0
DIMSTYLE
105
4E
330
A
100
AcDbSymbolTableRecord
100
AcDbDimStyleTableRecord
  2
Standard
 70
    0
 40
2.5
 41
2.5
 42
0.625
 43
0.38
 44
1.25
 45
0
 46
0
 47
0
 48
0
 49
1
140
2.5
141
0.09
142
0
143
25.4
144
1
145
0
146
1
147
0.625
148
0
 71
    0
 72
    0
 73
    0
 74
    1
 75
    0
 76
    0
 77
    0
 78
    8
 79
    0
170
    0
171
    2
172
    0
173
    0
174
    0
175
    0
176
    0
177
    0
178
    0
179
    0
271
    2
272
    4
273
    2
274
    2
275
    0
276
    0
277
    2
278
   44
279
    0
280
    0
281
    0
282
    0
283
    1
284
    0
285
    0
286
    0
288
    0
289
    3
340
4C
  0
ENDTAB
  0
TABLE
  2
BLOCK_RECORD
  5
1
330
0
100
AcDbSymbolTable
 70
    2
  0
BLOCK_RECORD
  5
1F
330
1
100
AcDbSymbolTableRecord
100
AcDbBlockTableRecord
  2
*Model_Space
 70
    0
280
    1
281
    0
  0
BLOCK_RECORD
  5
1E
330
1
100
AcDbSymbolTableRecord
100
AcDbBlockTableRecord
  2
*Paper_Space
 70
    0
280
    1
281
    0
  0
BLOCK_RECORD
  5
4F
330
1
100
AcDbSymbolTableRecord
100
AcDbBlockTableRecord
  2
Top_L
 70
    0
280
    1
281
    0
  0
BLOCK_RECORD
  5
52
330
1
100
AcDbSymbolTableRecord
100
AcDbBlockTableRecord
  2
Top_R
 70
    0
280
    1
281
    0
  0
ENDTAB
  0
ENDSEC
  0
SECTION
  2
BLOCKS
  0
BLOCK
  5
20
330
1F
100
AcDbEntity
  8
0
100
AcDbBlockBegin
  2
*Model_Space
 70
    0
 10
0
 20
0
 30
0
  3
*Model_Space
  1

  0
ENDBLK
  5
21
330
1F
100
AcDbEntity
  8
0
100
AcDbBlockEnd
  0
BLOCK
  5
1C
330
1B
100
AcDbEntity
  8
0
100
AcDbBlockBegin
  2
*Paper_Space
 70
    0
 10
0
 20
0
 30
0
  3
*Paper_Space
  1

  0
ENDBLK
  5
1D
330
1F
100
AcDbEntity
  8
0
100
AcDbBlockEnd
  0
BLOCK
  5
50
330
4F
100
AcDbEntity
  8
0
100
AcDbBlockBegin
  2
Top_L
 70
    0
 10
0
 20
0
  3
Top_L
  1

  0
SPLINE
  5
55
100
AcDbEntity
  8
OUTER_PROFILES
  6
ByLayer
 62
  256
370
   -1
100
AcDbSpline
210
0
220
0
230
0
 70
 4096
 71
    3
 72
    8
 73
    4
 74
    0
 42
1e-07
 43
1e-07
 40
-0.7847892
 40
-0.7847892
 40
-0.7847892
 40
-0.7847892
 40
-0.5828662
 40
-0.5828662
 40
-0.5828662
 40
-0.5828662
 10
577.9281449443889
 20
-3.552713678800501e-14
 30
0
 10
579.5053034240218
 20
-7.105427357601002e-14
 30
0
 10
581.0821627379629
 20
0.1597739393289643
 30
0
 10
582.6267351283996
 20
0.4760467989452977
 30
0
  0
SPLINE
  5
56
100
AcDbEntity
  8
OUTER_PROFILES
  6
ByLayer
 62
  256
370
   -1
100
AcDbSpline
210
0
220
0
230
0
 70
 4096
 71
    3
 72
   14
 73
   10
 74
    0
 42
1e-07
 43
1e-07
 40
0
 40
0
 40
0
 40
0
 40
0.1953222
 40
0.1953222
 40
0.3906445
 40
0.3906445
 40
0.5384082
 40
0.5384082
 40
0.686172
 40
0.686172
 40
0.686172
 40
0.686172
 10
586.6237263272062
 20
5.374411152964989
 30
0
 10
586.6237263272062
 20
4.723337030653454
 30
0
 10
586.4965570733831
 20
4.078487531814012
 30
0
 10
586.0021960100337
 20
2.873831070403128
 30
0
 10
585.6397305617206
 20
2.325541280191246
 30
0
 10
584.8363924795781
 20
1.511591244086858
 30
0
 10
584.4404937433184
 20
1.214071890530874
 30
0
 10
583.5745654083677
 20
0.7444188922332984
 30
0
 10
583.1092689757158
 20
0.5748523717350196
 30
0
 10
582.6267351283997
 20
0.4760467989452977
 30
0
  0
LINE
  5
57
100
AcDbEntity
  8
OUTER_PROFILES
  6
ByLayer
 62
  256
370
   -1
100
AcDbLine
 10
586.6237263272062
 20
5.374411152964989
 11
586.6237263272052
 21
22.50836205028538
  0
ARC
  5
58
100
AcDbEntity
  8
OUTER_PROFILES
  6
ByLayer
 62
  256
370
   -1
100
AcDbCircle
 10
581.6237263272052
 20
22.50836205028513
 40
4.999999999999988
100
AcDbArc
 50
0
 51
143.1301023541602
  0
ARC
  5
59
100
AcDbEntity
  8
OUTER_PROFILES
  6
ByLayer
 62
  256
370
   -1
100
AcDbCircle
 10
541.6237263272026
 20
52.50836205028161
 40
44.99999999999994
100
AcDbArc
 50
160.7860609949401
 51
323.1301023541611
  0
ARC
  5
5A
100
AcDbEntity
  8
OUTER_PROFILES
  6
ByLayer
 62
  256
370
   -1
100
AcDbCircle
 10
489.6874278961803
 20
70.60866329870802
 40
9.999999999999993
100
AcDbArc
 50
-19.21393900506047
 51
79.00000000000391
  0
LINE
  5
5B
100
AcDbEntity
  8
OUTER_PROFILES
  6
ByLayer
 62
  256
370
   -1
100
AcDbLine
 10
491.5955178499451
 20
80.42493513318477
 11
448.8247907244772
 21
88.73872229387538
  0
ARC
  5
5C
100
AcDbEntity
  8
OUTER_PROFILES
  6
ByLayer
 62
  256
370
   -1
100
AcDbCircle
 10
446.9167007707124
 20
78.92245045939862
 40
10
100
AcDbArc
 50
79.00000000000392
 51
99.00000000000418
  0
LINE
  5
5D
100
AcDbEntity
  8
OUTER_PROFILES
  6
ByLayer
 62
  256
370
   -1
100
AcDbLine
 10
445.3523561203094
 20
88.79933386534989
 11
63.86515801074289
 21
28.37769750176601
  0
ARC
  5
5E
100
AcDbEntity
  8
OUTER_PROFILES
  6
ByLayer
 62
  256
370
   -1
100
AcDbCircle
 10
65.4295026611458
 20
18.50081409581474
 40
10
100
AcDbArc
 50
99.00000000000352
 51
131.4293354859687
  0
ARC
  5
5F
100
AcDbEntity
  8
OUTER_PROFILES
  6
ByLayer
 62
  256
370
   -1
100
AcDbCircle
 10
29.03623167519257
 20
59.73829494689213
 40
44.99999999999999
100
AcDbArc
 50
-130.9500888441086
 51
-48.57066451403124
  0
ARC
  5
60
100
AcDbEntity
  8
OUTER_PROFILES
  6
ByLayer
 62
  256
370
   -1
100
AcDbCircle
 10
-3.733835428195604
 20
21.97425514658164
 40
5
100
AcDbArc
 50
49.04991115589118
 51
180
  0
LINE
  5
61
100
AcDbEntity
  8
OUTER_PROFILES
  6
ByLayer
 62
  256
370
   -1
100
AcDbLine
 10
-8.733835428195604
 20
21.97425514658164
 11
-8.733835428195604
 21
5.382286486280314
  0
SPLINE
  5
62
100
AcDbEntity
  8
OUTER_PROFILES
  6
ByLayer
 62
  256
370
   -1
100
AcDbSpline
210
0
220
0
230
0
 70
 4096
 71
    3
 72
   14
 73
   10
 74
    0
 42
1e-07
 43
1e-07
 40
0
 40
0
 40
0
 40
0
 40
0.1953222
 40
0.1953222
 40
0.3906445
 40
0.3906445
 40
0.5378750999999999
 40
0.5378750999999999
 40
0.6851056999999999
 40
0.6851056999999999
 40
0.6851056999999999
 40
0.6851056999999999
 10
-4.747232011557507
 20
0.4860606576618665
 30
0
 10
-5.384793198358899
 20
0.6180199158750455
 30
0
 10
-5.990484375250169
 20
0.8732474486912878
 30
0
 10
-7.069941628935439
 20
1.601507078522069
 30
0
 10
-7.53338750603465
 20
2.067576616543114
 30
0
 10
-8.166638544713507
 20
3.017733571981083
 30
0
 10
-8.377209222407274
 20
3.463971141619844
 30
0
 10
-8.661579241896114
 20
4.403412203817112
 30
0
 10
-8.733835428195604
 20
4.89151774814431
 30
0
 10
-8.733835428195604
 20
5.382286486280314
 30
0
  0
SPLINE
  5
63
100
AcDbEntity
  8
OUTER_PROFILES
  6
ByLayer
 62
  256
370
   -1
100
AcDbSpline
210
0
220
0
230
0
 70
 4096
 71
    3
 72
    8
 73
    4
 74
    0
 42
1e-07
 43
1e-07
 40
0.5807460999999999
 40
0.5807460999999999
 40
0.5807460999999999
 40
0.5807460999999999
 40
0.7847892
 40
0.7847892
 40
0.7847892
 40
0.7847892
 10
-4.747232011555589
 20
0.4860606576614401
 30
0
 10
-3.187089945632735
 20
0.1631501763018051
 30
0
 10
-1.59371796258732
 20
0
 30
0
 10
0
 20
0
 30
0
  0
LINE
  5
64
100
AcDbEntity
  8
OUTER_PROFILES
  6
ByLayer
 62
  256
370
   -1
100
AcDbLine
 10
1.041228154429905e-16
 20
1.892455274541708e-17
 11
577.9281449443889
 21
-3.552713678800501e-14
  0
ENDBLK
  5
51
330
4F
100
AcDbEntity
  8
0
100
AcDbBlockEnd
  0
BLOCK
  5
53
330
52
100
AcDbEntity
  8
0
100
AcDbBlockBegin
  2
Top_R
 70
    0
 10
0
 20
0
  3
Top_R
  1

  0
SPLINE
  5
65
100
AcDbEntity
  8
OUTER_PROFILES
  6
ByLayer
 62
  256
370
   -1
100
AcDbSpline
210
0
220
0
230
0
 70
 4096
 71
    3
 72
   14
 73
   10
 74
    0
 42
1e-07
 43
1e-07
 40
0
 40
0
 40
0
 40
0
 40
0.1953222
 40
0.1953222
 40
0.3906445
 40
0.3906445
 40
0.5378750999999999
 40
0.5378750999999999
 40
0.6851056999999999
 40
0.6851056999999999
 40
0.6851056999999999
 40
0.6851056999999999
 10
586.6619803725855
 20
5.382286486280402
 30
0
 10
586.6619803725855
 20
4.731212363968868
 30
0
 10
586.5348111187623
 20
4.086362865129426
 30
0
 10
586.0404500554129
 20
2.88170640371854
 30
0
 10
585.6779846070997
 20
2.333416613506729
 30
0
 10
584.87589488961
 20
1.520731432731224
 30
0
 10
584.4815972278432
 20
1.224087988868532
 30
0
 10
583.6192900304363
 20
0.7552147494672334
 30
0
 10
583.1559598702555
 20
0.5855293301515846
 30
0
 10
582.6753769559475
 20
0.4860606576619841
 30
0
  0
LINE
  5
66
100
AcDbEntity
  8
OUTER_PROFILES
  6
ByLayer
 62
  256
370
   -1
100
AcDbLine
 10
586.6619803725855
 20
5.382286486280402
 11
586.6619803725855
 21
22.40217151855843
  0
ARC
  5
67
100
AcDbEntity
  8
OUTER_PROFILES
  6
ByLayer
 62
  256
370
   -1
100
AcDbCircle
 10
581.6619803725854
 20
22.40217151855849
 40
5.00000000000001
100
AcDbArc
 50
0
 51
143.130102354154
  0
ARC
  5
68
100
AcDbEntity
  8
OUTER_PROFILES
  6
ByLayer
 62
  256
370
   -1
100
AcDbCircle
 10
541.6619803725865
 20
52.40217151855993
 40
44.99999999999994
100
AcDbArc
 50
160.7860609949401
 51
323.1301023541538
  0
ARC
  5
69
100
AcDbEntity
  8
OUTER_PROFILES
  6
ByLayer
 62
  256
370
   -1
100
AcDbCircle
 10
489.7256819415641
 20
70.50247276698629
 40
9.999999999999993
100
AcDbArc
 50
-19.21393900506014
 51
79.00000000000362
  0
LINE
  5
6A
100
AcDbEntity
  8
OUTER_PROFILES
  6
ByLayer
 62
  256
370
   -1
100
AcDbLine
 10
491.6337718953289
 20
80.31874460146305
 11
448.8630447698608
 21
88.63253176215363
  0
ARC
  5
6B
100
AcDbEntity
  8
OUTER_PROFILES
  6
ByLayer
 62
  256
370
   -1
100
AcDbCircle
 10
446.9549548160961
 20
78.81625992767688
 40
9.999999999999995
100
AcDbArc
 50
79.00000000000391
 51
99.00000000000352
  0
LINE
  5
6C
100
AcDbEntity
  8
OUTER_PROFILES
  6
ByLayer
 62
  256
370
   -1
100
AcDbLine
 10
445.3906101656931
 20
88.69314333362816
 11
104.9188548444864
 21
34.76771492074399
  0
ARC
  5
6D
100
AcDbEntity
  8
OUTER_PROFILES
  6
ByLayer
 62
  256
370
   -1
100
AcDbCircle
 10
106.4831994948894
 20
24.89083151479268
 40
10
100
AcDbArc
 50
99.00000000000389
 51
180
  0
LINE
  5
6E
100
AcDbEntity
  8
OUTER_PROFILES
  6
ByLayer
 62
  256
370
   -1
100
AcDbLine
 10
96.48319949488943
 20
24.89083151479214
 11
96.48319949488986
 21
17.31088529286935
  0
LINE
  5
6F
100
AcDbEntity
  8
OUTER_PROFILES
  6
ByLayer
 62
  256
370
   -1
100
AcDbLine
 10
96.48319949488986
 20
17.31088529286935
 11
46.03001666348412
 21
17.31088529286658
  0
ARC
  5
70
100
AcDbEntity
  8
OUTER_PROFILES
  6
ByLayer
 62
  256
370
   -1
100
AcDbCircle
 10
46.03001666348462
 20
7.310885292866546
 40
10
100
AcDbArc
 50
90.00000000000286
 51
107.9557492309211
  0
ARC
  5
71
100
AcDbEntity
  8
OUTER_PROFILES
  6
ByLayer
 62
  256
370
   -1
100
AcDbCircle
 10
29.07448572057646
 20
59.63210441516993
 40
45.00000000000001
100
AcDbArc
 50
-130.9500888440665
 51
-72.0442507690789
  0
ARC
  5
72
100
AcDbEntity
  8
OUTER_PROFILES
  6
ByLayer
 62
  256
370
   -1
100
AcDbCircle
 10
-3.695581382783928
 20
21.86806461483531
 40
4.999999999999999
100
AcDbArc
 50
49.04991115593393
 51
180
  0
LINE
  5
73
100
AcDbEntity
  8
OUTER_PROFILES
  6
ByLayer
 62
  256
370
   -1
100
AcDbLine
 10
-8.695581382783926
 20
21.86806461483505
 11
-8.695581382783004
 21
5.374411152957479
  0
SPLINE
  5
74
100
AcDbEntity
  8
OUTER_PROFILES
  6
ByLayer
 62
  256
370
   -1
100
AcDbSpline
210
0
220
0
230
0
 70
 4096
 71
    3
 72
   14
 73
   10
 74
    0
 42
1e-07
 43
1e-07
 40
0
 40
0
 40
0
 40
0
 40
0.1953222
 40
0.1953222
 40
0.3906445
 40
0.3906445
 40
0.5384082
 40
0.5384082
 40
0.686172
 40
0.686172
 40
0.686172
 40
0.686172
 10
-4.698590183967255
 20
0.4760467989364098
 30
0
 10
-5.33642983847848
 20
0.6066534139167529
 30
0
 10
-5.942661022078326
 20
0.8605956264427228
 30
0
 10
-7.023660576461239
 20
1.586563955227822
 30
0
 10
-7.488094002314014
 20
2.051649418580536
 30
0
 10
-8.124347737533384
 20
3.001937753728068
 30
0
 10
-8.336401393382644
 20
3.449471911256825
 30
0
 10
-8.622800946276499
 20
4.392011627230789
 30
0
 10
-8.695581382783004
 20
4.88186526167271
 30
0
 10
-8.695581382783004
 20
5.37441115295748
 30
0
  0
SPLINE
  5
75
100
AcDbEntity
  8
OUTER_PROFILES
  6
ByLayer
 62
  256
370
   -1
100
AcDbSpline
210
0
220
0
230
0
 70
 4096
 71
    3
 72
    8
 73
    4
 74
    0
 42
1e-07
 43
1e-07
 40
0.5828662
 40
0.5828662
 40
0.5828662
 40
0.5828662
 40
0.7847892
 40
0.7847892
 40
0.7847892
 40
0.7847892
 10
-4.698590183965408
 20
0.476046798936019
 30
0
 10
-3.153978928351577
 20
0.1597659811327246
 30
0
 10
-1.577158479617395
 20
3.33066907387547e-14
 30
0
 10
0
 20
0
 30
0
  0
LINE
  5
76
100
AcDbEntity
  8
OUTER_PROFILES
  6
ByLayer
 62
  256
370
   -1
100
AcDbLine
 10
-1.734269188384393e-16
 20
5.394935758333022e-17
 11
577.9281449443893
 21
-3.108624468950438e-14
  0
SPLINE
  5
77
100
AcDbEntity
  8
OUTER_PROFILES
  6
ByLayer
 62
  256
370
   -1
100
AcDbSpline
210
0
220
0
230
0
 70
 4096
 71
    3
 72
    8
 73
    4
 74
    0
 42
1e-07
 43
1e-07
 40
-3.9263818
 40
-3.9263818
 40
-3.9263818
 40
-3.9263818
 40
-3.7223387
 40
-3.7223387
 40
-3.7223387
 40
-3.7223387
 10
577.9281449443893
 20
-3.108624468950438e-14
 30
0
 10
579.5218629069775
 20
-6.439293542825908e-14
 30
0
 10
581.1152742692907
 20
0.1631583268276859
 30
0
 10
582.6753769559475
 20
0.4860606576619841
 30
0
  0
ENDBLK
  5
54
330
52
100
AcDbEntity
  8
0
100
AcDbBlockEnd
  0
ENDSEC
  0
SECTION
  2
ENTITIES
  0
SPLINE
  5
78
100
AcDbEntity
  8
OUTER_PROFILES
  6
ByLayer
 62
  256
370
   -1
100
AcDbSpline
210
0
220
0
230
0
 70
 4096
 71
    3
 72
   12
 73
    8
 74
    0
 42
1e-07
 43
1e-07
 40
0
 40
0
 40
0
 40
0
 40
0.1953222
 40
0.1953222
 40
0.3906445
 40
0.3906445
 40
0.5856051999999999
 40
0.5856051999999999
 40
0.5856051999999999
 40
0.5856051999999999
 10
-4.582668150119744
 20
592.3196452692121
 30
0
 10
-4.327175789788527
 20
592.9184951390092
 30
0
 10
-3.957157379663769
 20
593.4617163383748
 30
0
 10
-3.0297229133852
 20
594.375748811394
 30
0
 10
-2.481173636219935
 20
594.7378214364195
 30
0
 10
-1.277278522286807
 20
595.2308628058155
 30
0
 10
-0.6335995040453213
 20
595.3575617554015
 30
0
 10
0.01626958427451086
 20
595.3575617554015
 30
0
  0
SPLINE
  5
79
100
AcDbEntity
  8
OUTER_PROFILES
  6
ByLayer
 62
  256
370
   -1
100
AcDbSpline
210
0
220
0
230
0
 70
 4096
 71
    3
 72
    8
 73
    4
 74
    0
 42
1e-07
 43
1e-07
 40
0.3817193
 40
0.3817193
 40
0.3817193
 40
0.3817193
 40
0.7847892
 40
0.7847892
 40
0.7847892
 40
0.7847892
 10
-4.582668150134523
 20
592.3196452691774
 30
0
 10
-5.817111333492733
 20
589.4262274829429
 30
0
 10
-6.460267602517433
 20
586.2799042761849
 30
0
 10
-6.460267602517646
 20
583.1316493780329
 30
0
  0
LINE
  5
7A
100
AcDbEntity
  8
OUTER_PROFILES
  6
ByLayer
 62
  256
370
   -1
100
AcDbLine
 10
-6.460267602517646
 20
583.1316493780328
 11
-6.460267602549123
 21
12.18765833199384
  0
SPLINE
  5
7B
100
AcDbEntity
  8
OUTER_PROFILES
  6
ByLayer
 62
  256
370
   -1
100
AcDbSpline
210
0
220
0
230
0
 70
 4096
 71
    3
 72
   11
 73
    7
 74
    0
 42
1e-07
 43
1e-07
 40
-0.7847892
 40
-0.7847892
 40
-0.7847892
 40
-0.7847892
 40
-0.4288899
 40
-0.4288899
 40
-0.4288899
 40
-0.3839769
 40
-0.3839769
 40
-0.3839769
 40
-0.3839769
 10
-6.460267602549123
 20
12.18765833199384
 30
0
 10
-6.460267602549266
 20
9.407838578795555
 30
0
 10
-5.960450433700757
 20
6.62961315235421
 30
0
 10
-4.992015769258629
 20
4.025572696144692
 30
0
 10
-4.869803306819662
 20
3.696953525302327
 30
0
 10
-4.740214864818384
 20
3.371108045796021
 30
0
 10
-4.603359461987324
 20
3.048313123543736
 30
0
  0
SPLINE
  5
7C
100
AcDbEntity
  8
OUTER_PROFILES
  6
ByLayer
 62
  256
370
   -1
100
AcDbSpline
210
0
220
0
230
0
 70
 4096
 71
    3
 72
   12
 73
    8
 74
    0
 42
1e-07
 43
1e-07
 40
0
 40
0
 40
0
 40
0
 40
0.1953222
 40
0.1953222
 40
0.3906445
 40
0.3906445
 40
0.5867456999999999
 40
0.5867456999999999
 40
0.5867456999999999
 40
0.5867456999999999
 10
-7.105427357601002e-14
 20
0
 30
0
 10
-0.6510741223115701
 20
0
 30
0
 10
-1.295923621150976
 20
0.1271692538231406
 30
0
 10
-2.500580082561825
 20
0.621530317172585
 30
0
 10
-3.048869872773707
 20
0.9839957654857301
 30
0
 10
-3.97749739689722
 20
1.900516216574566
 30
0
 10
-4.348207391875221
 20
2.446496966267091
 30
0
 10
-4.603359461987324
 20
3.0483131235437
 30
0
  0
LINE
  5
7D
100
AcDbEntity
  8
OUTER_PROFILES
  6
ByLayer
 62
  256
370
   -1
100
AcDbLine
 10
-7.105427357601002e-14
 20
0
 11
604.8232720140272
 21
0
  0
SPLINE
  5
7E
100
AcDbEntity
  8
OUTER_PROFILES
  6
ByLayer
 62
  256
370
   -1
100
AcDbSpline
210
0
220
0
230
0
 70
 4096
 71
    3
 72
   12
 73
    8
 74
    0
 42
1e-07
 43
1e-07
 40
0
 40
0
 40
0
 40
0
 40
0.1953222
 40
0.1953222
 40
0.3906445
 40
0.3906445
 40
0.5867456999999999
 40
0.5867456999999999
 40
0.5867456999999999
 40
0.5867456999999999
 10
609.4266314760183
 20
3.048313123552333
 30
0
 10
609.1724929119962
 20
2.448887479272273
 30
0
 10
608.8037028935903
 20
1.904831583618574
 30
0
 10
607.8783361165956
 20
0.9887058395148784
 30
0
 10
607.3306063687588
 20
0.6253946525056264
 30
0
 10
606.1243137202423
 20
0.1281855798137599
 30
0
 10
605.4769426237733
 20
0
 30
0
 10
604.8232720140272
 20
0
 30
0
  0
SPLINE
  5
7F
100
AcDbEntity
  8
OUTER_PROFILES
  6
ByLayer
 62
  256
370
   -1
100
AcDbSpline
210
0
220
0
230
0
 70
 4096
 71
    3
 72
    8
 73
    4
 74
    0
 42
1e-07
 43
1e-07
 40
0.3839769
 40
0.3839769
 40
0.3839769
 40
0.3839769
 40
0.7847892
 40
0.7847892
 40
0.7847892
 40
0.7847892
 10
609.4266314760331
 20
3.048313123587221
 30
0
 10
610.6476636366526
 20
5.928308894343033
 30
0
 10
611.2835396165626
 20
9.05703678528841
 30
0
 10
611.2835396165628
 20
12.18765833195945
 30
0
  0
LINE
  5
80
100
AcDbEntity
  8
OUTER_PROFILES
  6
ByLayer
 62
  256
370
   -1
100
AcDbLine
 10
611.2835396165628
 20
12.18765833195945
 11
611.2835396165943
 21
583.1316493779989
  0
SPLINE
  5
81
100
AcDbEntity
  8
OUTER_PROFILES
  6
ByLayer
 62
  256
370
   -1
100
AcDbSpline
210
0
220
0
230
0
 70
 4096
 71
    3
 72
   11
 73
    7
 74
    0
 42
1e-07
 43
1e-07
 40
-3.9263818
 40
-3.9263818
 40
-3.9263818
 40
-3.9263818
 40
-3.5704826
 40
-3.5704826
 40
-3.5704826
 40
-3.523312
 40
-3.523312
 40
-3.523312
 40
-3.523312
 10
611.2835396165943
 20
583.1316493779989
 30
0
 10
611.2835396165945
 20
585.9114691311971
 30
0
 10
610.783722447746
 20
588.6896945576384
 30
0
 10
609.8152877833038
 20
591.2937350138479
 30
0
 10
609.6869322071648
 20
591.6388725077012
 30
0
 10
609.5504400066802
 20
591.9809513381961
 30
0
 10
609.4059401641972
 20
592.3196452691789
 30
0
  0
SPLINE
  5
82
100
AcDbEntity
  8
OUTER_PROFILES
  6
ByLayer
 62
  256
370
   -1
100
AcDbSpline
210
0
220
0
230
0
 70
 4096
 71
    3
 72
   12
 73
    8
 74
    0
 42
1e-07
 43
1e-07
 40
0
 40
0
 40
0
 40
0
 40
0.1953222
 40
0.1953222
 40
0.3906445
 40
0.3906445
 40
0.5856051999999999
 40
0.5856051999999999
 40
0.5856051999999999
 40
0.5856051999999999
 10
604.8070024298033
 20
595.3575617553688
 30
0
 10
605.4580765521148
 20
595.3575617553688
 30
0
 10
606.1029260509542
 20
595.2303925015456
 30
0
 10
607.3075825123651
 20
594.7360314381961
 30
0
 10
607.8558723025769
 20
594.3735659898829
 30
0
 10
608.7817941653244
 20
593.4597159248426
 30
0
 10
609.1509206793318
 20
592.9173867637169
 30
0
 10
609.4059401641972
 20
592.3196452691789
 30
0
  0
LINE
  5
83
100
AcDbEntity
  8
OUTER_PROFILES
  6
ByLayer
 62
  256
370
   -1
100
AcDbLine
 10
604.8070024298033
 20
595.3575617553688
 11
0.01626958427451067
 21
595.3575617554015
  0
LWPOLYLINE
  5
84
100
AcDbEntity
  8
INTERIOR_PROFILES
  6
ByLayer
 62
  256
370
   -1
100
AcDbPolyline
 90
   38
 70
    1
 43
0
 10
87.46473127287324
 20
67.17878087767363
 10
87.46473127287324
 20
105.1787808776736
 10
150.4647312728845
 20
105.1787808776736
 42
0.414213562373095
 10
160.4647312728845
 20
115.1787808776736
 10
160.4647312728845
 20
124.484250514447
 42
0.252947204143825
 10
155.9432477022703
 20
132.8500055749869
 42
-0.4427508271693884
 10
144.339081972755
 20
205.9718097349421
 42
0.170687849702991
 10
146.5397323974662
 20
212.2304155063933
 10
146.5397323974663
 20
255.6787808776866
 42
0.4142135623730958
 10
136.5397323974663
 20
265.6787808776866
 10
111.5397323974666
 20
265.6787808776866
 42
-0.414213562373095
 10
101.5397323974666
 20
275.6787808776866
 10
101.5397323974666
 20
319.6787808776866
 42
-0.414213562373095
 10
111.5397323974666
 20
329.6787808776866
 10
136.5397323974663
 20
329.6787808776866
 42
0.414213562373095
 10
146.5397323974663
 20
339.6787808776866
 10
146.5397323974662
 20
383.1271462489798
 42
0.1706878497029894
 10
144.3390819727551
 20
389.3857520204309
 42
-0.4427508271693894
 10
155.9432477022703
 20
462.5075561803864
 42
0.2529472041438268
 10
160.4647312728846
 20
470.8733112409263
 10
160.4647312728846
 20
507.1787808776833
 42
0.4142135623730958
 10
150.4647312728846
 20
517.1787808776834
 10
47.46473127288233
 20
517.1787808776834
 10
47.4647312728824
 20
555.1787808776833
 10
557.4647312728824
 20
555.1787808776833
 10
557.4647312728824
 20
517.1787808776833
 10
494.4647312728745
 20
517.1787808776833
 42
0.4142135623730933
 10
484.4647312728745
 20
507.1787808776833
 10
484.4647312728744
 20
339.6787808776866
 42
0.3970093665236661
 10
493.8741354447266
 20
329.6962362838581
 42
-0.3970093665236596
 10
503.2835396165785
 20
319.7136916900296
 10
503.2835396165786
 20
275.6787808776866
 42
-0.397009366523663
 10
493.8741354447265
 20
265.6962362838581
 42
0.3970093665236637
 10
484.4647312728744
 20
255.7136916900296
 10
484.4647312728744
 20
115.1787808776735
 42
0.4142135623730955
 10
494.4647312728744
 20
105.1787808776736
 10
597.4647312728733
 20
105.1787808776735
 10
597.4647312728733
 20
67.17878087767357
  0
INSERT
  5
85
100
AcDbEntity
  8
0
  6
ByLayer
 62
  256
370
   -1
100
AcDbBlockReference
  2
Top_R
 10
615.2144406029746
 20
587.6675253520951
 30
0
 41
1
 42
1
 43
0
 50
270
 70
    1
 71
    1
 44
0
 45
0
  0
INSERT
  5
86
100
AcDbEntity
  8
0
  6
ByLayer
 62
  256
370
   -1
100
AcDbBlockReference
  2
Top_L
 10
753.4891524505272
 20
10.2625762699355
 30
0
 41
1
 42
1
 43
0
 50
90
 70
    1
 71
    1
 44
0
 45
0
  0
ENDSEC
  0
SECTION
  2
OBJECTS
  0
DICTIONARY
  5
C
330
0
100
AcDbDictionary
281
    1
  3
ACAD_GROUP
350
D
  0
DICTIONARY
  5
D
330
C
100
AcDbDictionary
281
    1
  0
PLOTSETTINGS
  5
87
100
AcDbPlotSettings
  6
1x1
 40
0
 41
0
 42
0
 43
0
  0
ENDSEC
  0
EOF
